<svg id="Layer_1" data-name="Layer 1" xmlns="http://www.w3.org/2000/svg" viewBox="0 0 45.36 70.13"><defs><style>.cls-1{fill:#c0cadb;}.cls-2{fill:#2e365b;}</style></defs><rect class="cls-1" x="5.95" y="6.81" width="34.41" height="34.41"/><path class="cls-2" d="M43.78,0H1.58A1.58,1.58,0,0,0,0,1.58v67A1.57,1.57,0,0,0,1,70a1.56,1.56,0,0,0,1.75-.44l19.9-22.94,19.9,22.94a1.59,1.59,0,0,0,2.78-1v-67A1.58,1.58,0,0,0,43.78,0ZM36,20.59l-7.92,5.76a.2.2,0,0,0-.07.23l3,9.31a.21.21,0,0,1-.32.23L22.8,30.37a.18.18,0,0,0-.24,0l-7.92,5.75a.21.21,0,0,1-.32-.23l3-9.31a.2.2,0,0,0-.07-.23L9.35,20.59a.2.2,0,0,1,.12-.37h9.79a.21.21,0,0,0,.2-.15l3-9.31a.21.21,0,0,1,.4,0l3,9.31a.21.21,0,0,0,.2.15h9.79A.2.2,0,0,1,36,20.59Z"/></svg>