<svg id="Layer_1" data-name="Layer 1" xmlns="http://www.w3.org/2000/svg" viewBox="0 0 90.61 76.64"><defs><style>.cls-1{fill:#2e365b;}</style></defs><path class="cls-1" d="M89.79,38.81,48.39,1.2a4.57,4.57,0,0,0-6.17,0L.82,38.81a2.5,2.5,0,1,0,3.36,3.7L11.3,36v36a4.6,4.6,0,0,0,4.59,4.59H33.58a4.6,4.6,0,0,0,4.59-4.59V56.12H52.44V72.05A4.6,4.6,0,0,0,57,76.64H74.72a4.6,4.6,0,0,0,4.59-4.59V36l7.12,6.47a2.47,2.47,0,0,0,1.68.65,2.5,2.5,0,0,0,1.68-4.35ZM74.31,71.64H57.44V55.71a4.59,4.59,0,0,0-4.58-4.59H37.75a4.59,4.59,0,0,0-4.58,4.59V71.64H16.3V31.5l29-26.35,29,26.35Z"/></svg>