<svg xmlns="http://www.w3.org/2000/svg" viewBox="0 0 233.49 505.94"><defs><style>.cls-1{fill:#2e365b;}.cls-2{fill:#fff;}.cls-3,.cls-5,.cls-6,.cls-7,.cls-8{fill:none;stroke:#2e365b;stroke-miterlimit:10;}.cls-4{fill:#c0cadb;}.cls-5{stroke-width:0.25px;}.cls-6{stroke-width:0.63px;}.cls-7{stroke-width:0.1px;}.cls-8{stroke-width:0.5px;}</style></defs><g id="Layer_4" data-name="Layer 4"><g id="בח_א_21" data-name="בח&quot;א 21"><path class="cls-1" d="M48.88,47.18A10.65,10.65,0,0,0,59.51,57.83H90.23a10.53,10.53,0,0,1,10.54,10.53v2.1a1.09,1.09,0,0,0,1.09,1.1h0a1.1,1.1,0,0,0,1.1-1.1V47.18A10.62,10.62,0,0,0,92.33,36.56H59.51A10.65,10.65,0,0,0,48.88,47.18Z"/><path class="cls-2" d="M61.89,46.64H56.64V45.39L59,42.92a6.89,6.89,0,0,0,.49-.6,2.73,2.73,0,0,0,.27-.49,1.18,1.18,0,0,0,.08-.39,1,1,0,0,0-.19-.66.69.69,0,0,0-.54-.22.64.64,0,0,0-.43.15.92.92,0,0,0-.28.38,1.33,1.33,0,0,0-.1.54H56.48a2.58,2.58,0,0,1,.34-1.28,2.65,2.65,0,0,1,1-.93,2.83,2.83,0,0,1,1.41-.34,2.73,2.73,0,0,1,1.9.58,2.05,2.05,0,0,1,.65,1.62,2.43,2.43,0,0,1-.22,1,4.16,4.16,0,0,1-.62.95c-.27.33-.59.68-1,1.07l-.85.86h2.83Z"/><path class="cls-2" d="M66.66,46.64H64.81V41.36l-1.66.45V40.36l3.34-1.17h.17Z"/><path class="cls-2" d="M75.68,46.64l-4.21-6.19h2.17l4.19,6.19Zm-3.94,0v-2a3,3,0,0,1,.33-1.54,2.08,2.08,0,0,1,1.11-.81l.67,1a.69.69,0,0,0-.24.52v2.82Zm6.18-6.19-2,4L74.67,42.9l1.07-2.45Z"/><path class="cls-2" d="M78.84,40.49a2.13,2.13,0,0,1,.14-.72,3.83,3.83,0,0,1,.37-.69,3.07,3.07,0,0,1,.46-.53l.8.43a5.53,5.53,0,0,0-.29.64,2.5,2.5,0,0,0-.14.88v.87H78.84Zm1.87,0a1.92,1.92,0,0,1,.14-.72,3.24,3.24,0,0,1,.36-.69,3.07,3.07,0,0,1,.46-.53l.81.43a5.53,5.53,0,0,0-.29.64,2.29,2.29,0,0,0-.14.88v.87H80.71Z"/><path class="cls-2" d="M83.67,46.64V40.45h2.87a2.58,2.58,0,0,1,1.84.59A2.33,2.33,0,0,1,89,42.78v3.86H87.1v-4a.76.76,0,0,0-.15-.5.48.48,0,0,0-.39-.17h-.94v4.7Z"/><path class="cls-2" d="M89.91,46.64v-1.5h2.8l1.94-.06.71.12v1.44Zm2.8-.45v-3.6a.59.59,0,0,0-.19-.48.77.77,0,0,0-.53-.17H90.25V40.45h1.89A2.66,2.66,0,0,1,94,41a2.08,2.08,0,0,1,.67,1.64v3.51Z"/><path class="cls-2" d="M80,53.08V51.23h-.78v-.35h1.2v2.2Z"/><path class="cls-2" d="M81.83,54.94l-.31,0-.27-.05,0-.34a1.79,1.79,0,0,0,.5,0,.58.58,0,0,0,.45-.17.79.79,0,0,0,.16-.55V51.23H81.5v-.35h1.29v3a1.14,1.14,0,0,1-.24.78A1,1,0,0,1,81.83,54.94Z"/><path class="cls-2" d="M84.85,54.92a3.15,3.15,0,0,1-.52-.05,4.43,4.43,0,0,1-.58-.14l.07-.32a3.46,3.46,0,0,0,1,.16,1.26,1.26,0,0,0,.9-.32,1.1,1.1,0,0,0,.32-.86V51.23H83.85v-.35h2.64v2.4a1.89,1.89,0,0,1-.2.91,1.26,1.26,0,0,1-.57.55A2,2,0,0,1,84.85,54.92Z"/><path class="cls-2" d="M89.27,54.94a1.57,1.57,0,0,1-.79-.19,1.31,1.31,0,0,1-.53-.54,1.62,1.62,0,0,1-.19-.81V50.88h.41V53.4a1.2,1.2,0,0,0,.3.86,1,1,0,0,0,.8.33,1,1,0,0,0,.8-.33,1.2,1.2,0,0,0,.3-.86V52a.92.92,0,0,0-.15-.57.49.49,0,0,0-.43-.19,1,1,0,0,0-.3,0,1.6,1.6,0,0,0-.3.11l-.08-.3a1.42,1.42,0,0,1,.76-.21.81.81,0,0,1,.68.28,1.19,1.19,0,0,1,.24.81V53.4a1.73,1.73,0,0,1-.19.81,1.38,1.38,0,0,1-.53.54A1.58,1.58,0,0,1,89.27,54.94Z"/><path class="cls-2" d="M94.37,54.87V52.41a1.29,1.29,0,0,0-.27-.91,1.23,1.23,0,0,0-.89-.27H91.86v-.35h1.36a1.64,1.64,0,0,1,1.18.38,1.52,1.52,0,0,1,.39,1.15v2.46Zm-2.49,0V53.51a2.13,2.13,0,0,1,0-.49,1.69,1.69,0,0,1,.11-.34h.35a1.28,1.28,0,0,0-.07.35,3.4,3.4,0,0,0,0,.48v1.36Z"/></g><g id="כנף_1" data-name="כנף 1"><path class="cls-1" d="M158.07,63.44a10.64,10.64,0,0,1-10.63,10.64H126.61a10.53,10.53,0,0,0-10.53,10.54v2.1a1.11,1.11,0,0,1-1.1,1.1h0a1.1,1.1,0,0,1-1.1-1.1V63.44a10.62,10.62,0,0,1,10.63-10.62h22.93a10.67,10.67,0,0,1,10.63,10.62Z"/><path class="cls-2" d="M127.37,63.1h-1.85V57.82l-1.67.45V56.82l3.35-1.17h.17Z"/><path class="cls-2" d="M137.7,56.9v8.33h-1.91V58.4h-1.17c0,.13-.06.25-.08.38s0,.23,0,.35,0,.22,0,.33v.43l.23,0h.18v1.21a2.56,2.56,0,0,1-.79.09,3.68,3.68,0,0,1-.82-.11,2.42,2.42,0,0,1-.67-.29v-.68c0-.22,0-.43,0-.65a5.49,5.49,0,0,1,.12-.61,2.18,2.18,0,0,1,.19-.48h-.59V56.9Z"/><path class="cls-2" d="M140.08,63.2a3.91,3.91,0,0,1-.61,0,5.94,5.94,0,0,1-.66-.12V61.6a6.42,6.42,0,0,0,.74,0,.58.58,0,0,0,.47-.18.77.77,0,0,0,.15-.52V58.4h-1V56.9h3v4.2a2.15,2.15,0,0,1-.53,1.54A2,2,0,0,1,140.08,63.2Z"/><path class="cls-2" d="M145,63.2a6.85,6.85,0,0,1-.88-.06c-.3,0-.62-.09-.95-.16l.29-1.4a9,9,0,0,0,1.25.15,1.51,1.51,0,0,0,1-.29,1.15,1.15,0,0,0,.3-.86V58.4h-2.61V56.9H148v3.36a3.44,3.44,0,0,1-.37,1.71,2.21,2.21,0,0,1-1,.94A3.91,3.91,0,0,1,145,63.2Z"/><path class="cls-2" d="M126.3,67.34h3.07v.35h-.65v3.64h-.42V67.69h-2Z"/><path class="cls-2" d="M130.45,71.33V67.69h-.53v-.35h.94v4Z"/><path class="cls-2" d="M131.7,67.34h3.07v.35h-.65v3.64h-.42V67.69h-2Z"/><path class="cls-2" d="M138.84,67.34a1.64,1.64,0,0,1,1.18.38,1.57,1.57,0,0,1,.38,1.16v2.45H140V68.86a1.27,1.27,0,0,0-.26-.9,1.2,1.2,0,0,0-.88-.27h-.59a1.37,1.37,0,0,0-.22.5,2.46,2.46,0,0,0-.09.67v1.45a1.15,1.15,0,0,1-.23.78.9.9,0,0,1-.69.26h-.16l-.17,0V71l.13,0h.11a.55.55,0,0,0,.47-.17.81.81,0,0,0,.13-.52V68.89a2.24,2.24,0,0,1,.1-.68,1.26,1.26,0,0,1,.25-.52h-.81v-.35Z"/><path class="cls-2" d="M141.57,71.33l.32-2.69a1.83,1.83,0,0,1,.17-.53,1.11,1.11,0,0,1,.32-.38l.05,0,0,0v0l-.41.09-.5.15-.11-.33c.17-.06.36-.11.56-.16a6,6,0,0,1,.61-.1,3.65,3.65,0,0,1,.55,0,1.58,1.58,0,0,1,1.16.41,1.63,1.63,0,0,1,.4,1.2v2.44h-1.59V71h1.18V68.85A1.31,1.31,0,0,0,144,68a1.07,1.07,0,0,0-.82-.3.8.8,0,0,0-.61.26,1.16,1.16,0,0,0-.3.71L142,71.33Z"/><path class="cls-2" d="M147.68,71.33V68.47a.77.77,0,0,0-.21-.57.79.79,0,0,0-.57-.21h-1.41v-.35h1.4a1.24,1.24,0,0,1,.88.31,1.12,1.12,0,0,1,.32.86v2.82Z"/></g><g id="יב_א_צפונית" data-name="יב&quot;א צפונית"><path class="cls-1" d="M233.49,31.83a10.64,10.64,0,0,1-10.63,10.64H172.35A10.54,10.54,0,0,0,161.82,53v2.1a1.09,1.09,0,0,1-1.1,1.09h0a1.09,1.09,0,0,1-1.09-1.09V31.83A10.63,10.63,0,0,1,170.25,21.2h52.61a10.67,10.67,0,0,1,10.63,10.63Z"/><path class="cls-2" d="M172.35,25.09a2.58,2.58,0,0,1,1.84.6,2.26,2.26,0,0,1,.63,1.74v3.86h-1.93v-4a.79.79,0,0,0-.14-.49.48.48,0,0,0-.39-.17h-.76a5.67,5.67,0,0,0-.05.58c0,.19,0,.36,0,.51V29.3a2.07,2.07,0,0,1-.55,1.54,2,2,0,0,1-1.49.56l-.44,0-.43-.06V29.84H169a.68.68,0,0,0,.5-.18.66.66,0,0,0,.19-.53V27.86a4,4,0,0,1,.06-.61,2.71,2.71,0,0,1,.23-.66h-.87v-1.5Z"/><path class="cls-2" d="M176.6,28.67V26.59h-.9v-1.5h2.83v3.58Z"/><path class="cls-2" d="M180.86,31.39a3.91,3.91,0,0,1-.61,0,5.94,5.94,0,0,1-.66-.12V29.79a6.42,6.42,0,0,0,.74.05.58.58,0,0,0,.47-.18.77.77,0,0,0,.15-.52V26.59h-1v-1.5h3v4.2a2.15,2.15,0,0,1-.53,1.54A2,2,0,0,1,180.86,31.39Z"/><path class="cls-2" d="M184.46,31.29v-4.7H184v-1.5h2.4v6.2Z"/><path class="cls-2" d="M190.41,31.44a7.76,7.76,0,0,1-1.21-.11A7.26,7.26,0,0,1,188,31l.36-1.41a7.85,7.85,0,0,0,1,.22,6.49,6.49,0,0,0,.87.08,1.59,1.59,0,0,0,1-.29,1.09,1.09,0,0,0,.33-.86V26.59h-1.53c-.05.2-.09.37-.11.5a3.23,3.23,0,0,0,0,.46v.21l.24,0h.17V29a2.86,2.86,0,0,1-.79.08,3.1,3.1,0,0,1-.81-.11,2.42,2.42,0,0,1-.67-.29v-.47a4.46,4.46,0,0,1,.09-.91,2.35,2.35,0,0,1,.26-.72h-.6v-1.5h5.72v3.42a3,3,0,0,1-.43,1.7,2.46,2.46,0,0,1-1.15.94A4.13,4.13,0,0,1,190.41,31.44Z"/><path class="cls-2" d="M195,31.29v-1.5h2.56l-3.15-4.7h2.16l1.54,2.54,1.94,2.82v.84Zm3.54-2.18-1.19-1.53,1-2.49h2.16Z"/><path class="cls-2" d="M208,31.29l-4.21-6.2H206l4.19,6.2Zm-3.94,0v-2a3,3,0,0,1,.33-1.53,2.09,2.09,0,0,1,1.11-.82l.67,1a.69.69,0,0,0-.24.52v2.82Zm6.18-6.2-2,4L207,27.55l1.07-2.46Z"/><path class="cls-2" d="M211.18,25.14a2.13,2.13,0,0,1,.14-.72,3.83,3.83,0,0,1,.37-.69,3.07,3.07,0,0,1,.46-.53l.8.43a5.53,5.53,0,0,0-.29.64,2.5,2.5,0,0,0-.14.88V26h-1.34Zm1.87,0a1.92,1.92,0,0,1,.14-.72,3.24,3.24,0,0,1,.36-.69,3.07,3.07,0,0,1,.46-.53l.81.43a5.53,5.53,0,0,0-.29.64,2.29,2.29,0,0,0-.14.88V26h-1.34Z"/><path class="cls-2" d="M215.46,31.29v-1.5h2.8l1.94-.06.71.12v1.44Zm2.8-.45V27.23a.61.61,0,0,0-.18-.47.77.77,0,0,0-.53-.17H215.8v-1.5h1.9a2.64,2.64,0,0,1,1.83.6,2.08,2.08,0,0,1,.67,1.64v3.51Z"/><path class="cls-2" d="M222.16,28.67V26.59h-.89v-1.5h2.83v3.58Z"/><path class="cls-2" d="M214,37l.25-2.42h2.48v.37h-2.13l-.18,1.68a1.7,1.7,0,0,1,.38-.18,1.6,1.6,0,0,1,.56-.09,1.5,1.5,0,0,1,.77.2,1.32,1.32,0,0,1,.52.55,1.87,1.87,0,0,1,.18.85,2.26,2.26,0,0,1-.15.85,1.29,1.29,0,0,1-.49.59,1.54,1.54,0,0,1-.84.21,1.69,1.69,0,0,1-.56-.08,1.33,1.33,0,0,1-.47-.25,1.41,1.41,0,0,1-.33-.43,1.66,1.66,0,0,1-.16-.61h.39a1.23,1.23,0,0,0,.35.77,1.13,1.13,0,0,0,.78.26,1.1,1.1,0,0,0,.59-.15,1,1,0,0,0,.36-.45,1.83,1.83,0,0,0,.12-.7,1.54,1.54,0,0,0-.13-.63,1,1,0,0,0-.38-.44,1.13,1.13,0,0,0-.62-.17,1.29,1.29,0,0,0-.57.1,1.4,1.4,0,0,0-.39.26Z"/><path class="cls-2" d="M220.55,37.44a3.47,3.47,0,0,1-.18,1.21,1.41,1.41,0,0,1-.52.7,1.58,1.58,0,0,1-1.64,0,1.43,1.43,0,0,1-.53-.7,3.47,3.47,0,0,1-.18-1.21V36.6a3.45,3.45,0,0,1,.18-1.2,1.41,1.41,0,0,1,.52-.7,1.46,1.46,0,0,1,.82-.23,1.36,1.36,0,0,1,1.35.93,3.45,3.45,0,0,1,.18,1.2Zm-.4-.89a3.2,3.2,0,0,0-.13-.95,1.18,1.18,0,0,0-.38-.58,1,1,0,0,0-.62-.2,1,1,0,0,0-.62.2,1.17,1.17,0,0,0-.37.58,3.23,3.23,0,0,0-.12.95v.94a3.28,3.28,0,0,0,.12.95,1.3,1.3,0,0,0,.38.6,1,1,0,0,0,.62.2,1,1,0,0,0,.62-.2,1.28,1.28,0,0,0,.37-.6,3.25,3.25,0,0,0,.13-.95Z"/><path class="cls-2" d="M223.84,34.51v.35h-.05A2,2,0,0,0,223,35a1.63,1.63,0,0,0-.62.44,1.75,1.75,0,0,0-.38.7,2.92,2.92,0,0,0-.13.92v.69a1.77,1.77,0,0,0,.16.79,1.25,1.25,0,0,0,.43.5,1.09,1.09,0,0,0,.61.18.92.92,0,0,0,.57-.18,1.23,1.23,0,0,0,.37-.49,1.78,1.78,0,0,0,.13-.67,1.75,1.75,0,0,0-.12-.65,1.12,1.12,0,0,0-.36-.47,1,1,0,0,0-.61-.18,1.2,1.2,0,0,0-.59.15,1.27,1.27,0,0,0-.45.38,1,1,0,0,0-.18.52h-.23a1.5,1.5,0,0,1,.14-.58,1.31,1.31,0,0,1,.33-.44,1.4,1.4,0,0,1,.47-.28,1.56,1.56,0,0,1,.57-.1,1.32,1.32,0,0,1,.79.23,1.35,1.35,0,0,1,.48.6,1.91,1.91,0,0,1,.16.8,2.05,2.05,0,0,1-.18.87,1.33,1.33,0,0,1-1.29.83,1.46,1.46,0,0,1-.67-.14,1.51,1.51,0,0,1-.51-.39,1.68,1.68,0,0,1-.32-.59,2.28,2.28,0,0,1-.11-.7v-.44a4.11,4.11,0,0,1,.15-1.15,2.25,2.25,0,0,1,.44-.89,1.82,1.82,0,0,1,.74-.57,2.43,2.43,0,0,1,1-.2Z"/></g><g id="מפה-2" data-name="מפה"><g id="מפה-3" data-name="מפה"><path id="path1104" class="cls-3" d="M16.83,265c.59,1.19,2.15,3.57,2.15,3.57s8.64,36.86,19.29,58.31,13.48,35.37,13.48,35.37v7l3.72,5.59-2.31,9.3L62,391.6l16.3,45.65-1,3.27L88.54,474v5.14l2.3,6.56-.44,10.72,1,3.72,2.3,2.31v1.41l.45,1.42,2.31-1.42,3.72-5.58c.52-.74,2.46.6,2.83,0,.6-1.12-.22-3.43,0-5.14a26.53,26.53,0,0,1,1.86-7c.23-.52,1.72,0,1.87-.44.29-1.2-.67-3.21-.45-4.7.07-.74,1.26-1.11,1.41-1.86.45-2.23-.22-4.76.45-7,1.64-5.36,5.44-10.35,6.55-15.86.82-4-1.19-8.56-1-12.58.07-.82,1.63-1.05,1.86-1.87.89-3.05.07-6.85,1.41-9.75,1.49-3.28,5.29-5.66,7-8.86.82-1.57.67-3.72.45-5.59a30.41,30.41,0,0,0-1.86-6.55c-.38-1.12-1-2.16-1.42-3.28-.22-.59-.67-1.34-.45-1.86.6-1.49,2.31-2.68,2.83-4.17s-.37-3.2,0-4.69,1.64-2.46,2.31-3.72a2.49,2.49,0,0,0,.45-1.42,20.38,20.38,0,0,0-1-4.69,17.25,17.25,0,0,0-1.86-3.72c-.37-.52-1.56-.82-1.41-1.42,1-3.27,3.94-6.7,5.13-10.27.6-1.72-.15-3.73,0-5.59a13.34,13.34,0,0,1,1-4.17,83.69,83.69,0,0,1,5.14-10.72c1.41-2.46,4.24-4.39,5.14-7,1-3-.6-7,.44-9.76.67-1.71,4-2.16,4.7-3.72s-1.12-3.8-1-5.58,1.11-3.13,1.86-4.7a18.85,18.85,0,0,1,2.83-4.69c1-1,3.65-.89,3.72-2.3l.45-8.87,1.86-4.69,2.83-3.72,1.86-6.55-1.86-5.59-3.72-6-2.83-1.86,1.41-6.56,7.45-13,.45-14.44c.14-5.66,1.34-11.25,2.3-16.76a74.87,74.87,0,0,1,2.31-8.86c1-3.28,2.46-6.48,3.28-9.75a7,7,0,0,0,0-3.28c-.22-1.12-1.34-2.16-1.42-3.28s.9-2.16,1-3.27a13.29,13.29,0,0,0-.44-4.17c-.6-2.09-2.46-4.25-2.31-6,.07-1.11,2.6-1.63,2.83-2.83.29-1.78-.75-4.09-1.42-6-.44-1.41-1.64-2.75-1.86-4.17a9,9,0,0,1,.45-3.72c.44-1.56,1.49-3,1.86-4.69.22-.9-.15-1.86,0-2.83.45-2.24,1.34-4.32,1.86-6.55.67-2.76,1.86-5.59,1.86-8.42,0-3.72-1.41-7.45-1.86-11.17-.52-4.17-1.19-8.41-1-12.58.23-3.28,1.64-6.48,2.31-9.76a10.8,10.8,0,0,0,.45-3.72c-.23-1.19-1.64-2.09-1.86-3.28a7.15,7.15,0,0,1,.44-3.27c.3-1.12,1.42-2.09,1.42-3.28a28.59,28.59,0,0,0-1.42-7.89c-.22-.75-1.64-1.64-1.41-1.87s2.31.82,3.27.45a8.42,8.42,0,0,0,3.28-2.83c.67-.89.52-2.9,1.42-3.28,1.26-.52,3.64,1,5.13.45,1.34-.45,2-2.38,3.28-3.28,1.56-1,3.65-1.26,5.14-2.3,1-.75,1.34-2.46,2.31-3.28.74-.6,2.16-.22,2.83-1a38.42,38.42,0,0,0,5.58-8.41,9.18,9.18,0,0,0,1-4.17c0-.82-1.19-1.64-1-2.31,1.12-2.68,4.47-5.14,5.14-7.89.37-1.57-1.49-3.36-1.86-5.14-1-4.92-.52-10.58-2.31-14.9-.75-1.71-4.92-1.86-5.14-3.27-.22-1.64,3.05-3.87,3.72-6a8,8,0,0,0-.44-4.17c-.23-.6-1.19-.82-1.42-1.42-.67-1.71-.44-4-1.41-5.58-.75-1.27-3.65-1.64-3.72-2.76-.08-1.64,3-3.8,3.27-5.58.08-1-1.34-2.24-2.31-2.83S189.88,1,188.77.88c-1.72-.08-4-.52-5.14,0-.52.22.37,1.71,0,2.31A17.19,17.19,0,0,1,180.8,6c-.6.59-1.12,1.64-1.86,1.86-1.12.37-2.83-.52-3.73,0-.67.45-.44,2.08-1,2.83-.15.22-.6.07-1,0-1-.15-2.16.07-2.83-.45-.9-.82-1.34-3.57-1.86-3.72s-.45,2-1,2.83-1.42,1.12-1.86,1.86a9,9,0,0,0-1.42,3.28c-.15,1.34.52,2.83.45,4.17a30.93,30.93,0,0,1-1,5.13c-.3,1.57-.3,3.28-1,4.7-.44,1-1.78,1.49-2.31,2.3-.22.38.38,1.27,0,1.42-1,.37-2.9-.3-4.17,0a3.83,3.83,0,0,0-1.86,1.41c-.44.53-.37,1.57-1,1.87s-1.86-.15-2.83,0a18.58,18.58,0,0,0-3.27,1c-.82.3-1.71,1.27-2.31,1-1.42-.74-2.46-2.83-3.72-4.17-.6-.67-1.12-1.64-1.87-1.86a9,9,0,0,0-3.72,0c-1.86.3-3.87,1.42-5.58,1.42-.6,0-1-1.57-1.42-1.42s-.67,2.23-1.41,2.31c-1.72.22-4-1.79-6-1.42l-5.14,1v5.59c0,2.08-1.27,4-1.86,6A39.48,39.48,0,0,0,113,50c-.22,1.19.3,2.68,0,3.72-.15.45-1.49.6-1.41,1s1.41.82,1.86,1.41a1.92,1.92,0,0,1,.44,1.42,20,20,0,0,1-1,5.14A12.07,12.07,0,0,1,111,66c-1,1.34-2.08,3.06-3.27,3.73-.52.29-1.27-.6-1.86-1a22.69,22.69,0,0,1-2.31-1.42c-.37-.22-.52-.89-1-1a2.85,2.85,0,0,0-1.86.45,5.58,5.58,0,0,0-1.86,2.83c-.38,1.42,0,3.13,0,4.69,0,2,.07,4,0,6-.08,1.12.59,2.91-.45,3.28L97,84.06l-.44,4.69L94.2,103.2l-2.83,11.61-3.21,12.88L84,145l-4.91,15.12L72.9,179.67,65,197.84l-7.14,14.45L48.1,227.63l-8.19,11.69-11,13-8.12,8.34Z"/></g><polygon class="cls-4" points="148.62 276.72 152.22 277.01 155.21 278.21 159.09 280.85 163.93 283.89 164.87 285.73 163.76 288.08 162.04 291.53 161.48 294.66 158.66 296.72 156.52 296.62 152.28 304.81 149.66 309.18 148.17 309.63 147.1 308.5 147.1 305.73 149.07 301.34 149.68 298.95 148.77 292.22 146.73 283.87 146.58 278.45 148.62 276.72"/><polygon class="cls-4" points="162.36 206.97 164.13 208.36 166.99 207.55 170.15 207.66 171.56 209.62 171.56 212.68 171.03 216.75 170.54 221.1 170.03 225.64 167.46 232.93 166.99 235.86 168.87 241.54 169.31 243.6 167.31 258.28 166.05 265.46 164.21 268.05 163.25 268.05 162 264.21 161.04 259.7 159.76 259.32 158.72 260.58 156.36 264.79 154.19 265.41 152.03 264.37 150.69 261.35 150.55 255.4 149.39 240.89 152.02 227.06 159.41 211.71 161.58 207.55 162.36 206.97"/><polygon class="cls-4" points="165.75 62.78 171.29 59.52 173.87 58.69 175.09 60.53 176.52 67.91 176.41 72.81 175.44 75.64 175.21 78.3 173.14 81.48 171.27 83.09 169.49 83.09 168.4 81.89 168.46 78.99 166.87 76.72 165.44 74.39 164.79 71.4 162.59 70.12 161.82 68.39 162.76 65.23 165.75 62.78"/><path id="path1118" class="cls-3" d="M152.83,265a3.31,3.31,0,0,0,2.77.31c2.64-1,2.48-6.56,5.18-5.79,1.5.43.79,13.36,4.77,7a9.93,9.93,0,0,0,1.12-3.84q1.2-8.23,2.42-16.46a10.93,10.93,0,0,0,.12-3.56,21.6,21.6,0,0,0-1.7-4.08c-2.21-5.28,1-7.06,2.19-11.3,1-4.23.66-8.47,1.84-12.88.51-1.92.62-4.11-.49-5.75-1.52-2.25-2.94-.94-4.75-1.06-.5,0-1,.88-1.6.95-1.06.12-1.28-1.83-2.63-1.16a3.24,3.24,0,0,0-1.27,1.57L154.28,222a39.52,39.52,0,0,0-2.56,5.95,38.29,38.29,0,0,0-1.12,5.64c-.25,1.69-.51,3.38-.66,5.08-.21,2.27-.25,4.55-.28,6.83a62,62,0,0,0,.82,9c.32,2.56-.42,6.8.88,9A3.93,3.93,0,0,0,152.83,265Z"/><path class="cls-3" d="M164.69,286.59c-.51,1.31-2,2.47-2.46,3.9a27.34,27.34,0,0,0-.35,3.15,4.25,4.25,0,0,1-5.36,3c-1.21,3-5.75,13.35-7.76,13-2.47-.42-2.07-4.38-1.34-5.86A20.64,20.64,0,0,0,149.2,300a11.25,11.25,0,0,0,.06-3.84c-.56-5.56-2.53-9.87-2.95-15.39a4.52,4.52,0,0,1,.27-2.34c1.55-3.18,7.75-1.34,9.57.48s8,3.93,8.65,6.23A2.25,2.25,0,0,1,164.69,286.59Z"/><path class="cls-5" d="M170.54,65.73c1.05.27.18,3.18.53,5.83.85,6.31-.94,4.57-1.91-.61C168.68,68.41,170.54,65.73,170.54,65.73Z"/><path class="cls-6" d="M171.16,62.49c.47-.12,1.09-.34,1.36,0a7.46,7.46,0,0,1,1,3,15.1,15.1,0,0,1,.2,2.35,29.23,29.23,0,0,1,0,3.5,17.39,17.39,0,0,1-.47,1.82,11.36,11.36,0,0,1-.19,2.09,7.88,7.88,0,0,1-1.76,3.67,1,1,0,0,1-1.72,0c-.37-.51-.12-1.58-.36-2.49a6.23,6.23,0,0,0-.64-1.51,11.59,11.59,0,0,1-1.09-1.66c-.33-.81-.16-1.87-.52-2.6s-1.18-.76-1.38-1.34a3.84,3.84,0,0,1,.32-2,2.5,2.5,0,0,1,.56-1.17A9.73,9.73,0,0,1,168,64.79,15.58,15.58,0,0,1,171.16,62.49Z"/><path id="path1116" class="cls-3" d="M168.59,82.57c-.52-.67.22-2.24,0-3.28a4.49,4.49,0,0,0-1-1.86c-.52-.67-1.49-1.12-1.86-1.86-.6-1.27-.23-3-1-4.17-.52-.9-2.38-1-2.83-1.86s.15-2.24.45-3.28a3.45,3.45,0,0,1,1-1.86,15.88,15.88,0,0,1,2.83-1.86,61.41,61.41,0,0,1,5.59-3.28c.74-.3,1.86-.89,2.31-.45,1,1,1.41,3.06,1.86,4.69a21.35,21.35,0,0,1,.45,3.73,37.12,37.12,0,0,1,0,5.58c-.08,1-.75,1.86-1,2.83s.07,2.31-.45,3.28a12,12,0,0,1-3.72,4.17A2.72,2.72,0,0,1,168.59,82.57Z"/><path id="path1118-2" data-name="path1118" class="cls-3" d="M152.83,265a3.31,3.31,0,0,0,2.77.31c2.64-1,2.48-6.56,5.18-5.79,1.5.43.79,13.36,4.77,7a9.93,9.93,0,0,0,1.12-3.84q1.2-8.23,2.42-16.46a10.93,10.93,0,0,0,.12-3.56c-.28-1.45-1.31-2.66-1.7-4.08-1.47-5.31,1-7.06,2.19-11.3,1-4.23.66-8.47,1.84-12.88.51-1.92.62-4.11-.49-5.75-1.52-2.25-2.94-.94-4.75-1.06-.5,0-1,.88-1.6.95-1.06.12-1.28-1.83-2.63-1.16a3.24,3.24,0,0,0-1.27,1.57L154.28,222a39.52,39.52,0,0,0-2.56,5.95,38.29,38.29,0,0,0-1.12,5.64c-.25,1.69-.51,3.38-.66,5.08-.21,2.27-.25,4.55-.28,6.83a62,62,0,0,0,.82,9c.32,2.56-.42,6.8.88,9A3.93,3.93,0,0,0,152.83,265Z"/><path class="cls-6" d="M153.81,230.36c-.26.95-.61,1.88-.82,2.85s-.3,1.77-.41,2.67-.19,1.59-.26,2.4c-.15,1.86-.18,3.73-.21,5.61a54.35,54.35,0,0,0,.63,7.42c.24,2.1-.32,5.59.67,7.38a3.25,3.25,0,0,0,1.13,1.17,2.35,2.35,0,0,0,2,.28l.16-.06c2-.85,2-4.63,4.08-4.74,1.57-.09,2.37,8.33,4.41,4a9.07,9.07,0,0,0,.61-3c.34-3.61.54-7.5,1-10.86.08-.56.16-1.13.22-1.69a11.41,11.41,0,0,0,.09-1.65,4,4,0,0,0-.16-1c-.31-1.06-1.14-2-1.45-3-1.29-4.26.56-6,1.46-9.35,0-.2.1-.4.14-.61.71-3.35.87-6.41,1.74-9.91.4-1.58.89-3.38,0-4.73-1.16-1.85-2.25-.77-3.63-.86-.39,0-.78.71-1.23.77-.81.1-1-1.5-2-.95a2.32,2.32,0,0,0-.87,1.07l-.4.82c-1.29,2.72-2.69,5.44-4.09,8.16a34.24,34.24,0,0,0-1.86,4C154.37,227.83,154.14,229.11,153.81,230.36Z"/><path id="path1118-3" data-name="path1118" class="cls-5" d="M156.25,254.76a1.48,1.48,0,0,0,1.47.2c1.41-.64,1.64-3.36,3.1-3.75,1.65-.45,3.78,3.23,4.05,1,.31-2.58-.28-7,0-9.57a8,8,0,0,0,.07-2.29c-.15-.94-1.11-1.78-1.41-2.66-1.18-3.4.19-5.13.83-7.86s1.19-4.84,1.82-7.69c.27-1.23,1.16-2.64.57-3.7-.81-1.45-1.57-.61-2.53-.68-.27,0-.54.56-.86.61-.56.08-.68-1.18-1.4-.75a2.1,2.1,0,0,0-.67,1c-1.16,2.82-3.14,5.63-4.3,8.45a28.07,28.07,0,0,0-1.36,3.83,29.23,29.23,0,0,0-.6,3.63c-.14,1.09-.27,2.18-.35,3.28-.11,1.46-.13,2.93-.15,4.4a48.9,48.9,0,0,0,.43,5.81c.18,1.65-.22,4.39.47,5.79A2.35,2.35,0,0,0,156.25,254.76Z"/><path id="path1118-4" data-name="path1118" class="cls-5" d="M157,250.52c.19.24.43.34.67.19.68-.43.93-2.45,1.63-2.7s3.33,2.45,3.58.81c.28-1.92-.29-4.46,0-6.38a22.26,22.26,0,0,0,.1-2.58c0-.7-1.35-1.14-1.44-1.81-.36-2.59.41-4.24.85-6.26s.55-3.22,1-5.33a6.41,6.41,0,0,0,.09-2.78c-.14-.52-1.72-.38-1.74-.46a11.36,11.36,0,0,0-1.64,3l-1.21,3.64a29,29,0,0,0-.84,2.82c-.2.87-.34,1.79-.47,2.7s-.25,1.62-.35,2.44c-.13,1.08-.22,2.18-.31,3.28-.12,1.48-.1,2.9-.12,4.37a25.56,25.56,0,0,0-.1,4.34A1.77,1.77,0,0,0,157,250.52Z"/><path class="cls-7" d="M158.44,239.15s-.37,6-.49,7.58,1.82-1.52,2.48-.28c1.3,2.47,1.25-2.13,1-4.3-.14-1.25-1.38-2-1.38-2.91s.26-7.06-.3-7C159,232.41,158.44,239.15,158.44,239.15Z"/><path class="cls-8" d="M149.66,279.47c1.88-.64,4.12,3.35,6.9,4s5.06.26,3.92,3.42-1.15,6.19-2.44,6.29-2.32-1-3.48,1.45a34.28,34.28,0,0,0-2,5.49c-.13.45-2,7-3.17,6.23-1.48-1,1.84-6.09,1.94-8.23.18-4.12-2.34-12.34-2.19-16.46C149.16,281.1,149.12,279.65,149.66,279.47Z"/><path class="cls-5" d="M153.15,284.37a1.15,1.15,0,0,0-1.89,1c0,.31.08.66.14,1.06.45,2.9-.39,3.87,1.1,4s3,1.55,3.56.26,3.6-4.07,2.05-4.65-3.36-.45-4.39-1.23C153.54,284.69,153.34,284.54,153.15,284.37Z"/></g><g id="ממח_א_111" data-name="ממח&quot;א 111"><path class="cls-1" d="M10,160.36A10.65,10.65,0,0,0,20.61,171H67A10.53,10.53,0,0,1,77.5,181.54v2.1a1.1,1.1,0,0,0,1.1,1.1h0a1.09,1.09,0,0,0,1.09-1.1V160.36a10.62,10.62,0,0,0-10.62-10.62H20.61A10.65,10.65,0,0,0,10,160.36Z"/><path class="cls-2" d="M22.43,159.82H20.58v-5.28l-1.66.45v-1.45l3.34-1.17h.17Z"/><path class="cls-2" d="M28.53,159.82H26.68v-5.28L25,155v-1.45l3.34-1.17h.17Z"/><path class="cls-2" d="M34.64,159.82H32.79v-5.28l-1.67.45v-1.45l3.35-1.17h.17Z"/><path class="cls-2" d="M43.65,159.82l-4.2-6.19h2.16l4.2,6.19Zm-3.94,0v-1.95a3,3,0,0,1,.34-1.54,2,2,0,0,1,1.11-.81l.66,1a.69.69,0,0,0-.24.52v2.82Zm6.18-6.19-2,4-1.25-1.54,1.08-2.45Z"/><path class="cls-2" d="M46.82,153.67A1.92,1.92,0,0,1,47,153a3.24,3.24,0,0,1,.36-.69,3.07,3.07,0,0,1,.46-.53l.81.43a5.53,5.53,0,0,0-.29.64,2.29,2.29,0,0,0-.14.88v.87H46.82Zm1.86,0a2.13,2.13,0,0,1,.14-.72,3.83,3.83,0,0,1,.37-.69,2.7,2.7,0,0,1,.46-.53l.8.43a5.53,5.53,0,0,0-.29.64,2.5,2.5,0,0,0-.14.88v.87H48.68Z"/><path class="cls-2" d="M51.65,159.82v-6.19h2.87a2.56,2.56,0,0,1,1.84.59A2.26,2.26,0,0,1,57,156v3.86H55.07v-4a.8.8,0,0,0-.14-.5.51.51,0,0,0-.4-.17h-.94v4.7Z"/><path class="cls-2" d="M58.39,159.82l.36-3.26a3.5,3.5,0,0,1,.19-.79,2.1,2.1,0,0,1,.34-.6s0,0,0,0l0,0v0a3.13,3.13,0,0,0-.44.11,2.08,2.08,0,0,0-.39.14l-.4-1.39a5.73,5.73,0,0,1,.9-.26,8.35,8.35,0,0,1,1-.18,9.51,9.51,0,0,1,1.05-.06,3.1,3.1,0,0,1,2.26.75,3,3,0,0,1,.78,2.2v3.42H61.35v-1.49h.85v-2.2a1.57,1.57,0,0,0-.18-.81.59.59,0,0,0-.52-.3.66.66,0,0,0-.61.32,2.13,2.13,0,0,0-.25.95l-.33,3.53Z"/><path class="cls-2" d="M65.53,159.82l.36-3.26a3,3,0,0,1,.19-.79,2.1,2.1,0,0,1,.34-.6s0,0,0,0l0,0v0l-.44.11a2.8,2.8,0,0,0-.39.14l-.4-1.39a6.43,6.43,0,0,1,.9-.26,8.85,8.85,0,0,1,1-.18,9.51,9.51,0,0,1,1-.06,3.11,3.11,0,0,1,2.26.75,3,3,0,0,1,.78,2.2v3.42H68.49v-1.49h.85v-2.2a1.47,1.47,0,0,0-.19-.81.57.57,0,0,0-.52-.3.64.64,0,0,0-.6.32,2.26,2.26,0,0,0-.26.95l-.32,3.53Z"/><path class="cls-2" d="M57.27,168.05v-2.46a1.24,1.24,0,0,0-.28-.91,1.21,1.21,0,0,0-.89-.27H54.76v-.35h1.35a1.62,1.62,0,0,1,1.18.38,1.52,1.52,0,0,1,.39,1.15v2.46Zm-2.5,0v-1.36a2,2,0,0,1,0-.49,1.69,1.69,0,0,1,.1-.34h.35a3.09,3.09,0,0,0-.07.35c0,.13,0,.29,0,.48v1.36Z"/><path class="cls-2" d="M59.23,166.26v-1.85h-.78v-.35h1.2v2.2Z"/><path class="cls-2" d="M62.62,168.05v-2.86a.77.77,0,0,0-.21-.57.76.76,0,0,0-.56-.21H60.43v-.35h1.41a1.24,1.24,0,0,1,.88.31,1.17,1.17,0,0,1,.32.86v2.82Z"/><path class="cls-2" d="M65.52,168.05v-.35a1.3,1.3,0,0,0,.87-.32,1.08,1.08,0,0,0,.33-.82v-2.15H64.2v-.35h2.94v2.49a1.52,1.52,0,0,1-.2.79,1.32,1.32,0,0,1-.56.51A2.06,2.06,0,0,1,65.52,168.05Zm-1.23,1.42v-3a2.13,2.13,0,0,1,0-.49,3.37,3.37,0,0,1,.1-.34h.36a1.9,1.9,0,0,0-.08.36c0,.12,0,.28,0,.47v3Z"/><path class="cls-2" d="M70.82,168.05v-2.46a1.29,1.29,0,0,0-.27-.91,1.26,1.26,0,0,0-.9-.27H68.31v-.35h1.35a1.67,1.67,0,0,1,1.19.38,1.56,1.56,0,0,1,.39,1.15v2.46Zm-2.49,0v-1.36a2.13,2.13,0,0,1,0-.49,1.69,1.69,0,0,1,.1-.34h.35a3.09,3.09,0,0,0-.07.35c0,.13,0,.29,0,.48v1.36Z"/></g><g id="בח_א_30" data-name="בח&quot;א 30"><path class="cls-1" d="M4.19,198a10.64,10.64,0,0,0,10.63,10.65H48.93a10.52,10.52,0,0,1,10.53,10.53v2.1a1.1,1.1,0,0,0,1.1,1.1h0a1.09,1.09,0,0,0,1.09-1.1V198A10.61,10.61,0,0,0,51,187.34H14.82A10.65,10.65,0,0,0,4.19,198Z"/><path class="cls-2" d="M16.64,193.38h1.17a3.94,3.94,0,0,1,1,.12,2.44,2.44,0,0,1,.8.36,1.76,1.76,0,0,1,.51.61,1.87,1.87,0,0,1,.18.85,1.9,1.9,0,0,1-.37,1.19,2.44,2.44,0,0,1-1,.76,3.86,3.86,0,0,1-2.39.13,2.63,2.63,0,0,1-.85-.39,1.85,1.85,0,0,1-.62-.68,2,2,0,0,1-.24-1h1.85a.6.6,0,0,0,.12.36.89.89,0,0,0,.32.25.87.87,0,0,0,.42.1,1,1,0,0,0,.69-.23.75.75,0,0,0,.24-.54,1.09,1.09,0,0,0-.12-.55.61.61,0,0,0-.33-.3,1.35,1.35,0,0,0-.52-.09h-.86Zm.86-.48a1,1,0,0,0,.48-.1.61.61,0,0,0,.28-.29,1.08,1.08,0,0,0,.09-.46.81.81,0,0,0-.08-.34.68.68,0,0,0-.27-.26.88.88,0,0,0-.45-.1,1.13,1.13,0,0,0-.36.06.71.71,0,0,0-.29.18.39.39,0,0,0-.11.29H14.94a1.68,1.68,0,0,1,.36-1.09,2.28,2.28,0,0,1,.94-.69,3.2,3.2,0,0,1,1.25-.24,3.82,3.82,0,0,1,1.41.24,2.22,2.22,0,0,1,1,.72A2,2,0,0,1,20.2,192a1.56,1.56,0,0,1-.18.74,1.69,1.69,0,0,1-.51.59,2.29,2.29,0,0,1-.76.4,3.14,3.14,0,0,1-.94.14H16.64v-1Z"/><path class="cls-2" d="M26.4,194.4a4.07,4.07,0,0,1-.34,1.75,2.31,2.31,0,0,1-.93,1,2.71,2.71,0,0,1-1.35.34,2.75,2.75,0,0,1-1.37-.34,2.39,2.39,0,0,1-.94-1,4.08,4.08,0,0,1-.33-1.75V193a4,4,0,0,1,.33-1.75,2.26,2.26,0,0,1,.93-1,2.64,2.64,0,0,1,1.36-.34,2.68,2.68,0,0,1,1.37.34,2.37,2.37,0,0,1,.93,1A4,4,0,0,1,26.4,193Zm-1.85-1.64a2.67,2.67,0,0,0-.1-.84.79.79,0,0,0-.27-.44.72.72,0,0,0-.42-.12.71.71,0,0,0-.41.12.79.79,0,0,0-.27.44,2.67,2.67,0,0,0-.1.84v1.87a2.81,2.81,0,0,0,.1.86.76.76,0,0,0,.27.43.75.75,0,0,0,.43.12.68.68,0,0,0,.4-.12.76.76,0,0,0,.27-.43,2.81,2.81,0,0,0,.1-.86Z"/><path class="cls-2" d="M34.09,197.42l-4.21-6.19H32l4.2,6.19Zm-3.94,0v-1.95a3,3,0,0,1,.33-1.54,2,2,0,0,1,1.11-.81l.67,1a.69.69,0,0,0-.24.52v2.82Zm6.18-6.19-2,4-1.25-1.54,1.07-2.46Z"/><path class="cls-2" d="M37.25,191.27a2.13,2.13,0,0,1,.14-.72,3.44,3.44,0,0,1,.37-.68,2.51,2.51,0,0,1,.46-.54l.8.43a5.53,5.53,0,0,0-.29.64,2.5,2.5,0,0,0-.14.88v.87H37.25Zm1.87,0a1.92,1.92,0,0,1,.14-.72,3,3,0,0,1,.36-.68,2.82,2.82,0,0,1,.46-.54l.81.43a4.24,4.24,0,0,0-.29.64,2.29,2.29,0,0,0-.14.88v.87H39.12Z"/><path class="cls-2" d="M42.08,197.42v-6.19H45a2.62,2.62,0,0,1,1.84.59,2.33,2.33,0,0,1,.64,1.74v3.86H45.51v-4a.72.72,0,0,0-.15-.49.47.47,0,0,0-.39-.18H44v4.7Z"/><path class="cls-2" d="M48.32,197.42v-1.5h2.8l1.94,0,.7.11v1.44Zm2.8-.45v-3.6a.59.59,0,0,0-.19-.48.77.77,0,0,0-.53-.17H48.65v-1.49h1.9a2.71,2.71,0,0,1,1.84.59,2.12,2.12,0,0,1,.67,1.65V197Z"/><path class="cls-2" d="M31.91,205.65v-4H35v4Zm.41-.35h2.25V202H32.32Z"/><path class="cls-2" d="M36.59,203.86V202h-.78v-.34H37v2.19Z"/><path class="cls-2" d="M38.23,205.65v-4h1.38a1.62,1.62,0,0,1,1.18.37,1.55,1.55,0,0,1,.39,1.16v2.45h-.42v-2.46a1.29,1.29,0,0,0-.26-.9,1.18,1.18,0,0,0-.88-.28h-1v3.64Z"/><path class="cls-2" d="M42.34,205.65l.33-2.68a1.62,1.62,0,0,1,.17-.54,1.07,1.07,0,0,1,.32-.37l.05,0,0,0h0c-.11,0-.25,0-.4.08l-.51.15-.1-.33a4.14,4.14,0,0,1,.56-.15c.2-.05.4-.08.6-.11s.39,0,.56,0a1.58,1.58,0,0,1,1.16.41,1.71,1.71,0,0,1,.4,1.21v2.43H43.92v-.35H45.1v-2.12a1.31,1.31,0,0,0-.29-.91A1,1,0,0,0,44,202a.82.82,0,0,0-.61.26,1.25,1.25,0,0,0-.31.71l-.33,2.71Z"/><path class="cls-2" d="M46.38,202v-1.6h.41v1.26h2.32V202Zm2.91-.09-1.54,3.73H47.3l1.66-4h.33Z"/><path class="cls-2" d="M51.46,205.71a3.09,3.09,0,0,1-.58-.06,5.06,5.06,0,0,1-.62-.15l.08-.32a4.62,4.62,0,0,0,.6.13,3.28,3.28,0,0,0,.52,0,1.28,1.28,0,0,0,.92-.31,1.08,1.08,0,0,0,.34-.86V202h-1.8a1.88,1.88,0,0,0-.22.53,2.5,2.5,0,0,0-.09.66v.35a.77.77,0,0,0,.27.07,2.63,2.63,0,0,0,.44,0V204a3.18,3.18,0,0,1-.47,0,1.59,1.59,0,0,1-.34-.06,2.58,2.58,0,0,1-.31-.13v-.53a2.72,2.72,0,0,1,.09-.69,1.88,1.88,0,0,1,.26-.57H50.1v-.34h3v2.41a1.76,1.76,0,0,1-.21.9,1.4,1.4,0,0,1-.58.55A2,2,0,0,1,51.46,205.71Z"/></g><g id="בח_א_8" data-name="בח&quot;א 8"><path class="cls-1" d="M140.58,179.46A10.65,10.65,0,0,1,130,190.11H98.45a10.53,10.53,0,0,0-10.54,10.53v2.1a1.09,1.09,0,0,1-1.09,1.1h0a1.1,1.1,0,0,1-1.1-1.1V179.46a10.62,10.62,0,0,1,10.63-10.62H130a10.65,10.65,0,0,1,10.63,10.62Z"/><path class="cls-2" d="M102.08,176.85a1.95,1.95,0,0,1-1.26,1.93,3.57,3.57,0,0,1-1.35.25,3.61,3.61,0,0,1-1.35-.25,2.12,2.12,0,0,1-.94-.72,2,2,0,0,1-.34-1.21,1.87,1.87,0,0,1,.34-1.13,2.31,2.31,0,0,1,.95-.72,3.5,3.5,0,0,1,1.33-.24,3.61,3.61,0,0,1,1.35.24,2.25,2.25,0,0,1,.93.72A1.87,1.87,0,0,1,102.08,176.85Zm-.15-3.37a1.69,1.69,0,0,1-.31,1,2,2,0,0,1-.87.69,3.18,3.18,0,0,1-1.28.24,3.21,3.21,0,0,1-1.28-.24,2,2,0,0,1-.88-.69,1.7,1.7,0,0,1-.32-1,2.06,2.06,0,0,1,.32-1.17,2,2,0,0,1,.87-.71,3.53,3.53,0,0,1,2.56,0,1.87,1.87,0,0,1,.87.71A2.06,2.06,0,0,1,101.93,173.48Zm-1.7,3.21a1,1,0,0,0-.09-.46.73.73,0,0,0-.27-.28.88.88,0,0,0-.41-.09.84.84,0,0,0-.4.09.61.61,0,0,0-.27.28.92.92,0,0,0-.1.46.88.88,0,0,0,.1.45.66.66,0,0,0,.27.3.8.8,0,0,0,.41.1.72.72,0,0,0,.4-.1.66.66,0,0,0,.27-.3A1,1,0,0,0,100.23,176.69Zm-.14-3.1a1.15,1.15,0,0,0-.07-.4.58.58,0,0,0-.21-.25.63.63,0,0,0-.35-.09.65.65,0,0,0-.35.09.5.5,0,0,0-.2.25,1.15,1.15,0,0,0-.07.4,1.19,1.19,0,0,0,.07.4.54.54,0,0,0,.21.28.56.56,0,0,0,.35.1.54.54,0,0,0,.35-.1.58.58,0,0,0,.2-.28A1,1,0,0,0,100.09,173.59Z"/><path class="cls-2" d="M109.78,178.92l-4.2-6.19h2.16l4.2,6.19Zm-3.93,0V177a3,3,0,0,1,.33-1.54,2,2,0,0,1,1.11-.81l.67,1a.69.69,0,0,0-.24.52v2.82Zm6.17-6.19-2,4-1.25-1.54,1.07-2.46Z"/><path class="cls-2" d="M113,172.77a2.13,2.13,0,0,1,.14-.72,3,3,0,0,1,.36-.68,2.85,2.85,0,0,1,.47-.54l.8.43a5.53,5.53,0,0,0-.29.64,2.5,2.5,0,0,0-.14.88v.87H113Zm1.86,0a2.13,2.13,0,0,1,.14-.72,3.44,3.44,0,0,1,.37-.68,2.82,2.82,0,0,1,.46-.54l.8.43a5.53,5.53,0,0,0-.29.64,2.5,2.5,0,0,0-.14.88v.87h-1.34Z"/><path class="cls-2" d="M117.78,178.92v-6.19h2.87a2.65,2.65,0,0,1,1.85.59,2.29,2.29,0,0,1,.63,1.74v3.86H121.2v-4a.77.77,0,0,0-.14-.49.49.49,0,0,0-.4-.18h-.94v4.7Z"/><path class="cls-2" d="M124,178.92v-1.5h2.8l1.94,0,.71.11v1.44Zm2.8-.45v-3.6a.62.62,0,0,0-.18-.48.77.77,0,0,0-.53-.17h-1.75v-1.49h1.9a2.68,2.68,0,0,1,1.83.59,2.09,2.09,0,0,1,.67,1.65v3.5Z"/><path class="cls-2" d="M115,183.17v5.4h-.41v-5.06H113a1.65,1.65,0,0,0-.16.35,3.23,3.23,0,0,0-.11.47,3.73,3.73,0,0,0,0,.46v.43a.77.77,0,0,0,.27.07,2.63,2.63,0,0,0,.44,0v.37a3.18,3.18,0,0,1-.47,0,1.59,1.59,0,0,1-.34-.06,2.58,2.58,0,0,1-.31-.13v-.6a2.77,2.77,0,0,1,0-.49,2.34,2.34,0,0,1,.13-.49,1.49,1.49,0,0,1,.18-.38h-.45v-.34Z"/><path class="cls-2" d="M116.51,187.15v-3.64H116v-.34h.93v4Z"/><path class="cls-2" d="M118.35,187.22l-.31,0-.28,0,0-.33a2.35,2.35,0,0,0,.5,0,.58.58,0,0,0,.45-.17.83.83,0,0,0,.15-.54v-2.64H118v-.34h1.29v3a1.1,1.1,0,0,1-.24.78A1,1,0,0,1,118.35,187.22Z"/><path class="cls-2" d="M122,183.51v-1.6h.42v1.26h2.32v.34Zm2.92-.09-1.54,3.73h-.45l1.66-4h.33Z"/><path class="cls-2" d="M127.33,183.17a1.64,1.64,0,0,1,1.18.37,1.59,1.59,0,0,1,.38,1.16v2.45h-.41v-2.46a1.24,1.24,0,0,0-.27-.9,1.16,1.16,0,0,0-.88-.28h-.59a1.56,1.56,0,0,0-.22.5,2.54,2.54,0,0,0-.09.68v1.45a1.14,1.14,0,0,1-.23.77.87.87,0,0,1-.69.26h-.16l-.17,0v-.34h.24a.58.58,0,0,0,.47-.17.84.84,0,0,0,.13-.53v-1.41a2.24,2.24,0,0,1,.1-.68,1.33,1.33,0,0,1,.25-.52h-.81v-.34Z"/></g><g id="כנף_4" data-name="כנף 4"><path class="cls-1" d="M95.58,235.13A10.64,10.64,0,0,1,85,245.77H61.44A10.54,10.54,0,0,0,50.91,256.3v2.1a1.1,1.1,0,0,1-1.1,1.1h0a1.09,1.09,0,0,1-1.09-1.1V235.13A10.62,10.62,0,0,1,59.34,224.5H85a10.65,10.65,0,0,1,10.62,10.63Z"/><path class="cls-2" d="M63.13,233.05H57.75l-.11-1.19,3-4.73H62l-1.55,2.66-1.1,1.78h3.74Zm-.71,1.53H60.58v-7.45h1.84Z"/><path class="cls-2" d="M72,228.39v8.32H70.13v-6.83H69c0,.13-.06.26-.08.38s0,.24,0,.35,0,.23,0,.34v.42a.85.85,0,0,0,.23,0h.18v1.22a3.35,3.35,0,0,1-.79.09,3.6,3.6,0,0,1-.82-.12,2.41,2.41,0,0,1-.67-.28v-.69c0-.22,0-.43,0-.65a5.31,5.31,0,0,1,.12-.6,2.09,2.09,0,0,1,.19-.49h-.59v-1.49Z"/><path class="cls-2" d="M74.41,234.69a5.66,5.66,0,0,1-.6,0l-.67-.12v-1.45a6.27,6.27,0,0,0,.74,0,.61.61,0,0,0,.47-.17.8.8,0,0,0,.15-.53v-2.55h-1v-1.49h3v4.2a2.14,2.14,0,0,1-.54,1.54A2,2,0,0,1,74.41,234.69Z"/><path class="cls-2" d="M79.35,234.69a6.85,6.85,0,0,1-.88-.06c-.3,0-.62-.1-1-.16l.29-1.41a6.62,6.62,0,0,0,1.25.15,1.46,1.46,0,0,0,1-.29,1.14,1.14,0,0,0,.3-.86v-2.18H77.77v-1.49h4.55v3.35a3.39,3.39,0,0,1-.37,1.71,2.25,2.25,0,0,1-1,.94A4.09,4.09,0,0,1,79.35,234.69Z"/><path class="cls-2" d="M72.27,242.81V240a.77.77,0,0,0-.21-.57.73.73,0,0,0-.56-.22H70.08v-.34h1.41a1.2,1.2,0,0,1,.88.31,1.14,1.14,0,0,1,.32.86v2.81Z"/><path class="cls-2" d="M74.12,242.81v-3.64H73.6v-.34h.94v4Z"/><path class="cls-2" d="M75.62,242.81v-.35h2.31l-2.5-3.63h.47l1.29,1.89,1.28,1.85v.24Zm1.63-1.74-.26-.34,1.12-1.9h.47Z"/><path class="cls-2" d="M79.48,242.81v-4h1.37a1.61,1.61,0,0,1,1.18.37,1.55,1.55,0,0,1,.39,1.16v2.45H82v-2.46a1.24,1.24,0,0,0-.27-.9,1.16,1.16,0,0,0-.88-.28h-1v3.64Z"/></g><g id="בח_א_28" data-name="בח&quot;א 28"><path class="cls-1" d="M158.06,286.64a10.65,10.65,0,0,1-10.63,10.64H113.06a10.54,10.54,0,0,0-10.54,10.53v2.1a1.09,1.09,0,0,1-1.09,1.1h0a1.1,1.1,0,0,1-1.1-1.1V286.64A10.62,10.62,0,0,1,111,276h36.47a10.67,10.67,0,0,1,10.63,10.63Z"/><path class="cls-2" d="M113.14,286.09h-5.26v-1.24l2.39-2.48a4.48,4.48,0,0,0,.49-.6,1.87,1.87,0,0,0,.27-.49,1,1,0,0,0,.09-.38,1,1,0,0,0-.19-.67.71.71,0,0,0-.55-.21.63.63,0,0,0-.42.14.9.9,0,0,0-.28.38,1.38,1.38,0,0,0-.1.55h-1.85a2.49,2.49,0,0,1,.34-1.29,2.55,2.55,0,0,1,1-.92,2.78,2.78,0,0,1,1.41-.35,2.73,2.73,0,0,1,1.9.58,2,2,0,0,1,.64,1.62,2.39,2.39,0,0,1-.21,1,4.57,4.57,0,0,1-.62,1c-.27.32-.6.68-1,1.06l-.85.86h2.83Z"/><path class="cls-2" d="M119.22,284A1.95,1.95,0,0,1,118,286a3.35,3.35,0,0,1-1.35.25,3.42,3.42,0,0,1-1.35-.25,2.12,2.12,0,0,1-.94-.72A2,2,0,0,1,114,284a1.9,1.9,0,0,1,.34-1.14,2.21,2.21,0,0,1,1-.71,3.32,3.32,0,0,1,1.33-.25,3.42,3.42,0,0,1,1.35.25,2.15,2.15,0,0,1,.93.71A1.9,1.9,0,0,1,119.22,284Zm-.15-3.38a1.74,1.74,0,0,1-.31,1,2.06,2.06,0,0,1-.87.68,3.18,3.18,0,0,1-1.28.24,3.25,3.25,0,0,1-1.28-.24,2.09,2.09,0,0,1-.88-.68,1.75,1.75,0,0,1-.32-1,2.09,2.09,0,0,1,.32-1.17,2,2,0,0,1,.87-.71,3.56,3.56,0,0,1,2.57,0,2,2,0,0,1,.87.71A2.08,2.08,0,0,1,119.07,280.65Zm-1.7,3.21a1,1,0,0,0-.09-.46.81.81,0,0,0-.27-.28.86.86,0,0,0-.41-.09.84.84,0,0,0-.4.09.66.66,0,0,0-.27.28.92.92,0,0,0-.1.46.88.88,0,0,0,.1.45.66.66,0,0,0,.27.3.8.8,0,0,0,.41.1.78.78,0,0,0,.41-.1.7.7,0,0,0,.26-.3A1,1,0,0,0,117.37,283.86Zm-.14-3.1a1.15,1.15,0,0,0-.07-.4.58.58,0,0,0-.21-.25.63.63,0,0,0-.35-.09.65.65,0,0,0-.35.09.5.5,0,0,0-.2.25,1.15,1.15,0,0,0-.07.4,1.3,1.3,0,0,0,.07.41.51.51,0,0,0,.21.27.56.56,0,0,0,.35.1.54.54,0,0,0,.35-.1.55.55,0,0,0,.2-.27A1.07,1.07,0,0,0,117.23,280.76Z"/><path class="cls-2" d="M126.93,286.09l-4.21-6.19h2.16l4.2,6.19Zm-3.94,0v-1.95a3,3,0,0,1,.33-1.54,2,2,0,0,1,1.11-.81l.67,1a.7.7,0,0,0-.24.52v2.82Zm6.17-6.19-2,4-1.25-1.54L127,279.9Z"/><path class="cls-2" d="M130.09,279.94a2,2,0,0,1,.14-.71,3.22,3.22,0,0,1,.36-.69,2.85,2.85,0,0,1,.47-.54l.8.44a4.85,4.85,0,0,0-.29.64,2.44,2.44,0,0,0-.14.87v.88h-1.34Zm1.86,0a2,2,0,0,1,.14-.71,3.26,3.26,0,0,1,.37-.69,2.82,2.82,0,0,1,.46-.54l.81.44a4.82,4.82,0,0,0-.3.64,2.44,2.44,0,0,0-.14.87v.88H132Z"/><path class="cls-2" d="M134.92,286.09V279.9h2.88a2.64,2.64,0,0,1,1.84.59,2.29,2.29,0,0,1,.63,1.74v3.86h-1.93v-4a.72.72,0,0,0-.14-.49.48.48,0,0,0-.39-.18h-1v4.7Z"/><path class="cls-2" d="M141.15,286.09v-1.5H144l1.94,0,.7.12v1.43Zm2.81-.45V282a.64.64,0,0,0-.19-.48.77.77,0,0,0-.53-.17h-1.75V279.9h1.9a2.68,2.68,0,0,1,1.84.6,2.09,2.09,0,0,1,.67,1.64v3.5Z"/><path class="cls-2" d="M130.74,294.32v-4h3.07v4Zm.41-.35h2.25v-3.29h-2.25Z"/><path class="cls-2" d="M135.42,292.53v-1.85h-.78v-.34h1.2v2.19Z"/><path class="cls-2" d="M138.58,294.39a1.58,1.58,0,0,1-.8-.19,1.38,1.38,0,0,1-.53-.54,1.62,1.62,0,0,1-.19-.81v-2.51h.41v2.52a1.2,1.2,0,0,0,.31.86,1.15,1.15,0,0,0,1.59,0,1.23,1.23,0,0,0,.3-.86v-1.44a.92.92,0,0,0-.14-.57.52.52,0,0,0-.44-.19,1,1,0,0,0-.3,0l-.3.11-.08-.29a1.48,1.48,0,0,1,.37-.16,1.32,1.32,0,0,1,.39-.06.84.84,0,0,1,.68.28,1.22,1.22,0,0,1,.24.81v1.46a1.62,1.62,0,0,1-.19.81,1.31,1.31,0,0,1-.53.54A1.54,1.54,0,0,1,138.58,294.39Z"/><path class="cls-2" d="M140.85,294.32V294h2.29l.41,0,.5.05v.32Zm2.29-.09v-2.37a1.24,1.24,0,0,0-.27-.9,1.21,1.21,0,0,0-.9-.28h-.91v-.34H142a1.61,1.61,0,0,1,1.17.37,1.52,1.52,0,0,1,.39,1.15v2.37Z"/><path class="cls-2" d="M145,294.39l-.31,0a1.26,1.26,0,0,1-.28-.05l0-.33a2.35,2.35,0,0,0,.5,0,.55.55,0,0,0,.45-.17.83.83,0,0,0,.15-.54v-2.64h-.88v-.34H146v3a1.06,1.06,0,0,1-.25.78A.94.94,0,0,1,145,294.39Z"/></g><g id="בח_א_6" data-name="בח&quot;א 6"><path class="cls-1" d="M43,283A10.65,10.65,0,0,0,53.6,293.6H79.72a10.53,10.53,0,0,1,10.53,10.53v2.1a1.1,1.1,0,0,0,1.1,1.1h0a1.1,1.1,0,0,0,1.1-1.1V283a10.63,10.63,0,0,0-10.63-10.63H53.6A10.65,10.65,0,0,0,43,283Z"/><path class="cls-2" d="M56.16,274.84v1.51h-.1a3.26,3.26,0,0,0-.9.12,2,2,0,0,0-.73.36,1.72,1.72,0,0,0-.5.65,2.39,2.39,0,0,0-.17.94v1.36a2,2,0,0,0,.1.71.75.75,0,0,0,.29.41.83.83,0,0,0,.49.13.7.7,0,0,0,.44-.14.91.91,0,0,0,.3-.39,1.48,1.48,0,0,0,.11-.57,1.34,1.34,0,0,0-.12-.6.87.87,0,0,0-.79-.5.94.94,0,0,0-.52.14.76.76,0,0,0-.31.33.81.81,0,0,0-.1.39l-.43-.52a1.35,1.35,0,0,1,.11-.56,2.16,2.16,0,0,1,.38-.6,2,2,0,0,1,.63-.47,2,2,0,0,1,.89-.18,1.89,1.89,0,0,1,1.15.34,2.06,2.06,0,0,1,.71.92,3.27,3.27,0,0,1,.25,1.32,2.65,2.65,0,0,1-.34,1.32,2.44,2.44,0,0,1-.94.92,2.68,2.68,0,0,1-1.37.34,3,3,0,0,1-1.1-.2,2.37,2.37,0,0,1-.88-.58,2.69,2.69,0,0,1-.59-.95,3.85,3.85,0,0,1-.21-1.32v-.64a4.4,4.4,0,0,1,.32-1.72,3.53,3.53,0,0,1,.88-1.25,3.7,3.7,0,0,1,1.26-.76,4.14,4.14,0,0,1,1.49-.26Z"/><path class="cls-2" d="M64.88,282.42l-4.2-6.2h2.16l4.2,6.2Zm-3.94,0v-2a3,3,0,0,1,.33-1.54,2.07,2.07,0,0,1,1.12-.81l.66,1a.7.7,0,0,0-.24.52v2.83Zm6.18-6.2-2,4-1.25-1.54L65,276.22Z"/><path class="cls-2" d="M68,276.27a1.86,1.86,0,0,1,.15-.72,3.32,3.32,0,0,1,.82-1.23l.81.44a4.82,4.82,0,0,0-.3.64,2.45,2.45,0,0,0-.13.87v.88H68Zm1.87,0a1.84,1.84,0,0,1,.14-.72,3.18,3.18,0,0,1,.83-1.23l.8.44a4.85,4.85,0,0,0-.29.64,2.44,2.44,0,0,0-.14.87v.88H69.91Z"/><path class="cls-2" d="M72.87,282.42v-6.2h2.87a2.61,2.61,0,0,1,1.84.59,2.34,2.34,0,0,1,.64,1.75v3.86H76.3v-4a.74.74,0,0,0-.15-.49.45.45,0,0,0-.39-.17h-.94v4.7Z"/><path class="cls-2" d="M79.11,282.42v-1.5h2.8l1.94-.06.71.12v1.44Zm2.8-.45v-3.61a.65.65,0,0,0-.18-.48.81.81,0,0,0-.54-.16H79.45v-1.5h1.89a2.66,2.66,0,0,1,1.84.6,2.07,2.07,0,0,1,.67,1.64V282Z"/><path class="cls-2" d="M67.67,290.64v-4h3.07v4Zm.41-.35h2.24V287H68.08Z"/><path class="cls-2" d="M72.35,288.85V287h-.78v-.34h1.2v2.19Z"/><path class="cls-2" d="M75.75,290.64v-2.85a.74.74,0,0,0-.22-.57A.73.73,0,0,0,75,287H73.55v-.34H75a1.2,1.2,0,0,1,.88.31,1.1,1.1,0,0,1,.32.86v2.81Z"/><path class="cls-2" d="M77.18,290.64v-.35h2.31L77,286.66h.48l1.28,1.89L80,290.4v.24Zm1.62-1.74-.25-.34,1.12-1.9h.47Z"/><path class="cls-2" d="M81,290.64v-4h1.38a1.64,1.64,0,0,1,1.18.37,1.55,1.55,0,0,1,.38,1.16v2.45h-.41v-2.46a1.24,1.24,0,0,0-.27-.9,1.14,1.14,0,0,0-.87-.28h-1v3.64Z"/></g><g id="ביסל_א" data-name="ביסל&quot;א"><path class="cls-1" d="M44.15,324.4a10.64,10.64,0,0,0,10.62,10.65H83.15a10.53,10.53,0,0,1,10.54,10.53v2.1a1.09,1.09,0,0,0,1.09,1.1h0a1.1,1.1,0,0,0,1.1-1.1V324.4a10.62,10.62,0,0,0-10.63-10.62H54.77A10.65,10.65,0,0,0,44.15,324.4Z"/><path class="cls-2" d="M58.56,327.14l-4.2-6.2h2.16l4.2,6.2Zm-3.93,0v-2a3,3,0,0,1,.33-1.53,2,2,0,0,1,1.11-.82l.66,1a.69.69,0,0,0-.24.52v2.82Zm6.17-6.2-2,4-1.25-1.54,1.08-2.46Z"/><path class="cls-2" d="M61.73,321a1.84,1.84,0,0,1,.14-.72,3.24,3.24,0,0,1,.36-.69,3.14,3.14,0,0,1,.47-.54l.8.44a5.53,5.53,0,0,0-.29.64,2.29,2.29,0,0,0-.14.88v.87H61.73Zm1.86,0a2,2,0,0,1,.14-.72,3.83,3.83,0,0,1,.37-.69,3.11,3.11,0,0,1,.46-.54l.8.44a5.53,5.53,0,0,0-.29.64,2.5,2.5,0,0,0-.14.88v.87H63.59Z"/><path class="cls-2" d="M66.05,322.44v-3.17H68v1.67h2.64v1.5Zm5.24-.25-2,4.95h-2l2.53-6.2h1.46Z"/><path class="cls-2" d="M75.15,327.27a2.88,2.88,0,0,1-1.48-.37,2.61,2.61,0,0,1-1-1,3.28,3.28,0,0,1-.38-1.54v-.25a2.24,2.24,0,0,1,.07-.55,2.7,2.7,0,0,1,.18-.57,2.42,2.42,0,0,1,.22-.43l0,0,0-.05v0l-.34.08-.3.08-.36-1.39a8.75,8.75,0,0,1,.94-.22c.35-.06.71-.1,1.08-.14s.72-.05,1.06-.05a3.79,3.79,0,0,1,1.7.35,2.28,2.28,0,0,1,1.05,1,3.47,3.47,0,0,1,.35,1.67v.54a3.15,3.15,0,0,1-.35,1.54,2.54,2.54,0,0,1-1,1A2.93,2.93,0,0,1,75.15,327.27Zm0-1.59a.77.77,0,0,0,.49-.17A1.18,1.18,0,0,0,76,325a1.87,1.87,0,0,0,.11-.7v-.51A2.81,2.81,0,0,0,76,323a.92.92,0,0,0-.3-.5.75.75,0,0,0-.5-.16.79.79,0,0,0-.53.18,1.08,1.08,0,0,0-.31.53,3.21,3.21,0,0,0-.1.89v.4a1.86,1.86,0,0,0,.12.7,1,1,0,0,0,.32.47A.76.76,0,0,0,75.14,325.68Z"/><path class="cls-2" d="M79.61,324.52v-2.08h-.89v-1.5h2.83v3.58Z"/><path class="cls-2" d="M82.54,327.14v-1.5h2.8l1.94-.06.71.12v1.44Zm2.8-.45v-3.61a.61.61,0,0,0-.18-.47.79.79,0,0,0-.54-.17H82.88v-1.5h1.89a2.66,2.66,0,0,1,1.84.6,2.07,2.07,0,0,1,.67,1.64v3.51Z"/></g><g id="כנף_25" data-name="כנף 25"><path class="cls-1" d="M135.88,361.06a10.64,10.64,0,0,1-10.63,10.65H98a10.53,10.53,0,0,0-10.54,10.53v2.1a1.1,1.1,0,0,1-1.1,1.1h0a1.09,1.09,0,0,1-1.09-1.1V361.06A10.62,10.62,0,0,1,95.9,350.44h29.35a10.65,10.65,0,0,1,10.63,10.62Z"/><path class="cls-2" d="M97.33,360.53H92.07v-1.25l2.39-2.48a6.89,6.89,0,0,0,.49-.6,3.08,3.08,0,0,0,.27-.48,1,1,0,0,0,.08-.39,1,1,0,0,0-.19-.67.67.67,0,0,0-.54-.21.69.69,0,0,0-.43.14,1,1,0,0,0-.28.39,1.53,1.53,0,0,0-.1.54H91.91a2.44,2.44,0,0,1,.35-1.28,2.47,2.47,0,0,1,.94-.93,2.83,2.83,0,0,1,1.41-.35,2.77,2.77,0,0,1,1.9.58,2.05,2.05,0,0,1,.65,1.62,2.33,2.33,0,0,1-.22,1,4.16,4.16,0,0,1-.62.95c-.27.32-.59.68-1,1.07l-.86.85h2.84Z"/><path class="cls-2" d="M98.24,356.91l.46-3.84h4.43v1.49h-2.92l-.16,1.29a3,3,0,0,1,.4-.15,1.81,1.81,0,0,1,.63-.1,2.55,2.55,0,0,1,1.26.29,1.94,1.94,0,0,1,.79.86,3.28,3.28,0,0,1,.26,1.37,2.64,2.64,0,0,1-.28,1.2,2.31,2.31,0,0,1-.87.94,2.65,2.65,0,0,1-1.47.37,3.31,3.31,0,0,1-1-.16,3,3,0,0,1-.86-.46,2.17,2.17,0,0,1-.6-.71,1.82,1.82,0,0,1-.21-.93H100a.82.82,0,0,0,.23.56.78.78,0,0,0,.56.21.66.66,0,0,0,.5-.17.85.85,0,0,0,.23-.43,2.62,2.62,0,0,0,.07-.57,1.57,1.57,0,0,0-.1-.57.78.78,0,0,0-.32-.37,1.22,1.22,0,0,0-.58-.12,1.11,1.11,0,0,0-.56.12,1.47,1.47,0,0,0-.28.24Z"/><path class="cls-2" d="M112.43,354.33v8.33h-1.91v-6.83h-1.17a2.74,2.74,0,0,0-.08.37c0,.12,0,.24,0,.35s0,.23,0,.34v.43l.23,0h.17v1.22a3.24,3.24,0,0,1-.79.09,3.6,3.6,0,0,1-.81-.12,2,2,0,0,1-.67-.28v-.69a4.58,4.58,0,0,1,0-.64,3.66,3.66,0,0,1,.12-.61,1.78,1.78,0,0,1,.19-.48h-.59v-1.5Z"/><path class="cls-2" d="M114.8,360.63a3.86,3.86,0,0,1-.6,0l-.67-.12V359a6.18,6.18,0,0,0,.73,0,.59.59,0,0,0,.48-.17.77.77,0,0,0,.15-.52v-2.55h-1v-1.5h3v4.2a2.14,2.14,0,0,1-.54,1.54A2,2,0,0,1,114.8,360.63Z"/><path class="cls-2" d="M119.74,360.63a6.85,6.85,0,0,1-.88-.06c-.31,0-.62-.09-1-.16l.3-1.4a7.41,7.41,0,0,0,1.25.14,1.45,1.45,0,0,0,1-.29,1.1,1.1,0,0,0,.31-.86v-2.17h-2.61v-1.5h4.55v3.35a3.5,3.5,0,0,1-.37,1.71,2.2,2.2,0,0,1-1,.94A3.91,3.91,0,0,1,119.74,360.63Z"/><path class="cls-2" d="M112.73,370.17v-5.06h-.52v-.34h.94v5.4Z"/><path class="cls-2" d="M114.64,368.75v-3.64h-.52v-.34h.94v4Z"/><path class="cls-2" d="M116.29,368.75l.33-2.68a1.48,1.48,0,0,1,.17-.54,1.06,1.06,0,0,1,.32-.37l0,0,0,0h0l-.4.09-.51.15-.11-.33a4.74,4.74,0,0,1,.57-.16c.2-.05.4-.08.6-.11l.56,0a1.51,1.51,0,0,1,1.15.41,1.63,1.63,0,0,1,.41,1.2v2.43h-1.59v-.34H119v-2.13a1.26,1.26,0,0,0-.28-.9,1,1,0,0,0-.82-.31.77.77,0,0,0-.6.27,1.2,1.2,0,0,0-.31.71l-.33,2.7Z"/><path class="cls-2" d="M122.4,368.75V365.9a.77.77,0,0,0-.21-.57.74.74,0,0,0-.57-.22h-1.41v-.34h1.4a1.22,1.22,0,0,1,.89.31,1.14,1.14,0,0,1,.32.86v2.81Z"/></g><g id="בח_א_10" data-name="בח&quot;א 10"><path class="cls-1" d="M144.07,448.72a10.65,10.65,0,0,1-10.63,10.65H100.2A10.53,10.53,0,0,0,89.66,469.9V472a1.09,1.09,0,0,1-1.09,1.1h0a1.1,1.1,0,0,1-1.1-1.1V448.72A10.62,10.62,0,0,1,98.1,438.1h35.34a10.67,10.67,0,0,1,10.63,10.62Z"/><path class="cls-2" d="M98.94,448.18H97.09V442.9l-1.66.45V441.9l3.34-1.17h.17Z"/><path class="cls-2" d="M106.37,445.15a4.09,4.09,0,0,1-.33,1.76,2.35,2.35,0,0,1-.93,1,2.64,2.64,0,0,1-1.36.34,2.7,2.7,0,0,1-1.37-.34,2.23,2.23,0,0,1-.93-1,4.09,4.09,0,0,1-.34-1.76v-1.39a4.12,4.12,0,0,1,.34-1.76,2.32,2.32,0,0,1,.92-1,2.71,2.71,0,0,1,1.37-.35,2.65,2.65,0,0,1,1.36.35,2.36,2.36,0,0,1,.94,1,4.13,4.13,0,0,1,.33,1.76Zm-1.85-1.63a3.19,3.19,0,0,0-.09-.85.94.94,0,0,0-.27-.43.74.74,0,0,0-.84,0,.94.94,0,0,0-.27.43,3.19,3.19,0,0,0-.09.85v1.87a3.22,3.22,0,0,0,.09.86.87.87,0,0,0,.28.43.74.74,0,0,0,.42.12.71.71,0,0,0,.41-.12.8.8,0,0,0,.27-.43,3.22,3.22,0,0,0,.09-.86Z"/><path class="cls-2" d="M114.06,448.18l-4.2-6.19H112l4.2,6.19Zm-3.93,0v-1.95a3,3,0,0,1,.33-1.54,2.06,2.06,0,0,1,1.11-.82l.66,1a.69.69,0,0,0-.24.52v2.82ZM116.3,442l-2,4-1.25-1.55,1.08-2.45Z"/><path class="cls-2" d="M117.23,442a1.92,1.92,0,0,1,.14-.72,3.24,3.24,0,0,1,.36-.69,2.73,2.73,0,0,1,.47-.53l.8.43a5.53,5.53,0,0,0-.29.64,2.29,2.29,0,0,0-.14.88v.87h-1.34Zm1.86,0a2.13,2.13,0,0,1,.14-.72,4.52,4.52,0,0,1,.36-.69,3.1,3.1,0,0,1,.47-.53l.8.43a5.53,5.53,0,0,0-.29.64,2.5,2.5,0,0,0-.14.88v.87h-1.34Z"/><path class="cls-2" d="M122.06,448.18V442h2.87a2.56,2.56,0,0,1,1.84.59,2.26,2.26,0,0,1,.64,1.74v3.86h-1.93v-4a.75.75,0,0,0-.14-.49.49.49,0,0,0-.4-.18H124v4.7Z"/><path class="cls-2" d="M128.29,448.18v-1.5h2.8l1.94-.05.71.11v1.44Zm2.8-.45v-3.6a.62.62,0,0,0-.18-.48.77.77,0,0,0-.53-.17h-1.75V442h1.89a2.64,2.64,0,0,1,1.84.59,2.08,2.08,0,0,1,.67,1.64v3.51Z"/><path class="cls-2" d="M119.89,456.41V454a1.29,1.29,0,0,0-.27-.91,1.26,1.26,0,0,0-.9-.27h-1.34v-.35h1.36a1.66,1.66,0,0,1,1.18.38,1.52,1.52,0,0,1,.39,1.15v2.46Zm-2.49,0v-1.36a2.13,2.13,0,0,1,0-.49,1.69,1.69,0,0,1,.1-.34h.35a1.82,1.82,0,0,0-.06.35,3.23,3.23,0,0,0,0,.48v1.36Z"/><path class="cls-2" d="M121.08,452.42h3.07v.35h-.66v3.64h-.41v-3.64h-2Z"/><path class="cls-2" d="M124.58,456.41v-.35h2.29l.41,0,.5,0v.33Zm2.29-.09V454a1.29,1.29,0,0,0-.27-.91,1.24,1.24,0,0,0-.9-.27h-.9v-.35h.92a1.66,1.66,0,0,1,1.18.38,1.52,1.52,0,0,1,.38,1.15v2.37Z"/><path class="cls-2" d="M128.81,456.41v-3.64h-.52v-.35h.94v4Z"/><path class="cls-2" d="M131.42,456.48a3.7,3.7,0,0,1-.63-.06,3.45,3.45,0,0,1-.7-.21l.11-.32a5,5,0,0,0,.63.2,2.8,2.8,0,0,0,.55.06,1.4,1.4,0,0,0,1-.32,1.23,1.23,0,0,0,.36-.95v-2.46h.42v2.44a1.72,1.72,0,0,1-.22.89,1.36,1.36,0,0,1-.59.55A2.07,2.07,0,0,1,131.42,456.48Zm-1.1-4.06h.42l.67,3a4.21,4.21,0,0,0,.13.47,2.31,2.31,0,0,0,.18.35h-.34a2.32,2.32,0,0,1-.22-.36,1.82,1.82,0,0,1-.15-.45Z"/></g><g id="יב_א_מרכז" data-name="יב&quot;א מרכז"><path class="cls-1" d="M213.6,163.87A10.65,10.65,0,0,1,203,174.51H160A10.54,10.54,0,0,0,149.43,185v2.1a1.1,1.1,0,0,1-1.1,1.1h0a1.09,1.09,0,0,1-1.09-1.1V163.87a10.62,10.62,0,0,1,10.63-10.63H203a10.65,10.65,0,0,1,10.63,10.63Z"/><path class="cls-2" d="M158.41,163.32l-.62-4.64-.31-.1v-1.45h3.65v1.49h-1.45l.72,4.7Z"/><path class="cls-2" d="M163.53,163.43a6.58,6.58,0,0,1-.87-.06c-.31,0-.63-.1-1-.16l.29-1.41a6.81,6.81,0,0,0,1.25.15,1.46,1.46,0,0,0,1-.29,1.14,1.14,0,0,0,.3-.86v-2.18H162v-1.49h4.54v3.35a3.39,3.39,0,0,1-.37,1.71,2.14,2.14,0,0,1-1,.94A4.18,4.18,0,0,1,163.53,163.43Z"/><path class="cls-2" d="M170,163.32v-4a.71.71,0,0,0-.2-.55.86.86,0,0,0-.6-.18h-1.76v-1.49h1.93a2.74,2.74,0,0,1,1.89.61,2.16,2.16,0,0,1,.68,1.69v3.89Z"/><path class="cls-2" d="M173.29,163.32l.37-3.26a3.14,3.14,0,0,1,.19-.79,2.1,2.1,0,0,1,.34-.6l0,0,0,0v0a2.24,2.24,0,0,0-.44.1,3.19,3.19,0,0,0-.39.14l-.4-1.39a7,7,0,0,1,.9-.26q.51-.1,1.05-.18a9.51,9.51,0,0,1,1-.06,3.13,3.13,0,0,1,2.26.75,2.94,2.94,0,0,1,.77,2.2v3.42h-2.79v-1.49h.85v-2.19a1.49,1.49,0,0,0-.19-.82.58.58,0,0,0-.52-.3.66.66,0,0,0-.6.32,2.13,2.13,0,0,0-.26,1l-.32,3.52Z"/><path class="cls-2" d="M187,163.32l-4.2-6.19h2.16l4.2,6.19Zm-3.94,0v-1.95a3,3,0,0,1,.33-1.54,2.07,2.07,0,0,1,1.12-.81l.66,1a.69.69,0,0,0-.24.52v2.82Zm6.18-6.19-2,4-1.25-1.54,1.08-2.46Z"/><path class="cls-2" d="M190.11,157.17a2,2,0,0,1,.14-.71,3.26,3.26,0,0,1,.37-.69,2.82,2.82,0,0,1,.46-.54l.81.43a6.39,6.39,0,0,0-.3.64,2.55,2.55,0,0,0-.13.88v.88h-1.35Zm1.87,0a1.83,1.83,0,0,1,.14-.71,3.32,3.32,0,0,1,.82-1.23l.81.43a6.42,6.42,0,0,0-.29.64,2.32,2.32,0,0,0-.14.88v.88H192Z"/><path class="cls-2" d="M194.39,163.32v-1.5h2.8l1.94,0,.71.12v1.43Zm2.8-.45v-3.6a.63.63,0,0,0-.18-.48.77.77,0,0,0-.53-.17h-1.75v-1.49h1.9a2.64,2.64,0,0,1,1.83.6,2.06,2.06,0,0,1,.67,1.64v3.5Z"/><path class="cls-2" d="M201.09,160.7v-2.08h-.89v-1.49H203v3.57Z"/><path class="cls-2" d="M192.89,169l.24-2.42h2.49V167h-2.14l-.18,1.68a2,2,0,0,1,.38-.18,1.64,1.64,0,0,1,.56-.09,1.53,1.53,0,0,1,.78.19,1.29,1.29,0,0,1,.51.55,1.91,1.91,0,0,1,.19.86,2.21,2.21,0,0,1-.16.84,1.29,1.29,0,0,1-.49.59,1.46,1.46,0,0,1-.84.22,2,2,0,0,1-.56-.08,1.31,1.31,0,0,1-.46-.26,1.32,1.32,0,0,1-.34-.43,1.76,1.76,0,0,1-.16-.61h.4a1.2,1.2,0,0,0,.34.77,1.27,1.27,0,0,0,1.37.11.93.93,0,0,0,.36-.44,1.88,1.88,0,0,0,.12-.71,1.45,1.45,0,0,0-.13-.63,1.08,1.08,0,0,0-.38-.44,1.12,1.12,0,0,0-.62-.16,1.48,1.48,0,0,0-.57.09,1.66,1.66,0,0,0-.39.26Z"/><path class="cls-2" d="M199.48,169.48a3.47,3.47,0,0,1-.17,1.2,1.33,1.33,0,0,1-1.35.94,1.49,1.49,0,0,1-.82-.23,1.52,1.52,0,0,1-.53-.71,3.45,3.45,0,0,1-.18-1.2v-.84a3.37,3.37,0,0,1,.18-1.2,1.42,1.42,0,0,1,.52-.7,1.59,1.59,0,0,1,1.65,0,1.42,1.42,0,0,1,.52.7,3.37,3.37,0,0,1,.18,1.2Zm-.4-.89a3,3,0,0,0-.13-1,1.22,1.22,0,0,0-.37-.58,1,1,0,0,0-.63-.19,1,1,0,0,0-.61.19,1.23,1.23,0,0,0-.38.58,3.3,3.3,0,0,0-.12,1v.93a3,3,0,0,0,.13.95,1.28,1.28,0,0,0,.37.6.94.94,0,0,0,.62.2.91.91,0,0,0,.62-.2,1.21,1.21,0,0,0,.37-.6,3,3,0,0,0,.13-.95Z"/><path class="cls-2" d="M201.28,168.92h.46a2.22,2.22,0,0,1,.73.1,1.2,1.2,0,0,1,.5.27,1.06,1.06,0,0,1,.29.41,1.35,1.35,0,0,1,.09.5,1.44,1.44,0,0,1-.19.77,1.35,1.35,0,0,1-.55.48,1.79,1.79,0,0,1-.78.17,2,2,0,0,1-.59-.09,1.75,1.75,0,0,1-.51-.26,1.33,1.33,0,0,1-.36-.45,1.35,1.35,0,0,1-.13-.62h.41a1,1,0,0,0,.15.56,1.08,1.08,0,0,0,.41.38,1.38,1.38,0,0,0,.62.13,1.16,1.16,0,0,0,.82-.27,1.17,1.17,0,0,0,.14-1.37.92.92,0,0,0-.44-.33,1.9,1.9,0,0,0-.66-.11h-.41Zm.41-.08a1.35,1.35,0,0,0,.64-.13.9.9,0,0,0,.39-.35.92.92,0,0,0,.13-.49,1.14,1.14,0,0,0-.11-.53.77.77,0,0,0-.34-.35,1.15,1.15,0,0,0-.59-.13,1.25,1.25,0,0,0-.56.12,1,1,0,0,0-.39.36,1,1,0,0,0-.14.54h-.41a1.28,1.28,0,0,1,.2-.71,1.23,1.23,0,0,1,.53-.48,1.62,1.62,0,0,1,.77-.18,1.71,1.71,0,0,1,.77.16,1.19,1.19,0,0,1,.5.47,1.44,1.44,0,0,1,.18.75,1,1,0,0,1-.1.44,1.17,1.17,0,0,1-.28.39,1.43,1.43,0,0,1-.48.29,1.91,1.91,0,0,1-.66.1h-.46v-.27Z"/></g><g id="יב_א_דרומית" data-name="יב&quot;א דרומית"><path class="cls-1" d="M7.47,366.14A10.65,10.65,0,0,0,18.1,376.79H68.73a10.52,10.52,0,0,1,10.53,10.53v2.1a1.1,1.1,0,0,0,1.1,1.1h0a1.1,1.1,0,0,0,1.1-1.1V366.14a10.62,10.62,0,0,0-10.63-10.62H18.1A10.65,10.65,0,0,0,7.47,366.14Z"/><path class="cls-2" d="M21.47,359.36a2.58,2.58,0,0,1,1.84.6,2.26,2.26,0,0,1,.63,1.74v3.86H22v-4a.8.8,0,0,0-.14-.5.48.48,0,0,0-.39-.17h-.76a5.67,5.67,0,0,0-.05.58c0,.19,0,.36,0,.5v1.63a2.07,2.07,0,0,1-.55,1.54,2,2,0,0,1-1.49.56l-.44,0-.43-.06v-1.48h.33a.68.68,0,0,0,.5-.18.66.66,0,0,0,.19-.53v-1.28a3.77,3.77,0,0,1,.06-.6,2.3,2.3,0,0,1,.23-.67h-.87v-1.5Z"/><path class="cls-2" d="M25.71,362.94v-2.08h-.89v-1.5h2.83v3.58Z"/><path class="cls-2" d="M29.15,365.56l.36-3.26a3,3,0,0,1,.2-.79,1.89,1.89,0,0,1,.34-.6l0,0,0,0v0a3.13,3.13,0,0,0-.44.11,3.49,3.49,0,0,0-.39.13l-.4-1.38a5.73,5.73,0,0,1,.9-.26,8.35,8.35,0,0,1,1-.18,9.79,9.79,0,0,1,1.05-.06,3.14,3.14,0,0,1,2.26.74,2.93,2.93,0,0,1,.78,2.21v3.42H32.11v-1.5H33v-2.19a1.57,1.57,0,0,0-.18-.81.59.59,0,0,0-.52-.3.67.67,0,0,0-.61.32,2.27,2.27,0,0,0-.25.95l-.32,3.53Z"/><path class="cls-2" d="M36.32,365.56v-4.7h-.46v-1.5h2.4v6.2Z"/><path class="cls-2" d="M41.73,365.56v-4a.7.7,0,0,0-.2-.54.9.9,0,0,0-.6-.18H39.17v-1.5h1.92A2.75,2.75,0,0,1,43,360a2.16,2.16,0,0,1,.69,1.7v3.89Z"/><path class="cls-2" d="M44.6,359.36h5.52v1.5H49v4.7H47.07v-4.7H44.6Z"/><path class="cls-2" d="M57.75,365.56l-4.21-6.2H55.7l4.2,6.2Zm-3.94,0v-2a3,3,0,0,1,.33-1.53,2,2,0,0,1,1.11-.82l.67,1a.69.69,0,0,0-.24.52v2.82Zm6.17-6.2-2,4-1.25-1.54,1.07-2.46Z"/><path class="cls-2" d="M60.91,359.41a2,2,0,0,1,.14-.72,3.83,3.83,0,0,1,.37-.69,3.11,3.11,0,0,1,.46-.54l.8.44a5.53,5.53,0,0,0-.29.64,2.5,2.5,0,0,0-.14.88v.87H60.91Zm1.87,0a1.84,1.84,0,0,1,.14-.72,3.24,3.24,0,0,1,.36-.69,3.61,3.61,0,0,1,.46-.54l.81.44a5.5,5.5,0,0,0-.3.64,2.51,2.51,0,0,0-.13.88v.87H62.78Z"/><path class="cls-2" d="M65.19,365.56v-1.5H68l1.94-.06.71.12v1.44Zm2.8-.45V361.5a.61.61,0,0,0-.18-.47.77.77,0,0,0-.53-.17H65.53v-1.5h1.89a2.66,2.66,0,0,1,1.84.6,2.07,2.07,0,0,1,.67,1.64v3.51Z"/><path class="cls-2" d="M71.89,362.94v-2.08H71v-1.5h2.82v3.58Z"/><path class="cls-2" d="M63.58,371.24l.24-2.43H66.3v.38H64.17L64,370.87a1.7,1.7,0,0,1,.38-.18,1.6,1.6,0,0,1,.56-.09,1.49,1.49,0,0,1,.77.19,1.34,1.34,0,0,1,.52.56,1.87,1.87,0,0,1,.18.85,2.26,2.26,0,0,1-.15.85,1.35,1.35,0,0,1-.49.59,1.54,1.54,0,0,1-.84.21,1.69,1.69,0,0,1-.56-.08,1.51,1.51,0,0,1-.47-.25,1.59,1.59,0,0,1-.33-.43,1.66,1.66,0,0,1-.16-.61h.39a1.18,1.18,0,0,0,.35.76,1.09,1.09,0,0,0,.78.27,1.1,1.1,0,0,0,.59-.15,1,1,0,0,0,.36-.45,1.83,1.83,0,0,0,.12-.7,1.39,1.39,0,0,0-.13-.63,1.12,1.12,0,0,0-.38-.45,1.21,1.21,0,0,0-.62-.16,1.29,1.29,0,0,0-.57.1,1.4,1.4,0,0,0-.39.26Z"/><path class="cls-2" d="M70.17,371.71a3.37,3.37,0,0,1-.18,1.2,1.47,1.47,0,0,1-2.16.71,1.41,1.41,0,0,1-.53-.71,3.37,3.37,0,0,1-.18-1.2v-.84a3.45,3.45,0,0,1,.18-1.2,1.41,1.41,0,0,1,.52-.7,1.46,1.46,0,0,1,.82-.23,1.5,1.5,0,0,1,.83.23,1.47,1.47,0,0,1,.52.7,3.45,3.45,0,0,1,.18,1.2Zm-.4-.89a3.2,3.2,0,0,0-.13-.95,1.17,1.17,0,0,0-.37-.58,1.08,1.08,0,0,0-1.25,0,1.17,1.17,0,0,0-.37.58,3.23,3.23,0,0,0-.12.95v.94a3.33,3.33,0,0,0,.12.95,1.21,1.21,0,0,0,.38.59.93.93,0,0,0,.62.21.91.91,0,0,0,.62-.21,1.2,1.2,0,0,0,.37-.59,3.3,3.3,0,0,0,.13-.95Z"/><path class="cls-2" d="M71.71,373.47a2.16,2.16,0,0,0,.9-.16,1.48,1.48,0,0,0,.59-.44,1.83,1.83,0,0,0,.31-.66,3.15,3.15,0,0,0,.1-.83v-.69a2.28,2.28,0,0,0-.15-.88,1.18,1.18,0,0,0-.41-.53,1,1,0,0,0-.61-.19.94.94,0,0,0-.59.2,1.19,1.19,0,0,0-.38.5,1.72,1.72,0,0,0-.14.68,1.61,1.61,0,0,0,.13.65,1.12,1.12,0,0,0,.36.49.92.92,0,0,0,.59.2,1.11,1.11,0,0,0,.52-.12,1.18,1.18,0,0,0,.4-.29,1.62,1.62,0,0,0,.25-.39,1,1,0,0,0,.09-.41h.21a1.52,1.52,0,0,1-.12.59,1.47,1.47,0,0,1-.32.5A1.45,1.45,0,0,1,73,372a1.35,1.35,0,0,1-.6.13,1.25,1.25,0,0,1-.78-.24,1.39,1.39,0,0,1-.48-.62,2.1,2.1,0,0,1,0-1.68,1.55,1.55,0,0,1,.51-.64,1.45,1.45,0,0,1,.81-.23,1.54,1.54,0,0,1,.7.14,1.41,1.41,0,0,1,.5.41,2,2,0,0,1,.29.63,3.3,3.3,0,0,1,.1.8v.4A5.71,5.71,0,0,1,74,372a3.21,3.21,0,0,1-.23.74,1.92,1.92,0,0,1-.42.59,1.81,1.81,0,0,1-.66.39,2.86,2.86,0,0,1-.93.13h-.1v-.35Z"/></g></g></svg>