<svg xmlns="http://www.w3.org/2000/svg" viewBox="0 0 233.49 505.94"><defs><style>.cls-1,.cls-3,.cls-4,.cls-5,.cls-6{fill:none;stroke:#2e365b;stroke-miterlimit:10;}.cls-2{fill:#c0cadb;}.cls-3{stroke-width:0.25px;}.cls-4{stroke-width:0.63px;}.cls-5{stroke-width:0.1px;}.cls-6{stroke-width:0.5px;}.cls-7{fill:#2e365b;}.cls-8{fill:#fff;}</style></defs><g id="Layer_4" data-name="Layer 4"><g id="מפה-2" data-name="מפה"><g id="מפה-3" data-name="מפה"><path id="path1104" class="cls-1" d="M16.83,265c.59,1.19,2.15,3.57,2.15,3.57s8.64,36.86,19.29,58.31,13.48,35.37,13.48,35.37v7l3.72,5.59-2.31,9.3L62,391.6l16.3,45.65-1,3.27L88.54,474v5.14l2.3,6.56-.44,10.72,1,3.72,2.3,2.31v1.41l.45,1.42,2.31-1.42,3.72-5.58c.52-.74,2.46.6,2.83,0,.6-1.12-.22-3.43,0-5.14a26.53,26.53,0,0,1,1.86-7c.23-.52,1.72,0,1.87-.44.29-1.2-.67-3.21-.45-4.7.07-.74,1.26-1.11,1.41-1.86.45-2.23-.22-4.76.45-7,1.64-5.36,5.44-10.35,6.55-15.86.82-4-1.19-8.56-1-12.58.07-.82,1.63-1.05,1.86-1.87.89-3.05.07-6.85,1.41-9.75,1.49-3.28,5.29-5.66,7-8.86.82-1.57.67-3.72.45-5.59a30.41,30.41,0,0,0-1.86-6.55c-.38-1.12-1-2.16-1.42-3.28-.22-.59-.67-1.34-.45-1.86.6-1.49,2.31-2.68,2.83-4.17s-.37-3.2,0-4.69,1.64-2.46,2.31-3.72a2.49,2.49,0,0,0,.45-1.42,20.38,20.38,0,0,0-1-4.69,17.25,17.25,0,0,0-1.86-3.72c-.37-.52-1.56-.82-1.41-1.42,1-3.27,3.94-6.7,5.13-10.27.6-1.72-.15-3.73,0-5.59a13.34,13.34,0,0,1,1-4.17,83.69,83.69,0,0,1,5.14-10.72c1.41-2.46,4.24-4.39,5.14-7,1-3-.6-7,.44-9.76.67-1.71,4-2.16,4.7-3.72s-1.12-3.8-1-5.58,1.11-3.13,1.86-4.7a18.85,18.85,0,0,1,2.83-4.69c1-1,3.65-.89,3.72-2.3l.45-8.87,1.86-4.69,2.83-3.72,1.86-6.55-1.86-5.59-3.72-6-2.83-1.86,1.41-6.56,7.45-13,.45-14.44c.14-5.66,1.34-11.25,2.3-16.76a74.87,74.87,0,0,1,2.31-8.86c1-3.28,2.46-6.48,3.28-9.75a7,7,0,0,0,0-3.28c-.22-1.12-1.34-2.16-1.42-3.28s.9-2.16,1-3.27a13.29,13.29,0,0,0-.44-4.17c-.6-2.09-2.46-4.25-2.31-6,.07-1.11,2.6-1.63,2.83-2.83.29-1.78-.75-4.09-1.42-6-.44-1.41-1.64-2.75-1.86-4.17a9,9,0,0,1,.45-3.72c.44-1.56,1.49-3,1.86-4.69.22-.9-.15-1.86,0-2.83.45-2.24,1.34-4.32,1.86-6.55.67-2.76,1.86-5.59,1.86-8.42,0-3.72-1.41-7.45-1.86-11.17-.52-4.17-1.19-8.41-1-12.58.23-3.28,1.64-6.48,2.31-9.76a10.8,10.8,0,0,0,.45-3.72c-.23-1.19-1.64-2.09-1.86-3.28a7.15,7.15,0,0,1,.44-3.27c.3-1.12,1.42-2.09,1.42-3.28a28.59,28.59,0,0,0-1.42-7.89c-.22-.75-1.64-1.64-1.41-1.87s2.31.82,3.27.45a8.42,8.42,0,0,0,3.28-2.83c.67-.89.52-2.9,1.42-3.28,1.26-.52,3.64,1,5.13.45,1.34-.45,2-2.38,3.28-3.28,1.56-1,3.65-1.26,5.14-2.3,1-.75,1.34-2.46,2.31-3.28.74-.6,2.16-.22,2.83-1a38.42,38.42,0,0,0,5.58-8.41,9.18,9.18,0,0,0,1-4.17c0-.82-1.19-1.64-1-2.31,1.12-2.68,4.47-5.14,5.14-7.89.37-1.57-1.49-3.36-1.86-5.14-1-4.92-.52-10.58-2.31-14.9-.75-1.71-4.92-1.86-5.14-3.27-.22-1.64,3.05-3.87,3.72-6a8,8,0,0,0-.44-4.17c-.23-.6-1.19-.82-1.42-1.42-.67-1.71-.44-4-1.41-5.58-.75-1.27-3.65-1.64-3.72-2.76-.08-1.64,3-3.8,3.27-5.58.08-1-1.34-2.24-2.31-2.83S189.88,1,188.77.88c-1.72-.08-4-.52-5.14,0-.52.22.37,1.71,0,2.31A17.19,17.19,0,0,1,180.8,6c-.6.59-1.12,1.64-1.86,1.86-1.12.37-2.83-.52-3.73,0-.67.45-.44,2.08-1,2.83-.15.22-.6.07-1,0-1-.15-2.16.07-2.83-.45-.9-.82-1.34-3.57-1.86-3.72s-.45,2-1,2.83-1.42,1.12-1.86,1.86a9,9,0,0,0-1.42,3.28c-.15,1.34.52,2.83.45,4.17a30.93,30.93,0,0,1-1,5.13c-.3,1.57-.3,3.28-1,4.7-.44,1-1.78,1.49-2.31,2.3-.22.38.38,1.27,0,1.42-1,.37-2.9-.3-4.17,0a3.83,3.83,0,0,0-1.86,1.41c-.44.53-.37,1.57-1,1.87s-1.86-.15-2.83,0a18.58,18.58,0,0,0-3.27,1c-.82.3-1.71,1.27-2.31,1-1.42-.74-2.46-2.83-3.72-4.17-.6-.67-1.12-1.64-1.87-1.86a9,9,0,0,0-3.72,0c-1.86.3-3.87,1.42-5.58,1.42-.6,0-1-1.57-1.42-1.42s-.67,2.23-1.41,2.31c-1.72.22-4-1.79-6-1.42l-5.14,1v5.59c0,2.08-1.27,4-1.86,6A39.48,39.48,0,0,0,113,50c-.22,1.19.3,2.68,0,3.72-.15.45-1.49.6-1.41,1s1.41.82,1.86,1.41a1.92,1.92,0,0,1,.44,1.42,20,20,0,0,1-1,5.14A12.07,12.07,0,0,1,111,66c-1,1.34-2.08,3.06-3.27,3.73-.52.29-1.27-.6-1.86-1a22.69,22.69,0,0,1-2.31-1.42c-.37-.22-.52-.89-1-1a2.85,2.85,0,0,0-1.86.45,5.58,5.58,0,0,0-1.86,2.83c-.38,1.42,0,3.13,0,4.69,0,2,.07,4,0,6-.08,1.12.59,2.91-.45,3.28L97,84.06l-.44,4.69L94.2,103.2l-2.83,11.61-3.21,12.88L84,145l-4.91,15.12L72.9,179.67,65,197.84l-7.14,14.45L48.1,227.63l-8.19,11.69-11,13-8.12,8.34Z"/></g><polygon class="cls-2" points="148.62 276.72 152.22 277.01 155.21 278.21 159.09 280.85 163.93 283.89 164.87 285.73 163.76 288.08 162.04 291.53 161.48 294.66 158.66 296.72 156.52 296.62 152.28 304.81 149.66 309.18 148.17 309.63 147.1 308.5 147.1 305.73 149.07 301.34 149.68 298.95 148.77 292.22 146.73 283.87 146.58 278.45 148.62 276.72"/><polygon class="cls-2" points="162.36 206.97 164.13 208.36 166.99 207.55 170.15 207.66 171.56 209.62 171.56 212.68 171.03 216.75 170.54 221.1 170.03 225.64 167.46 232.93 166.99 235.86 168.87 241.54 169.31 243.6 167.31 258.28 166.05 265.46 164.21 268.05 163.25 268.05 162 264.21 161.04 259.7 159.76 259.32 158.72 260.58 156.36 264.79 154.19 265.41 152.03 264.37 150.69 261.35 150.55 255.4 149.39 240.89 152.02 227.06 159.41 211.71 161.58 207.55 162.36 206.97"/><polygon class="cls-2" points="165.75 62.78 171.29 59.52 173.87 58.69 175.09 60.53 176.52 67.91 176.41 72.81 175.44 75.64 175.21 78.3 173.14 81.48 171.27 83.09 169.49 83.09 168.4 81.89 168.46 78.99 166.87 76.72 165.44 74.39 164.79 71.4 162.59 70.12 161.82 68.39 162.76 65.23 165.75 62.78"/><path id="path1118" class="cls-1" d="M152.83,265a3.31,3.31,0,0,0,2.77.31c2.64-1,2.48-6.56,5.18-5.79,1.5.43.79,13.36,4.77,7a9.93,9.93,0,0,0,1.12-3.84q1.2-8.23,2.42-16.46a10.93,10.93,0,0,0,.12-3.56,21.6,21.6,0,0,0-1.7-4.08c-2.21-5.28,1-7.06,2.19-11.3,1-4.23.66-8.47,1.84-12.88.51-1.92.62-4.11-.49-5.75-1.52-2.25-2.94-.94-4.75-1.06-.5,0-1,.88-1.6.95-1.06.12-1.28-1.83-2.63-1.16a3.24,3.24,0,0,0-1.27,1.57L154.28,222a39.52,39.52,0,0,0-2.56,5.95,38.29,38.29,0,0,0-1.12,5.64c-.25,1.69-.51,3.38-.66,5.08-.21,2.27-.25,4.55-.28,6.83a62,62,0,0,0,.82,9c.32,2.56-.42,6.8.88,9A3.93,3.93,0,0,0,152.83,265Z"/><path class="cls-1" d="M164.69,286.59c-.51,1.31-2,2.47-2.46,3.9a27.34,27.34,0,0,0-.35,3.15,4.25,4.25,0,0,1-5.36,3c-1.21,3-5.75,13.35-7.76,13-2.47-.42-2.07-4.38-1.34-5.86A20.64,20.64,0,0,0,149.2,300a11.25,11.25,0,0,0,.06-3.84c-.56-5.56-2.53-9.87-2.95-15.39a4.52,4.52,0,0,1,.27-2.34c1.55-3.18,7.75-1.34,9.57.48s8,3.93,8.65,6.23A2.25,2.25,0,0,1,164.69,286.59Z"/><path class="cls-3" d="M170.54,65.73c1.05.27.18,3.18.53,5.83.85,6.31-.94,4.57-1.91-.61C168.68,68.41,170.54,65.73,170.54,65.73Z"/><path class="cls-4" d="M171.16,62.49c.47-.12,1.09-.34,1.36,0a7.46,7.46,0,0,1,1,3,15.1,15.1,0,0,1,.2,2.35,29.23,29.23,0,0,1,0,3.5,17.39,17.39,0,0,1-.47,1.82,11.36,11.36,0,0,1-.19,2.09,7.88,7.88,0,0,1-1.76,3.67,1,1,0,0,1-1.72,0c-.37-.51-.12-1.58-.36-2.49a6.23,6.23,0,0,0-.64-1.51,11.59,11.59,0,0,1-1.09-1.66c-.33-.81-.16-1.87-.52-2.6s-1.18-.76-1.38-1.34a3.84,3.84,0,0,1,.32-2,2.5,2.5,0,0,1,.56-1.17A9.73,9.73,0,0,1,168,64.79,15.58,15.58,0,0,1,171.16,62.49Z"/><path id="path1116" class="cls-1" d="M168.59,82.57c-.52-.67.22-2.24,0-3.28a4.49,4.49,0,0,0-1-1.86c-.52-.67-1.49-1.12-1.86-1.86-.6-1.27-.23-3-1-4.17-.52-.9-2.38-1-2.83-1.86s.15-2.24.45-3.28a3.45,3.45,0,0,1,1-1.86,15.88,15.88,0,0,1,2.83-1.86,61.41,61.41,0,0,1,5.59-3.28c.74-.3,1.86-.89,2.31-.45,1,1,1.41,3.06,1.86,4.69a21.35,21.35,0,0,1,.45,3.73,37.12,37.12,0,0,1,0,5.58c-.08,1-.75,1.86-1,2.83s.07,2.31-.45,3.28a12,12,0,0,1-3.72,4.17A2.72,2.72,0,0,1,168.59,82.57Z"/><path id="path1118-2" data-name="path1118" class="cls-1" d="M152.83,265a3.31,3.31,0,0,0,2.77.31c2.64-1,2.48-6.56,5.18-5.79,1.5.43.79,13.36,4.77,7a9.93,9.93,0,0,0,1.12-3.84q1.2-8.23,2.42-16.46a10.93,10.93,0,0,0,.12-3.56c-.28-1.45-1.31-2.66-1.7-4.08-1.47-5.31,1-7.06,2.19-11.3,1-4.23.66-8.47,1.84-12.88.51-1.92.62-4.11-.49-5.75-1.52-2.25-2.94-.94-4.75-1.06-.5,0-1,.88-1.6.95-1.06.12-1.28-1.83-2.63-1.16a3.24,3.24,0,0,0-1.27,1.57L154.28,222a39.52,39.52,0,0,0-2.56,5.95,38.29,38.29,0,0,0-1.12,5.64c-.25,1.69-.51,3.38-.66,5.08-.21,2.27-.25,4.55-.28,6.83a62,62,0,0,0,.82,9c.32,2.56-.42,6.8.88,9A3.93,3.93,0,0,0,152.83,265Z"/><path class="cls-4" d="M153.81,230.36c-.26.95-.61,1.88-.82,2.85s-.3,1.77-.41,2.67-.19,1.59-.26,2.4c-.15,1.86-.18,3.73-.21,5.61a54.35,54.35,0,0,0,.63,7.42c.24,2.1-.32,5.59.67,7.38a3.25,3.25,0,0,0,1.13,1.17,2.35,2.35,0,0,0,2,.28l.16-.06c2-.85,2-4.63,4.08-4.74,1.57-.09,2.37,8.33,4.41,4a9.07,9.07,0,0,0,.61-3c.34-3.61.54-7.5,1-10.86.08-.56.16-1.13.22-1.69a11.41,11.41,0,0,0,.09-1.65,4,4,0,0,0-.16-1c-.31-1.06-1.14-2-1.45-3-1.29-4.26.56-6,1.46-9.35,0-.2.1-.4.14-.61.71-3.35.87-6.41,1.74-9.91.4-1.58.89-3.38,0-4.73-1.16-1.85-2.25-.77-3.63-.86-.39,0-.78.71-1.23.77-.81.1-1-1.5-2-.95a2.32,2.32,0,0,0-.87,1.07l-.4.82c-1.29,2.72-2.69,5.44-4.09,8.16a34.24,34.24,0,0,0-1.86,4C154.37,227.83,154.14,229.11,153.81,230.36Z"/><path id="path1118-3" data-name="path1118" class="cls-3" d="M156.25,254.76a1.48,1.48,0,0,0,1.47.2c1.41-.64,1.64-3.36,3.1-3.75,1.65-.45,3.78,3.23,4.05,1,.31-2.58-.28-7,0-9.57a8,8,0,0,0,.07-2.29c-.15-.94-1.11-1.78-1.41-2.66-1.18-3.4.19-5.13.83-7.86s1.19-4.84,1.82-7.69c.27-1.23,1.16-2.64.57-3.7-.81-1.45-1.57-.61-2.53-.68-.27,0-.54.56-.86.61-.56.08-.68-1.18-1.4-.75a2.1,2.1,0,0,0-.67,1c-1.16,2.82-3.14,5.63-4.3,8.45a28.07,28.07,0,0,0-1.36,3.83,29.23,29.23,0,0,0-.6,3.63c-.14,1.09-.27,2.18-.35,3.28-.11,1.46-.13,2.93-.15,4.4a48.9,48.9,0,0,0,.43,5.81c.18,1.65-.22,4.39.47,5.79A2.35,2.35,0,0,0,156.25,254.76Z"/><path id="path1118-4" data-name="path1118" class="cls-3" d="M157,250.52c.19.24.43.34.67.19.68-.43.93-2.45,1.63-2.7s3.33,2.45,3.58.81c.28-1.92-.29-4.46,0-6.38a22.26,22.26,0,0,0,.1-2.58c0-.7-1.35-1.14-1.44-1.81-.36-2.59.41-4.24.85-6.26s.55-3.22,1-5.33a6.41,6.41,0,0,0,.09-2.78c-.14-.52-1.72-.38-1.74-.46a11.36,11.36,0,0,0-1.64,3l-1.21,3.64a29,29,0,0,0-.84,2.82c-.2.87-.34,1.79-.47,2.7s-.25,1.62-.35,2.44c-.13,1.08-.22,2.18-.31,3.28-.12,1.48-.1,2.9-.12,4.37a25.56,25.56,0,0,0-.1,4.34A1.77,1.77,0,0,0,157,250.52Z"/><path class="cls-5" d="M158.44,239.15s-.37,6-.49,7.58,1.82-1.52,2.48-.28c1.3,2.47,1.25-2.13,1-4.3-.14-1.25-1.38-2-1.38-2.91s.26-7.06-.3-7C159,232.41,158.44,239.15,158.44,239.15Z"/><path class="cls-6" d="M149.66,279.47c1.88-.64,4.12,3.35,6.9,4s5.06.26,3.92,3.42-1.15,6.19-2.44,6.29-2.32-1-3.48,1.45a34.28,34.28,0,0,0-2,5.49c-.13.45-2,7-3.17,6.23-1.48-1,1.84-6.09,1.94-8.23.18-4.12-2.34-12.34-2.19-16.46C149.16,281.1,149.12,279.65,149.66,279.47Z"/><path class="cls-3" d="M153.15,284.37a1.15,1.15,0,0,0-1.89,1c0,.31.08.66.14,1.06.45,2.9-.39,3.87,1.1,4s3,1.55,3.56.26,3.6-4.07,2.05-4.65-3.36-.45-4.39-1.23C153.54,284.69,153.34,284.54,153.15,284.37Z"/></g><g id="בח_א_21" data-name="בח&quot;א 21"><path class="cls-7" d="M55.06,50a9.42,9.42,0,0,0,9.41,9.42H91.68A9.34,9.34,0,0,1,101,68.73v1.86a1,1,0,0,0,1,1h0a1,1,0,0,0,1-1V50a9.41,9.41,0,0,0-9.41-9.41H64.47A9.44,9.44,0,0,0,55.06,50Z"/><path class="cls-8" d="M66.59,49.49H61.93V48.38l2.12-2.19a4.36,4.36,0,0,0,.43-.53,2.13,2.13,0,0,0,.24-.43,1,1,0,0,0,.08-.34.87.87,0,0,0-.17-.59.61.61,0,0,0-.49-.19.59.59,0,0,0-.37.12.86.86,0,0,0-.25.34,1.24,1.24,0,0,0-.09.48H61.79a2.11,2.11,0,0,1,.31-1.13,2.14,2.14,0,0,1,.84-.82,2.38,2.38,0,0,1,1.24-.31,2.46,2.46,0,0,1,1.69.51,1.83,1.83,0,0,1,.57,1.44,2.26,2.26,0,0,1-.19.89,3.89,3.89,0,0,1-.55.84c-.24.29-.53.6-.87,1l-.75.75h2.51Z"/><path class="cls-8" d="M70.81,49.49H69.17V44.81l-1.47.4V43.92l3-1h.15Z"/><path class="cls-8" d="M78.8,49.49,75.07,44H77l3.72,5.49Zm-3.49,0V47.76a2.67,2.67,0,0,1,.29-1.36,1.88,1.88,0,0,1,1-.73l.59.86A.61.61,0,0,0,77,47v2.5ZM80.78,44,79,47.54,77.9,46.18l1-2.18Z"/><path class="cls-8" d="M81.6,44a1.76,1.76,0,0,1,.12-.63,2.76,2.76,0,0,1,.33-.61,2.2,2.2,0,0,1,.41-.48l.71.38a5.09,5.09,0,0,0-.26.57,2.21,2.21,0,0,0-.12.78v.77H81.6Zm1.65,0a1.76,1.76,0,0,1,.12-.63,2.76,2.76,0,0,1,.33-.61,2.2,2.2,0,0,1,.41-.48l.71.38a5.09,5.09,0,0,0-.26.57,2.21,2.21,0,0,0-.12.78v.77H83.25Z"/><path class="cls-8" d="M85.88,49.49V44h2.54a2.28,2.28,0,0,1,1.63.53,2,2,0,0,1,.57,1.54v3.42H88.91V45.92a.64.64,0,0,0-.13-.44.43.43,0,0,0-.35-.15h-.83v4.16Z"/><path class="cls-8" d="M91.4,49.49V48.16h2.48l1.72,0,.62.1v1.28Zm2.48-.4V45.9a.52.52,0,0,0-.16-.42.68.68,0,0,0-.47-.15H91.7V44h1.68a2.34,2.34,0,0,1,1.62.53A1.84,1.84,0,0,1,95.6,46v3.11Z"/><path class="cls-8" d="M82.66,55.19V53.55H82v-.3H83v1.94Z"/><path class="cls-8" d="M84.25,56.84l-.28,0-.24,0,0-.3a1.89,1.89,0,0,0,.44,0,.51.51,0,0,0,.4-.15.74.74,0,0,0,.14-.48V53.55H84v-.3H85.1v2.66a1,1,0,0,1-.22.7A.85.85,0,0,1,84.25,56.84Z"/><path class="cls-8" d="M86.92,56.82a2.56,2.56,0,0,1-.47,0,3.36,3.36,0,0,1-.5-.13l.06-.28a2.89,2.89,0,0,0,.91.14,1.17,1.17,0,0,0,.8-.28,1,1,0,0,0,.28-.76V53.55H86v-.3h2.34v2.12a1.67,1.67,0,0,1-.18.81,1.11,1.11,0,0,1-.5.48A1.71,1.71,0,0,1,86.92,56.82Z"/><path class="cls-8" d="M90.84,56.84a1.46,1.46,0,0,1-.71-.17,1.27,1.27,0,0,1-.47-.48,1.46,1.46,0,0,1-.17-.71V53.25h.37v2.23a1.07,1.07,0,0,0,.27.76.94.94,0,0,0,.71.29.92.92,0,0,0,.7-.29,1.07,1.07,0,0,0,.27-.76V54.21a.82.82,0,0,0-.13-.51.48.48,0,0,0-.39-.17,1.09,1.09,0,0,0-.26,0,1.3,1.3,0,0,0-.27.1l-.07-.26a1.61,1.61,0,0,1,.33-.15,1.34,1.34,0,0,1,.35,0,.75.75,0,0,1,.6.24,1.1,1.1,0,0,1,.21.72v1.3a1.46,1.46,0,0,1-.17.71,1.27,1.27,0,0,1-.47.48A1.42,1.42,0,0,1,90.84,56.84Z"/><path class="cls-8" d="M95.35,56.78V54.6a1.09,1.09,0,0,0-.24-.8,1,1,0,0,0-.79-.25H93.13v-.3h1.2a1.47,1.47,0,0,1,1,.33,1.35,1.35,0,0,1,.34,1v2.18Zm-2.21,0V55.57a2.45,2.45,0,0,1,0-.44c0-.1.06-.2.1-.3h.31a3,3,0,0,0-.07.32c0,.11,0,.25,0,.42v1.21Z"/></g><g id="כנף_1" data-name="כנף 1"><path class="cls-7" d="M153,66.23a9.42,9.42,0,0,1-9.42,9.42H125.16A9.34,9.34,0,0,0,115.82,85v1.85a1,1,0,0,1-1,1h0a1,1,0,0,1-1-1V66.23a9.41,9.41,0,0,1,9.42-9.41h20.3A9.44,9.44,0,0,1,153,66.23Z"/><path class="cls-8" d="M125.83,65.92h-1.64V61.25l-1.47.39V60.36l3-1h.15Z"/><path class="cls-8" d="M135,60.44v7.37h-1.69V61.76h-1c0,.12-.05.23-.07.33s0,.22,0,.32a2.83,2.83,0,0,0,0,.29v.38l.21,0h.16v1.08a2.28,2.28,0,0,1-.7.08,3.38,3.38,0,0,1-.72-.1,1.94,1.94,0,0,1-.6-.25V63.3a3.64,3.64,0,0,1,0-.57,3,3,0,0,1,.1-.54,2.57,2.57,0,0,1,.17-.43h-.52V60.44Z"/><path class="cls-8" d="M137.08,66a4.24,4.24,0,0,1-.53,0c-.17,0-.36-.06-.59-.11V64.6c.23,0,.45,0,.66,0a.51.51,0,0,0,.42-.16.72.72,0,0,0,.13-.46V61.76h-.91V60.44h2.63v3.72a1.88,1.88,0,0,1-.48,1.36A1.76,1.76,0,0,1,137.08,66Z"/><path class="cls-8" d="M141.45,66a5.3,5.3,0,0,1-.77-.06c-.27,0-.56-.08-.85-.14l.26-1.24a6.77,6.77,0,0,0,1.11.13,1.29,1.29,0,0,0,.9-.26,1,1,0,0,0,.27-.76V61.76h-2.31V60.44h4v3a3.13,3.13,0,0,1-.32,1.51,2,2,0,0,1-.92.83A3.7,3.7,0,0,1,141.45,66Z"/><path class="cls-8" d="M124.88,69.68h2.72V70H127v3.22h-.37V70h-1.78Z"/><path class="cls-8" d="M128.55,73.21V70h-.46v-.31h.83v3.53Z"/><path class="cls-8" d="M129.66,69.68h2.72V70h-.57v3.22h-.37V70h-1.78Z"/><path class="cls-8" d="M136,69.68a1.44,1.44,0,0,1,1,.33,1.39,1.39,0,0,1,.34,1v2.17H137V71a1.18,1.18,0,0,0-.23-.8A1.07,1.07,0,0,0,136,70h-.52a1.2,1.2,0,0,0-.2.44,2.35,2.35,0,0,0-.08.6v1.28A1,1,0,0,1,135,73a.77.77,0,0,1-.6.23h-.3V72.9h.22a.5.5,0,0,0,.41-.14.76.76,0,0,0,.12-.47V71.05a2.47,2.47,0,0,1,.08-.6,1.16,1.16,0,0,1,.23-.46h-.72v-.31Z"/><path class="cls-8" d="M138.4,73.21l.29-2.38a1.29,1.29,0,0,1,.15-.47.86.86,0,0,1,.29-.33l0,0,0,0h0l-.36.07-.45.13-.09-.29a5.07,5.07,0,0,1,.5-.14,4.89,4.89,0,0,1,.53-.09l.5,0a1.38,1.38,0,0,1,1,.36,1.46,1.46,0,0,1,.36,1.07v2.15H139.8v-.3h1V71a1.13,1.13,0,0,0-.25-.8.94.94,0,0,0-.72-.27.68.68,0,0,0-.54.24,1,1,0,0,0-.27.62l-.3,2.4Z"/><path class="cls-8" d="M143.82,73.21V70.68a.69.69,0,0,0-.19-.5.66.66,0,0,0-.5-.19h-1.26v-.31h1.25a1.05,1.05,0,0,1,.78.28,1,1,0,0,1,.28.76v2.49Z"/></g><g id="ממח_א_111" data-name="ממח&quot;א 111"><path class="cls-7" d="M18,163.15a9.42,9.42,0,0,0,9.41,9.42H68.42a9.34,9.34,0,0,1,9.33,9.34v1.86a1,1,0,0,0,1,1h0a1,1,0,0,0,1-1V163.15a9.41,9.41,0,0,0-9.41-9.41H27.36A9.42,9.42,0,0,0,18,163.15Z"/><path class="cls-8" d="M29,162.67H27.34V158l-1.48.4V157.1l3-1H29Z"/><path class="cls-8" d="M34.38,162.67H32.74V158l-1.47.4V157.1l3-1h.15Z"/><path class="cls-8" d="M39.79,162.67H38.15V158l-1.48.4V157.1l3-1h.15Z"/><path class="cls-8" d="M47.77,162.67l-3.72-5.49H46l3.72,5.49Zm-3.49,0v-1.73a2.56,2.56,0,0,1,.3-1.36,1.8,1.8,0,0,1,1-.73l.59.86a.6.6,0,0,0-.21.46v2.5Zm5.47-5.49L48,160.72l-1.1-1.36.95-2.18Z"/><path class="cls-8" d="M50.57,157.22a1.87,1.87,0,0,1,.13-.64A3.24,3.24,0,0,1,51,156a2.76,2.76,0,0,1,.41-.47l.71.38c-.09.17-.17.36-.26.57a2.21,2.21,0,0,0-.12.78V158H50.57Zm1.66,0a1.85,1.85,0,0,1,.12-.64,3.24,3.24,0,0,1,.32-.61,2.76,2.76,0,0,1,.41-.47l.71.38a5.12,5.12,0,0,0-.25.57,2,2,0,0,0-.13.78V158H52.23Z"/><path class="cls-8" d="M54.85,162.67v-5.49H57.4a2.3,2.3,0,0,1,1.63.53,2,2,0,0,1,.56,1.54v3.42H57.88v-3.58a.69.69,0,0,0-.13-.43.44.44,0,0,0-.35-.15h-.84v4.16Z"/><path class="cls-8" d="M60.82,162.67l.33-2.89a2.84,2.84,0,0,1,.16-.7,1.76,1.76,0,0,1,.31-.53s0,0,0,0l0,0v0l-.39.09-.34.13-.36-1.23a5.08,5.08,0,0,1,.8-.23,9,9,0,0,1,.93-.16,7.5,7.5,0,0,1,.93-.06,2.73,2.73,0,0,1,2,.67,2.65,2.65,0,0,1,.69,1.95v3H63.44v-1.33h.76V159.4a1.37,1.37,0,0,0-.16-.72.52.52,0,0,0-.46-.27.6.6,0,0,0-.54.29,2,2,0,0,0-.23.84l-.28,3.13Z"/><path class="cls-8" d="M67.14,162.67l.33-2.89a2.47,2.47,0,0,1,.17-.7,1.57,1.57,0,0,1,.3-.53l0,0,0,0v0l-.39.09-.34.13-.35-1.23a4.66,4.66,0,0,1,.79-.23,9,9,0,0,1,.93-.16,7.5,7.5,0,0,1,.93-.06,2.72,2.72,0,0,1,2,.67,2.61,2.61,0,0,1,.69,1.95v3H69.77v-1.33h.75V159.4a1.37,1.37,0,0,0-.16-.72.51.51,0,0,0-.46-.27.6.6,0,0,0-.54.29,2,2,0,0,0-.22.84l-.29,3.13Z"/><path class="cls-8" d="M59.83,170v-2.19a1.13,1.13,0,0,0-.24-.8,1.1,1.1,0,0,0-.79-.24H57.61v-.3h1.2a1.43,1.43,0,0,1,1,.33,1.34,1.34,0,0,1,.35,1V170Zm-2.21,0v-1.21a1.78,1.78,0,0,1,0-.44,1.71,1.71,0,0,1,.09-.3h.31c0,.1,0,.2-.06.32s0,.25,0,.42V170Z"/><path class="cls-8" d="M61.57,168.37v-1.64h-.69v-.3h1.06v1.94Z"/><path class="cls-8" d="M64.58,170v-2.53a.73.73,0,0,0-.19-.51.66.66,0,0,0-.5-.19H62.63v-.3h1.25a1.09,1.09,0,0,1,.78.27,1,1,0,0,1,.28.76V170Z"/><path class="cls-8" d="M67.14,170v-.31a1.16,1.16,0,0,0,.77-.29.91.91,0,0,0,.29-.72v-1.91H66v-.3h2.6v2.2a1.32,1.32,0,0,1-.17.7,1.15,1.15,0,0,1-.5.45A1.93,1.93,0,0,1,67.14,170Zm-1.09,1.25v-2.63a2.46,2.46,0,0,1,0-.43l.09-.3h.32a1.55,1.55,0,0,0-.06.31,2.68,2.68,0,0,0,0,.42v2.63Z"/><path class="cls-8" d="M71.83,170v-2.19a1.13,1.13,0,0,0-.24-.8,1.08,1.08,0,0,0-.79-.24H69.61v-.3h1.2a1.47,1.47,0,0,1,1,.33,1.34,1.34,0,0,1,.34,1V170Zm-2.2,0v-1.21a2.59,2.59,0,0,1,0-.44c0-.1.06-.2.1-.3h.31a1.52,1.52,0,0,0-.06.32,2.56,2.56,0,0,0,0,.42V170Z"/></g><g id="בח_א_30" data-name="בח&quot;א 30"><path class="cls-7" d="M10.76,200.75a9.42,9.42,0,0,0,9.41,9.43H50.38a9.32,9.32,0,0,1,9.33,9.33v1.86a1,1,0,0,0,1,1h0a1,1,0,0,0,1-1V200.75a9.41,9.41,0,0,0-9.41-9.41H20.17a9.42,9.42,0,0,0-9.41,9.41Z"/><path class="cls-8" d="M21.78,196.69h1a3.58,3.58,0,0,1,.9.11,2.14,2.14,0,0,1,.7.32,1.46,1.46,0,0,1,.46.53,1.81,1.81,0,0,1,.16.76,1.74,1.74,0,0,1-.33,1.06,2,2,0,0,1-.9.66,3.47,3.47,0,0,1-2.11.12,2.49,2.49,0,0,1-.76-.34,1.86,1.86,0,0,1-.55-.6,1.8,1.8,0,0,1-.21-.89h1.64a.51.51,0,0,0,.11.31.71.71,0,0,0,.28.23.79.79,0,0,0,.38.09.83.83,0,0,0,.6-.21.67.67,0,0,0,.22-.47,1,1,0,0,0-.11-.5.53.53,0,0,0-.29-.26,1.28,1.28,0,0,0-.47-.08h-.76Zm.76-.42a.89.89,0,0,0,.43-.09.63.63,0,0,0,.25-.26,1,1,0,0,0,.08-.41.66.66,0,0,0-.07-.3A.59.59,0,0,0,23,195a.79.79,0,0,0-.4-.09,1.19,1.19,0,0,0-.32.05.65.65,0,0,0-.25.17.34.34,0,0,0-.11.25H20.28a1.53,1.53,0,0,1,.32-1,2,2,0,0,1,.83-.61,2.89,2.89,0,0,1,1.11-.21,3.24,3.24,0,0,1,1.25.22,1.84,1.84,0,0,1,.85.64,1.73,1.73,0,0,1,.3,1,1.33,1.33,0,0,1-.16.65,1.74,1.74,0,0,1-.45.53,2.14,2.14,0,0,1-.67.35,2.84,2.84,0,0,1-.84.12h-1v-.85Z"/><path class="cls-8" d="M30.43,197.59a3.51,3.51,0,0,1-.3,1.55,2.06,2.06,0,0,1-.82.92,2.39,2.39,0,0,1-1.21.3,2.41,2.41,0,0,1-1.21-.3,2,2,0,0,1-.82-.92,3.51,3.51,0,0,1-.3-1.55v-1.24a3.7,3.7,0,0,1,.29-1.55,2.06,2.06,0,0,1,.82-.92,2.41,2.41,0,0,1,1.21-.3,2.39,2.39,0,0,1,1.21.3,2.08,2.08,0,0,1,.83.92,3.54,3.54,0,0,1,.3,1.55Zm-1.64-1.45a2.47,2.47,0,0,0-.09-.75.66.66,0,0,0-.24-.38.56.56,0,0,0-.37-.11.55.55,0,0,0-.36.11.73.73,0,0,0-.25.38,2.9,2.9,0,0,0-.08.75v1.66a2.58,2.58,0,0,0,.09.76.78.78,0,0,0,.24.38.65.65,0,0,0,.37.11.67.67,0,0,0,.37-.11.71.71,0,0,0,.23-.38,2.58,2.58,0,0,0,.09-.76Z"/><path class="cls-8" d="M37.24,200.27l-3.73-5.49h1.92l3.72,5.49Zm-3.49,0v-1.73a2.67,2.67,0,0,1,.29-1.36,1.81,1.81,0,0,1,1-.72l.59.85a.62.62,0,0,0-.21.46v2.5Zm5.47-5.49-1.77,3.54L36.34,197l1-2.18Z"/><path class="cls-8" d="M40,194.82a1.62,1.62,0,0,1,.13-.63,2.73,2.73,0,0,1,.32-.61,2.85,2.85,0,0,1,.41-.48l.71.39a4.21,4.21,0,0,0-.26.56,2.21,2.21,0,0,0-.12.78v.77H40Zm1.65,0a1.62,1.62,0,0,1,.13-.63,2.73,2.73,0,0,1,.32-.61,2.85,2.85,0,0,1,.41-.48l.71.39a4.21,4.21,0,0,0-.26.56,2.21,2.21,0,0,0-.12.78v.77H41.69Z"/><path class="cls-8" d="M44.32,200.27v-5.49h2.55a2.32,2.32,0,0,1,1.63.53,2,2,0,0,1,.56,1.54v3.42H47.35V196.7a.64.64,0,0,0-.13-.44.42.42,0,0,0-.34-.15H46v4.16Z"/><path class="cls-8" d="M49.84,200.27v-1.33h2.48l1.72-.05.63.11v1.27Zm2.48-.4v-3.19a.54.54,0,0,0-.16-.42.68.68,0,0,0-.47-.15H50.14v-1.33h1.68a2.39,2.39,0,0,1,1.63.53,1.87,1.87,0,0,1,.59,1.46v3.1Z"/><path class="cls-8" d="M35.31,207.56V204H38v3.53Zm.37-.31h2v-2.92h-2Z"/><path class="cls-8" d="M39.46,206v-1.64h-.7V204h1.07V206Z"/><path class="cls-8" d="M40.91,207.56V204h1.22a1.47,1.47,0,0,1,1,.33,1.4,1.4,0,0,1,.34,1v2.17h-.37v-2.18a1.11,1.11,0,0,0-.24-.8,1,1,0,0,0-.77-.25h-.86v3.23Z"/><path class="cls-8" d="M44.55,207.56l.29-2.38a1.24,1.24,0,0,1,.15-.47.85.85,0,0,1,.28-.33l0,0,0,0h0l-.36.08c-.14,0-.29.08-.45.13l-.09-.29a5.07,5.07,0,0,1,.5-.14,4.51,4.51,0,0,1,.53-.09,2.93,2.93,0,0,1,.49,0,1.35,1.35,0,0,1,1,.37,1.43,1.43,0,0,1,.36,1.06v2.16H46v-.31h1v-1.88a1.11,1.11,0,0,0-.25-.8,1,1,0,0,0-.73-.27.7.7,0,0,0-.53.23,1.07,1.07,0,0,0-.27.63l-.3,2.4Z"/><path class="cls-8" d="M48.12,204.33v-1.42h.37V204h2v.3Zm2.58-.08-1.36,3.31h-.4L50.41,204h.29Z"/><path class="cls-8" d="M52.62,207.61a3.14,3.14,0,0,1-.51-.05,4,4,0,0,1-.55-.14l.08-.28.52.12.46,0a1.16,1.16,0,0,0,.82-.27,1,1,0,0,0,.3-.77v-1.92H52.15a1.58,1.58,0,0,0-.2.47,2.38,2.38,0,0,0-.07.59v.31a.7.7,0,0,0,.23.06l.39,0v.33l-.42,0a1.33,1.33,0,0,1-.3-.06,1.92,1.92,0,0,1-.27-.11v-.47a2.49,2.49,0,0,1,.08-.61,1.73,1.73,0,0,1,.23-.51h-.4V204H54.1v2.13a1.61,1.61,0,0,1-.18.8,1.23,1.23,0,0,1-.52.49A1.87,1.87,0,0,1,52.62,207.61Z"/></g><g id="בח_א_8" data-name="בח&quot;א 8"><path class="cls-7" d="M134.31,182.25a9.42,9.42,0,0,1-9.41,9.43H97A9.33,9.33,0,0,0,87.66,201v1.86a1,1,0,0,1-1,1h0a1,1,0,0,1-1-1V182.25a9.41,9.41,0,0,1,9.41-9.41H124.9a9.44,9.44,0,0,1,9.41,9.41Z"/><path class="cls-8" d="M100.21,179.94a1.79,1.79,0,0,1-.3,1.06,1.84,1.84,0,0,1-.82.65,3.16,3.16,0,0,1-1.19.21,3.19,3.19,0,0,1-1.19-.21,1.89,1.89,0,0,1-.84-.65,1.8,1.8,0,0,1-.31-1.06,1.65,1.65,0,0,1,.31-1,2,2,0,0,1,.84-.64,3.3,3.3,0,0,1,2.37,0,1.92,1.92,0,0,1,.83.64A1.65,1.65,0,0,1,100.21,179.94Zm-.13-3a1.51,1.51,0,0,1-.28.91,1.73,1.73,0,0,1-.77.6,2.65,2.65,0,0,1-1.13.22,2.76,2.76,0,0,1-1.14-.22,1.82,1.82,0,0,1-.78-.6,1.58,1.58,0,0,1-.28-.91,1.84,1.84,0,0,1,.28-1,1.74,1.74,0,0,1,.78-.63,2.68,2.68,0,0,1,1.13-.22,2.73,2.73,0,0,1,1.14.22,1.71,1.71,0,0,1,.77.63A1.84,1.84,0,0,1,100.08,177Zm-1.51,2.84a.92.92,0,0,0-.08-.4.58.58,0,0,0-.24-.25.69.69,0,0,0-.36-.09.74.74,0,0,0-.36.09.58.58,0,0,0-.24.25.92.92,0,0,0-.08.4,1,1,0,0,0,.08.4.63.63,0,0,0,.25.26.7.7,0,0,0,.72,0,.58.58,0,0,0,.23-.26A1,1,0,0,0,98.57,179.79Zm-.13-2.74a1,1,0,0,0-.06-.36.44.44,0,0,0-.18-.22.64.64,0,0,0-.62,0,.44.44,0,0,0-.18.22,1,1,0,0,0-.06.36,1,1,0,0,0,.06.36.55.55,0,0,0,.81.24.55.55,0,0,0,.18-.24A1,1,0,0,0,98.44,177.05Z"/><path class="cls-8" d="M107,181.77l-3.72-5.49h1.91l3.72,5.49Zm-3.48,0V180a2.57,2.57,0,0,1,.29-1.36,1.81,1.81,0,0,1,1-.72l.58.85a.62.62,0,0,0-.21.46v2.5Zm5.47-5.49-1.77,3.54-1.11-1.36,1-2.18Z"/><path class="cls-8" d="M109.84,176.32a1.8,1.8,0,0,1,.12-.63,2.73,2.73,0,0,1,.32-.61,2.85,2.85,0,0,1,.41-.48l.72.39a3.24,3.24,0,0,0-.26.56,2.21,2.21,0,0,0-.12.78v.77h-1.19Zm1.65,0a1.8,1.8,0,0,1,.12-.63,3.21,3.21,0,0,1,.32-.61,3.41,3.41,0,0,1,.41-.48l.72.39a4.21,4.21,0,0,0-.26.56,2.21,2.21,0,0,0-.12.78v.77h-1.19Z"/><path class="cls-8" d="M114.11,181.77v-5.49h2.54a2.28,2.28,0,0,1,1.63.53,2,2,0,0,1,.57,1.54v3.42h-1.71V178.2a.64.64,0,0,0-.13-.44.43.43,0,0,0-.35-.15h-.83v4.16Z"/><path class="cls-8" d="M119.64,181.77v-1.33h2.48l1.72-.05.62.11v1.27Zm2.48-.4v-3.19a.54.54,0,0,0-.17-.42.65.65,0,0,0-.47-.15h-1.54v-1.33h1.67a2.37,2.37,0,0,1,1.63.53,1.84,1.84,0,0,1,.6,1.46v3.1Z"/><path class="cls-8" d="M111.67,185.53v4.79h-.37v-4.49h-1.38a1.39,1.39,0,0,0-.14.32,2.24,2.24,0,0,0-.1.41,3,3,0,0,0,0,.41v.38a.84.84,0,0,0,.24.06l.39,0v.33l-.42,0a1.33,1.33,0,0,1-.3-.06,1.4,1.4,0,0,1-.27-.11V187a3.37,3.37,0,0,1,0-.44,2.7,2.7,0,0,1,.12-.43,1.55,1.55,0,0,1,.16-.34h-.4v-.3Z"/><path class="cls-8" d="M113,189.06v-3.23h-.46v-.3h.83v3.53Z"/><path class="cls-8" d="M114.62,189.12l-.27,0-.25,0,0-.3a1.92,1.92,0,0,0,.45,0,.52.52,0,0,0,.4-.15.71.71,0,0,0,.13-.48v-2.34h-.77v-.3h1.14v2.67a1,1,0,0,1-.22.69A.82.82,0,0,1,114.62,189.12Z"/><path class="cls-8" d="M117.82,185.83v-1.42h.37v1.12h2v.3Zm2.58-.08L119,189.06h-.4l1.47-3.53h.29Z"/><path class="cls-8" d="M122.57,185.53a1.47,1.47,0,0,1,1.05.33,1.4,1.4,0,0,1,.34,1v2.17h-.37v-2.18a1.11,1.11,0,0,0-.24-.8,1,1,0,0,0-.77-.25h-.52a1.35,1.35,0,0,0-.21.45,2.35,2.35,0,0,0-.07.6v1.28a1,1,0,0,1-.21.69.78.78,0,0,1-.61.23h-.14l-.15,0v-.3h.22a.5.5,0,0,0,.41-.15.74.74,0,0,0,.12-.47V186.9a2.09,2.09,0,0,1,.08-.61,1.41,1.41,0,0,1,.22-.46H121v-.3Z"/></g><g id="כנף_4" data-name="כנף 4"><path class="cls-7" d="M90.23,237.91a9.43,9.43,0,0,1-9.42,9.43H60a9.33,9.33,0,0,0-9.33,9.33v1.86a1,1,0,0,1-1,1h0a1,1,0,0,1-1-1V237.91a9.41,9.41,0,0,1,9.41-9.41H80.81a9.44,9.44,0,0,1,9.42,9.41Z"/><path class="cls-8" d="M61.49,236.08H56.72l-.1-1.06,2.61-4.19h1.29l-1.37,2.35-1,1.58h3.32Zm-.63,1.35H59.22v-6.6h1.64Z"/><path class="cls-8" d="M69.38,231.94v7.38h-1.7v-6h-1a1.94,1.94,0,0,0-.07.33c0,.11,0,.21,0,.31s0,.2,0,.3v.38l.2,0h.16v1.08a2.64,2.64,0,0,1-.7.08,3.38,3.38,0,0,1-.72-.1,2.05,2.05,0,0,1-.6-.26v-.6c0-.19,0-.39,0-.58a3,3,0,0,1,.11-.54,1.36,1.36,0,0,1,.17-.42h-.53v-1.33Z"/><path class="cls-8" d="M71.48,237.52a4.63,4.63,0,0,1-.54,0l-.59-.11V236.1a4.82,4.82,0,0,0,.65,0,.54.54,0,0,0,.42-.15.68.68,0,0,0,.13-.46v-2.26h-.91v-1.33h2.63v3.72A2,2,0,0,1,72.8,237,1.75,1.75,0,0,1,71.48,237.52Z"/><path class="cls-8" d="M75.85,237.52a7.11,7.11,0,0,1-.78-.05c-.27,0-.55-.08-.84-.14l.25-1.25a7,7,0,0,0,1.11.14,1.34,1.34,0,0,0,.9-.26,1,1,0,0,0,.27-.76v-1.93H74.45v-1.33h4v3a3.06,3.06,0,0,1-.33,1.52,2,2,0,0,1-.92.83A3.43,3.43,0,0,1,75.85,237.52Z"/><path class="cls-8" d="M69.58,244.72v-2.53a.65.65,0,0,0-.69-.7H67.64v-.3h1.24a1.1,1.1,0,0,1,.79.27,1,1,0,0,1,.28.77v2.49Z"/><path class="cls-8" d="M71.22,244.72v-3.23h-.47v-.3h.84v3.53Z"/><path class="cls-8" d="M72.55,244.72v-.31h2l-2.22-3.22h.42l1.14,1.68,1.14,1.64v.21ZM74,243.18l-.22-.3,1-1.69h.42Z"/><path class="cls-8" d="M76,244.72v-3.53h1.22a1.47,1.47,0,0,1,1,.33,1.42,1.42,0,0,1,.34,1v2.17h-.37v-2.18a1.11,1.11,0,0,0-.24-.8,1,1,0,0,0-.77-.25h-.87v3.23Z"/></g><g id="בח_א_28" data-name="בח&quot;א 28"><path class="cls-7" d="M151.46,289.42a9.42,9.42,0,0,1-9.41,9.43H111.6a9.33,9.33,0,0,0-9.33,9.33V310a1,1,0,0,1-1,1h0a1,1,0,0,1-1-1V289.42a9.41,9.41,0,0,1,9.41-9.41h32.31a9.44,9.44,0,0,1,9.41,9.41Z"/><path class="cls-8" d="M111.68,288.94H107v-1.1l2.12-2.2a4.36,4.36,0,0,0,.43-.53,2.13,2.13,0,0,0,.24-.43,1,1,0,0,0,.08-.34.88.88,0,0,0-.17-.59.61.61,0,0,0-.49-.19.54.54,0,0,0-.37.13.74.74,0,0,0-.25.34,1.21,1.21,0,0,0-.09.48h-1.64a2.12,2.12,0,0,1,.31-1.14,2.21,2.21,0,0,1,.84-.82,2.87,2.87,0,0,1,2.93.2,1.83,1.83,0,0,1,.57,1.44,2.22,2.22,0,0,1-.19.89,3.66,3.66,0,0,1-.55.84c-.24.29-.53.61-.87.95l-.75.76h2.51Z"/><path class="cls-8" d="M117.06,287.11a1.82,1.82,0,0,1-.3,1.07,1.89,1.89,0,0,1-.82.64,3.12,3.12,0,0,1-1.19.21,3.19,3.19,0,0,1-1.19-.21,2,2,0,0,1-.84-.64,1.82,1.82,0,0,1-.3-1.07,1.61,1.61,0,0,1,.31-1,1.92,1.92,0,0,1,.83-.64,3.3,3.3,0,0,1,2.37,0,1.92,1.92,0,0,1,.83.64A1.67,1.67,0,0,1,117.06,287.11Zm-.13-3a1.51,1.51,0,0,1-.28.91,1.76,1.76,0,0,1-.76.6,3,3,0,0,1-2.27,0,1.76,1.76,0,0,1-.78-.6,1.52,1.52,0,0,1-.29-.91,1.86,1.86,0,0,1,.28-1,1.74,1.74,0,0,1,.78-.63,3,3,0,0,1,2.27,0,1.71,1.71,0,0,1,.77.63A1.78,1.78,0,0,1,116.93,284.12ZM115.42,287a.82.82,0,0,0-.08-.4.58.58,0,0,0-.24-.25.68.68,0,0,0-.36-.08.67.67,0,0,0-.35.08.6.6,0,0,0-.25.25,1,1,0,0,0,0,.8.57.57,0,0,0,.25.26.7.7,0,0,0,.72,0,.53.53,0,0,0,.23-.26A.82.82,0,0,0,115.42,287Zm-.12-2.74a1,1,0,0,0-.06-.36.59.59,0,0,0-.19-.22.57.57,0,0,0-.31-.08.62.62,0,0,0-.31.08.49.49,0,0,0-.18.22,1,1,0,0,0-.06.36,1,1,0,0,0,.06.36.5.5,0,0,0,.19.24.52.52,0,0,0,.31.09.5.5,0,0,0,.31-.09.55.55,0,0,0,.18-.24A1,1,0,0,0,115.3,284.22Z"/><path class="cls-8" d="M123.89,288.94l-3.73-5.48h1.92l3.72,5.48Zm-3.49,0v-1.73a2.67,2.67,0,0,1,.29-1.36,1.81,1.81,0,0,1,1-.72l.59.85a.63.63,0,0,0-.22.46v2.5Zm5.47-5.48L124.1,287,123,285.63l1-2.17Z"/><path class="cls-8" d="M126.69,283.5a1.81,1.81,0,0,1,.12-.64,2.76,2.76,0,0,1,.33-.61,2.46,2.46,0,0,1,.41-.48l.71.39a4.21,4.21,0,0,0-.26.56,2.24,2.24,0,0,0-.12.78v.78h-1.19Zm1.65,0a1.81,1.81,0,0,1,.12-.64,2.76,2.76,0,0,1,.33-.61,2.46,2.46,0,0,1,.41-.48l.71.39a4.21,4.21,0,0,0-.26.56,2.24,2.24,0,0,0-.12.78v.78h-1.19Z"/><path class="cls-8" d="M131,288.94v-5.48h2.54a2.32,2.32,0,0,1,1.64.52,2,2,0,0,1,.56,1.54v3.42H134v-3.57a.66.66,0,0,0-.13-.44.43.43,0,0,0-.35-.15h-.83v4.16Z"/><path class="cls-8" d="M136.49,288.94v-1.33H139l1.72-.05.62.11v1.27Zm2.48-.4v-3.19a.54.54,0,0,0-.16-.42.68.68,0,0,0-.47-.15h-1.55v-1.32h1.68a2.34,2.34,0,0,1,1.62.52,1.86,1.86,0,0,1,.6,1.46v3.1Z"/><path class="cls-8" d="M127.26,296.23V292.7H130v3.53Zm.37-.31h2V293h-2Z"/><path class="cls-8" d="M131.41,294.64V293h-.69v-.3h1.06v1.94Z"/><path class="cls-8" d="M134.2,296.29a1.45,1.45,0,0,1-.7-.17,1.15,1.15,0,0,1-.47-.48,1.46,1.46,0,0,1-.17-.71V292.7h.37v2.23a1.07,1.07,0,0,0,.27.76.89.89,0,0,0,.7.29.91.91,0,0,0,.71-.29,1.07,1.07,0,0,0,.27-.76v-1.27a.79.79,0,0,0-.13-.5.45.45,0,0,0-.39-.17,1.09,1.09,0,0,0-.26,0,1.81,1.81,0,0,0-.27.1l-.07-.26a1.56,1.56,0,0,1,.33-.14,1.27,1.27,0,0,1,.34-.05.74.74,0,0,1,.61.25,1.11,1.11,0,0,1,.2.71v1.3a1.46,1.46,0,0,1-.16.71,1.15,1.15,0,0,1-.47.48A1.43,1.43,0,0,1,134.2,296.29Z"/><path class="cls-8" d="M136.22,296.23v-.31h2l.36,0,.44,0v.29Zm2-.08v-2.1a1.07,1.07,0,0,0-.25-.8,1.08,1.08,0,0,0-.79-.25h-.8v-.3h.82a1.46,1.46,0,0,1,1,.33,1.35,1.35,0,0,1,.34,1v2.1Z"/><path class="cls-8" d="M139.9,296.29l-.27,0-.25,0,0-.3a1.92,1.92,0,0,0,.45,0,.52.52,0,0,0,.4-.15.71.71,0,0,0,.13-.48V293h-.77v-.3h1.14v2.67a1,1,0,0,1-.22.69A.82.82,0,0,1,139.9,296.29Z"/></g><g id="בח_א_6" data-name="בח&quot;א 6"><path class="cls-7" d="M48.63,285.74A9.42,9.42,0,0,0,58,295.17H81.17a9.33,9.33,0,0,1,9.33,9.33v1.86a1,1,0,0,0,1,1h0a1,1,0,0,0,1-1V285.74A9.41,9.41,0,0,0,83,276.33H58a9.42,9.42,0,0,0-9.41,9.41Z"/><path class="cls-8" d="M60.31,278.55v1.34h-.09a3,3,0,0,0-.8.1,1.82,1.82,0,0,0-.65.33,1.39,1.39,0,0,0-.43.57,1.94,1.94,0,0,0-.16.84v1.2a1.83,1.83,0,0,0,.09.63.69.69,0,0,0,.25.36A.78.78,0,0,0,59,284a.61.61,0,0,0,.39-.13.89.89,0,0,0,.27-.35,1.31,1.31,0,0,0,.09-.5,1.19,1.19,0,0,0-.1-.53.79.79,0,0,0-.29-.33.88.88,0,0,0-.87,0,.71.71,0,0,0-.28.29.74.74,0,0,0-.08.35l-.39-.46a1.39,1.39,0,0,1,.1-.5,2.06,2.06,0,0,1,.34-.53,1.69,1.69,0,0,1,.56-.41,1.88,1.88,0,0,1,1.8.13,1.8,1.8,0,0,1,.63.82,2.87,2.87,0,0,1,.22,1.17,2.29,2.29,0,0,1-.3,1.17,2.15,2.15,0,0,1-.83.81,2.41,2.41,0,0,1-1.21.3,2.59,2.59,0,0,1-1-.17,2.29,2.29,0,0,1-.78-.51,2.34,2.34,0,0,1-.52-.85,3.48,3.48,0,0,1-.19-1.16v-.58a3.82,3.82,0,0,1,.29-1.52,3,3,0,0,1,.77-1.1,3.3,3.3,0,0,1,1.12-.68,3.9,3.9,0,0,1,1.32-.23Z"/><path class="cls-8" d="M68,285.26l-3.72-5.48h1.91l3.72,5.48Zm-3.49,0v-1.73a2.56,2.56,0,0,1,.3-1.36,1.75,1.75,0,0,1,1-.72l.59.85a.63.63,0,0,0-.21.46v2.5ZM70,279.78l-1.77,3.54L67.14,282l1-2.17Z"/><path class="cls-8" d="M70.83,279.82a1.66,1.66,0,0,1,.13-.64,2.73,2.73,0,0,1,.32-.61,2.85,2.85,0,0,1,.41-.48l.71.39a5.24,5.24,0,0,0-.26.57,2.18,2.18,0,0,0-.12.77v.78H70.83Zm1.65,0a1.87,1.87,0,0,1,.13-.64,2.73,2.73,0,0,1,.32-.61,2.85,2.85,0,0,1,.41-.48l.71.39a5.24,5.24,0,0,0-.26.57,2.18,2.18,0,0,0-.12.77v.78H72.48Z"/><path class="cls-8" d="M75.11,285.26v-5.48h2.55a2.31,2.31,0,0,1,1.63.52,2,2,0,0,1,.56,1.54v3.42H78.14v-3.57a.72.72,0,0,0-.12-.44.44.44,0,0,0-.35-.15h-.84v4.16Z"/><path class="cls-8" d="M80.63,285.26v-1.33h2.48l1.72,0,.63.1v1.27Zm2.48-.4v-3.19a.54.54,0,0,0-.16-.42.68.68,0,0,0-.47-.15H80.93v-1.32h1.68a2.38,2.38,0,0,1,1.63.52,1.88,1.88,0,0,1,.59,1.46v3.1Z"/><path class="cls-8" d="M70.5,292.55V289h2.72v3.53Zm.37-.31h2v-2.91h-2Z"/><path class="cls-8" d="M74.65,291v-1.63H74V289H75V291Z"/><path class="cls-8" d="M77.65,292.55V290a.63.63,0,0,0-.69-.69H75.71V289H77a1.09,1.09,0,0,1,.78.27,1,1,0,0,1,.28.77v2.49Z"/><path class="cls-8" d="M78.92,292.55v-.31h2L78.75,289h.42l1.14,1.68,1.13,1.64v.21ZM80.36,291l-.23-.3,1-1.69h.42Z"/><path class="cls-8" d="M82.34,292.55V289h1.22a1.43,1.43,0,0,1,1,.33,1.38,1.38,0,0,1,.34,1v2.17h-.36v-2.18a1.11,1.11,0,0,0-.24-.8,1.07,1.07,0,0,0-.78-.24h-.86v3.22Z"/></g><g id="ביסל_א" data-name="ביסל&quot;א"><path class="cls-7" d="M50.06,327.19a9.42,9.42,0,0,0,9.41,9.43H84.61A9.33,9.33,0,0,1,93.94,346v1.86a1,1,0,0,0,1,1h0a1,1,0,0,0,1-1V327.19a9.41,9.41,0,0,0-9.41-9.41h-27a9.42,9.42,0,0,0-9.41,9.41Z"/><path class="cls-8" d="M62.83,329.61l-3.73-5.48H61l3.72,5.48Zm-3.49,0v-1.73a2.67,2.67,0,0,1,.29-1.36,1.81,1.81,0,0,1,1-.72l.59.85a.62.62,0,0,0-.21.46v2.5Zm5.47-5.48L63,327.67l-1.11-1.37,1-2.17Z"/><path class="cls-8" d="M65.63,324.17a1.63,1.63,0,0,1,.13-.64,2.73,2.73,0,0,1,.32-.61,2.46,2.46,0,0,1,.41-.48l.71.39a4.21,4.21,0,0,0-.26.56,2.24,2.24,0,0,0-.12.78V325H65.63Zm1.65,0a1.63,1.63,0,0,1,.13-.64,2.73,2.73,0,0,1,.32-.61,2.85,2.85,0,0,1,.41-.48l.71.39a4.21,4.21,0,0,0-.26.56,2.24,2.24,0,0,0-.12.78V325H67.28Z"/><path class="cls-8" d="M69.46,325.45v-2.8h1.72v1.48h2.34v1.32Zm4.64-.22-1.73,4.38H70.56l2.24-5.48h1.3Z"/><path class="cls-8" d="M77.52,329.73a2.55,2.55,0,0,1-1.31-.33,2.36,2.36,0,0,1-.89-.91,2.82,2.82,0,0,1-.33-1.36v-.23a2.1,2.1,0,0,1,.06-.48,2.76,2.76,0,0,1,.16-.51,2.68,2.68,0,0,1,.19-.38l0,0,0,0v0l-.3.07-.27.07-.32-1.24c.25-.07.52-.13.83-.19s.63-.09,1-.12.64,0,.93,0a3.41,3.41,0,0,1,1.51.3,2.06,2.06,0,0,1,.93.89,3.16,3.16,0,0,1,.32,1.49v.48a2.82,2.82,0,0,1-.32,1.36,2.27,2.27,0,0,1-.88.91A2.62,2.62,0,0,1,77.52,329.73Zm0-1.41a.66.66,0,0,0,.43-.15,1,1,0,0,0,.29-.42,1.85,1.85,0,0,0,.1-.61v-.46a2.46,2.46,0,0,0-.09-.73.83.83,0,0,0-.27-.44.67.67,0,0,0-.44-.15.69.69,0,0,0-.47.16.93.93,0,0,0-.27.47,2.91,2.91,0,0,0-.09.79v.36a1.63,1.63,0,0,0,.1.61,1,1,0,0,0,.28.42A.68.68,0,0,0,77.51,328.32Z"/><path class="cls-8" d="M81.47,327.29v-1.84h-.79v-1.32h2.51v3.16Z"/><path class="cls-8" d="M84.06,329.61v-1.33h2.49l1.71,0,.63.11v1.27Zm2.49-.4V326a.54.54,0,0,0-.17-.42.66.66,0,0,0-.47-.15H84.36v-1.32H86a2.38,2.38,0,0,1,1.63.52,1.85,1.85,0,0,1,.59,1.46v3.1Z"/></g><g id="כנף_25" data-name="כנף 25"><path class="cls-7" d="M130.1,363.85a9.43,9.43,0,0,1-9.41,9.43H96.55a9.33,9.33,0,0,0-9.33,9.33v1.86a1,1,0,0,1-1,1h0a1,1,0,0,1-1-1V363.85a9.41,9.41,0,0,1,9.41-9.41h26a9.44,9.44,0,0,1,9.41,9.41Z"/><path class="cls-8" d="M96,363.37H91.29v-1.1l2.12-2.19a5.29,5.29,0,0,0,.43-.54,2.13,2.13,0,0,0,.24-.43,1,1,0,0,0,.08-.34.88.88,0,0,0-.17-.59.59.59,0,0,0-.48-.19.55.55,0,0,0-.38.13.74.74,0,0,0-.25.34,1.21,1.21,0,0,0-.09.48H91.16a2.21,2.21,0,0,1,.3-1.14,2.28,2.28,0,0,1,.84-.82,2.49,2.49,0,0,1,1.25-.31,2.45,2.45,0,0,1,1.68.52,1.8,1.8,0,0,1,.57,1.43,2,2,0,0,1-.19.89,3.66,3.66,0,0,1-.55.84c-.24.29-.53.61-.87.95l-.75.76H96Z"/><path class="cls-8" d="M96.76,360.17l.41-3.4h3.92v1.32H98.5l-.14,1.14.36-.14a1.92,1.92,0,0,1,.55-.08,2.24,2.24,0,0,1,1.12.26,1.62,1.62,0,0,1,.7.76,2.9,2.9,0,0,1,.23,1.21,2.4,2.4,0,0,1-.25,1.07,2.15,2.15,0,0,1-.76.83,2.4,2.4,0,0,1-1.31.32,2.69,2.69,0,0,1-1.64-.54,2.12,2.12,0,0,1-.53-.63,1.75,1.75,0,0,1-.19-.83h1.65a.67.67,0,0,0,.2.5.7.7,0,0,0,.49.19.6.6,0,0,0,.44-.15.82.82,0,0,0,.21-.39,2,2,0,0,0,.06-.5,1.29,1.29,0,0,0-.09-.51.63.63,0,0,0-.28-.32,1,1,0,0,0-.51-.11.91.91,0,0,0-.5.11,1.17,1.17,0,0,0-.25.21Z"/><path class="cls-8" d="M109.33,357.89v7.37h-1.7v-6.05h-1a2.17,2.17,0,0,0-.07.33c0,.11,0,.21,0,.31s0,.2,0,.3v.38l.21,0h.15v1.08a2.64,2.64,0,0,1-.7.08,3.38,3.38,0,0,1-.72-.1,2.35,2.35,0,0,1-.6-.25v-.61c0-.19,0-.38,0-.57a4.29,4.29,0,0,1,.11-.54,1.43,1.43,0,0,1,.17-.43h-.53v-1.32Z"/><path class="cls-8" d="M111.43,363.46a4.63,4.63,0,0,1-.54,0l-.59-.11V362a4.93,4.93,0,0,0,.65,0,.54.54,0,0,0,.42-.15.67.67,0,0,0,.13-.46v-2.26h-.91v-1.32h2.63v3.71a1.93,1.93,0,0,1-.47,1.37A1.75,1.75,0,0,1,111.43,363.46Z"/><path class="cls-8" d="M115.8,363.46a5.27,5.27,0,0,1-.78,0c-.27,0-.55-.08-.84-.14l.25-1.24a8.08,8.08,0,0,0,1.11.13,1.34,1.34,0,0,0,.9-.26,1,1,0,0,0,.27-.76v-1.93H114.4v-1.32h4v3a3,3,0,0,1-.33,1.51,1.9,1.9,0,0,1-.92.83A3.43,3.43,0,0,1,115.8,363.46Z"/><path class="cls-8" d="M109.6,371.92v-4.48h-.47v-.31H110v4.79Z"/><path class="cls-8" d="M111.29,370.66v-3.22h-.47v-.31h.84v3.53Z"/><path class="cls-8" d="M112.75,370.66l.29-2.38a1.29,1.29,0,0,1,.15-.47.85.85,0,0,1,.28-.33.05.05,0,0,1,0,0l0,0v0l-.36.08-.44.13-.1-.29.5-.14.54-.09.49,0a1.36,1.36,0,0,1,1,.36,1.45,1.45,0,0,1,.36,1.06v2.16h-1.41v-.31h1v-1.88a1.13,1.13,0,0,0-.25-.8.91.91,0,0,0-.72-.27.74.74,0,0,0-.54.23,1.07,1.07,0,0,0-.27.63l-.29,2.4Z"/><path class="cls-8" d="M118.16,370.66v-2.53a.65.65,0,0,0-.69-.69h-1.25v-.31h1.24a1.09,1.09,0,0,1,.78.27,1,1,0,0,1,.29.77v2.49Z"/></g><g id="בח_א_10" data-name="בח&quot;א 10"><path class="cls-7" d="M144.07,451.51a9.43,9.43,0,0,1-9.42,9.42H105.21a9.34,9.34,0,0,0-9.33,9.34v1.86a1,1,0,0,1-1,1h0a1,1,0,0,1-1-1V451.51a9.41,9.41,0,0,1,9.41-9.41h31.3a9.44,9.44,0,0,1,9.42,9.41Z"/><path class="cls-8" d="M104.1,451h-1.64v-4.68l-1.47.4v-1.29l3-1h.15Z"/><path class="cls-8" d="M110.68,448.35a3.54,3.54,0,0,1-.3,1.55,2,2,0,0,1-.82.92,2.57,2.57,0,0,1-2.41,0,2,2,0,0,1-.83-.92,3.54,3.54,0,0,1-.3-1.55v-1.24a3.54,3.54,0,0,1,.3-1.55,2,2,0,0,1,.82-.92,2.39,2.39,0,0,1,1.21-.31,2.42,2.42,0,0,1,1.21.31,2.06,2.06,0,0,1,.82.92,3.54,3.54,0,0,1,.3,1.55ZM109,446.9a2.9,2.9,0,0,0-.08-.75.73.73,0,0,0-.24-.38.61.61,0,0,0-.37-.12.59.59,0,0,0-.37.12.73.73,0,0,0-.24.38,2.52,2.52,0,0,0-.08.75v1.66a2.52,2.52,0,0,0,.08.75.77.77,0,0,0,.24.39.67.67,0,0,0,.38.1.61.61,0,0,0,.36-.1.77.77,0,0,0,.24-.39,2.9,2.9,0,0,0,.08-.75Z"/><path class="cls-8" d="M117.49,451l-3.72-5.49h1.91L119.4,451ZM114,451V449.3a2.56,2.56,0,0,1,.3-1.36,1.85,1.85,0,0,1,1-.73l.59.86a.6.6,0,0,0-.21.46V451Zm5.47-5.49-1.76,3.54-1.11-1.36,1-2.18Z"/><path class="cls-8" d="M120.29,445.58a1.87,1.87,0,0,1,.13-.64,3.24,3.24,0,0,1,.32-.61,2.76,2.76,0,0,1,.41-.47l.71.38a5.12,5.12,0,0,0-.25.57,2,2,0,0,0-.13.78v.77h-1.19Zm1.65,0a1.87,1.87,0,0,1,.13-.64,3.24,3.24,0,0,1,.32-.61,2.76,2.76,0,0,1,.41-.47l.71.38a5.12,5.12,0,0,0-.25.57,2,2,0,0,0-.13.78v.77h-1.19Z"/><path class="cls-8" d="M124.57,451v-5.49h2.54a2.3,2.3,0,0,1,1.63.53,2,2,0,0,1,.56,1.54V451H127.6v-3.57a.7.7,0,0,0-.13-.44.44.44,0,0,0-.35-.15h-.84V451Z"/><path class="cls-8" d="M130.09,451V449.7h2.49l1.71-.05.63.1V451Zm2.49-.4v-3.19a.53.53,0,0,0-.17-.42.66.66,0,0,0-.47-.15h-1.55v-1.33h1.68a2.39,2.39,0,0,1,1.63.53,1.83,1.83,0,0,1,.59,1.45v3.11Z"/><path class="cls-8" d="M122.65,458.32v-2.18a1.11,1.11,0,0,0-.24-.8,1,1,0,0,0-.79-.25h-1.19v-.3h1.2a1.47,1.47,0,0,1,1.05.33,1.35,1.35,0,0,1,.34,1v2.18Zm-2.21,0v-1.2a2.48,2.48,0,0,1,0-.45c0-.1.06-.2.09-.3h.32a3,3,0,0,0-.07.32c0,.11,0,.25,0,.42v1.21Z"/><path class="cls-8" d="M123.7,454.79h2.72v.3h-.57v3.23h-.37v-3.23H123.7Z"/><path class="cls-8" d="M126.81,458.32V458h2l.37,0,.44,0v.29Zm2-.09v-2.09a1.11,1.11,0,0,0-.24-.8,1,1,0,0,0-.79-.25H127v-.3h.81a1.47,1.47,0,0,1,1.05.33,1.35,1.35,0,0,1,.34,1v2.09Z"/><path class="cls-8" d="M130.55,458.32v-3.23h-.46v-.3h.83v3.53Z"/><path class="cls-8" d="M132.87,458.38a2.81,2.81,0,0,1-.56-.06,2.54,2.54,0,0,1-.62-.18l.1-.28a3.42,3.42,0,0,0,.55.17,2.25,2.25,0,0,0,.49.06,1.21,1.21,0,0,0,.84-.29A1.08,1.08,0,0,0,134,457v-2.17h.37V457a1.62,1.62,0,0,1-.19.79,1.23,1.23,0,0,1-.53.48A1.71,1.71,0,0,1,132.87,458.38Zm-1-3.59h.37l.6,2.66a2.14,2.14,0,0,0,.11.41,1.51,1.51,0,0,0,.16.31h-.3a2,2,0,0,1-.2-.31,1.56,1.56,0,0,1-.13-.4Z"/></g><g id="יב_א_צפונית" data-name="יב&quot;א צפונית"><path class="cls-7" d="M225.05,34.62A9.42,9.42,0,0,1,215.64,44H170.9a9.33,9.33,0,0,0-9.33,9.33v1.86a1,1,0,0,1-1,1h0a1,1,0,0,1-1-1V34.62A9.41,9.41,0,0,1,169,25.2h46.6a9.46,9.46,0,0,1,9.41,9.42Z"/><path class="cls-8" d="M170.89,28.65a2.28,2.28,0,0,1,1.63.53,2,2,0,0,1,.57,1.54v3.42h-1.71l0-3.58a.69.69,0,0,0-.12-.43.43.43,0,0,0-.34-.16h-.68c0,.18,0,.35,0,.52s0,.32,0,.45v1.43a1.87,1.87,0,0,1-.48,1.37,1.75,1.75,0,0,1-1.32.49,2.49,2.49,0,0,1-.4,0,2.52,2.52,0,0,1-.37-.05V32.85h.29a.63.63,0,0,0,.44-.15.61.61,0,0,0,.16-.47V31.1a3.15,3.15,0,0,1,.06-.54,2,2,0,0,1,.21-.59H168V28.65Z"/><path class="cls-8" d="M174.66,31.82V30h-.79V28.65h2.5v3.17Z"/><path class="cls-8" d="M178.43,34.23a2.93,2.93,0,0,1-.53,0c-.17,0-.37,0-.6-.1V32.81a4.93,4.93,0,0,0,.65,0,.54.54,0,0,0,.42-.15.69.69,0,0,0,.14-.47V30h-.91V28.65h2.63v3.72a1.87,1.87,0,0,1-.48,1.36A1.76,1.76,0,0,1,178.43,34.23Z"/><path class="cls-8" d="M181.62,34.14V30h-.4V28.65h2.12v5.49Z"/><path class="cls-8" d="M186.89,34.27a7.12,7.12,0,0,1-1.07-.09,7.74,7.74,0,0,1-1.08-.27l.32-1.25a7.67,7.67,0,0,0,.93.19,5,5,0,0,0,.77.07,1.32,1.32,0,0,0,.9-.26.94.94,0,0,0,.3-.76V30H186.6a4.31,4.31,0,0,0-.1.45c0,.12,0,.25,0,.4V31l.21,0h.15v1.08a2.28,2.28,0,0,1-.7.08,2.84,2.84,0,0,1-.72-.1,1.88,1.88,0,0,1-.59-.26v-.41a3.45,3.45,0,0,1,.08-.8,1.91,1.91,0,0,1,.23-.65h-.53V28.65h5.07v3a2.62,2.62,0,0,1-.39,1.51,2.1,2.1,0,0,1-1,.83A3.7,3.7,0,0,1,186.89,34.27Z"/><path class="cls-8" d="M191,34.14V32.81h2.27l-2.79-4.16h1.91l1.36,2.25,1.72,2.49v.75Zm3.13-1.93L193,30.85l.91-2.2h1.92Z"/><path class="cls-8" d="M202.49,34.14l-3.73-5.49h1.92l3.72,5.49Zm-3.49,0V32.4a2.72,2.72,0,0,1,.29-1.36,1.81,1.81,0,0,1,1-.72l.59.86a.6.6,0,0,0-.21.46v2.5Zm5.47-5.49-1.77,3.54-1.11-1.36,1-2.18Z"/><path class="cls-8" d="M205.29,28.69a1.66,1.66,0,0,1,.13-.64,3,3,0,0,1,.32-.61,2.42,2.42,0,0,1,.41-.47l.71.38a5.09,5.09,0,0,0-.26.57,2.21,2.21,0,0,0-.12.78v.77h-1.19Zm1.65,0a1.66,1.66,0,0,1,.13-.64,3,3,0,0,1,.32-.61,2.42,2.42,0,0,1,.41-.47l.71.38a5.09,5.09,0,0,0-.26.57,2.21,2.21,0,0,0-.12.78v.77h-1.19Z"/><path class="cls-8" d="M209.08,34.14V32.81h2.48l1.72-.05.63.1v1.28Zm2.48-.4V30.55a.54.54,0,0,0-.16-.43.68.68,0,0,0-.47-.15h-1.55V28.65h1.68a2.39,2.39,0,0,1,1.63.53,1.86,1.86,0,0,1,.59,1.45v3.11Z"/><path class="cls-8" d="M215,31.82V30h-.79V28.65h2.51v3.17Z"/><path class="cls-8" d="M207.75,39.17,208,37h2.2v.33h-1.89l-.15,1.49a1.69,1.69,0,0,1,.33-.16,1.53,1.53,0,0,1,.49-.08,1.38,1.38,0,0,1,.69.17,1.21,1.21,0,0,1,.46.49,1.67,1.67,0,0,1,.16.76,2,2,0,0,1-.14.75,1.1,1.1,0,0,1-.43.52,1.3,1.3,0,0,1-.75.19,1.57,1.57,0,0,1-.49-.07,1.11,1.11,0,0,1-.41-.23,1.15,1.15,0,0,1-.3-.38,1.65,1.65,0,0,1-.14-.53h.35a1,1,0,0,0,.31.67,1,1,0,0,0,.68.24,1,1,0,0,0,.53-.14.89.89,0,0,0,.32-.39,1.65,1.65,0,0,0,.1-.62,1.25,1.25,0,0,0-.11-.56.87.87,0,0,0-.34-.39,1,1,0,0,0-.55-.15,1.15,1.15,0,0,0-.5.09,1.24,1.24,0,0,0-.35.23Z"/><path class="cls-8" d="M213.59,39.59a2.92,2.92,0,0,1-.16,1.06,1.33,1.33,0,0,1-.46.63,1.25,1.25,0,0,1-.73.2,1.16,1.16,0,0,1-1.19-.83,2.9,2.9,0,0,1-.17-1.06v-.75a3.15,3.15,0,0,1,.16-1.06,1.27,1.27,0,0,1,.47-.62,1.41,1.41,0,0,1,1.45,0,1.27,1.27,0,0,1,.47.62,3.15,3.15,0,0,1,.16,1.06Zm-.36-.79a2.8,2.8,0,0,0-.11-.84,1.17,1.17,0,0,0-.33-.52.85.85,0,0,0-.56-.17.81.81,0,0,0-.54.17,1,1,0,0,0-.33.52,2.49,2.49,0,0,0-.12.84v.83a2.57,2.57,0,0,0,.12.84,1.05,1.05,0,0,0,.33.53.93.93,0,0,0,1.1,0,1.12,1.12,0,0,0,.33-.53,2.9,2.9,0,0,0,.11-.84Z"/><path class="cls-8" d="M216.5,37v.31h-.05a1.91,1.91,0,0,0-.74.14,1.45,1.45,0,0,0-.55.39,1.75,1.75,0,0,0-.33.62,2.55,2.55,0,0,0-.12.81v.61a1.65,1.65,0,0,0,.14.7,1.09,1.09,0,0,0,.39.45,1,1,0,0,0,.54.16.85.85,0,0,0,.5-.16,1.1,1.1,0,0,0,.33-.43,1.64,1.64,0,0,0,.11-.6,1.52,1.52,0,0,0-.11-.57.93.93,0,0,0-.31-.42.9.9,0,0,0-.55-.16,1.08,1.08,0,0,0-.52.13,1.17,1.17,0,0,0-.39.34.8.8,0,0,0-.16.46h-.21a1.59,1.59,0,0,1,.13-.51,1.24,1.24,0,0,1,.29-.39,1.33,1.33,0,0,1,.41-.25,1.44,1.44,0,0,1,.51-.09,1.18,1.18,0,0,1,.7.2,1.31,1.31,0,0,1,.43.53,1.89,1.89,0,0,1,.14.72,1.7,1.7,0,0,1-.16.76,1.2,1.2,0,0,1-.45.54,1.13,1.13,0,0,1-.69.2,1.43,1.43,0,0,1-.6-.12,1.3,1.3,0,0,1-.45-.35,1.53,1.53,0,0,1-.28-.52,1.79,1.79,0,0,1-.1-.62v-.39a3.56,3.56,0,0,1,.13-1,2,2,0,0,1,.39-.79,1.72,1.72,0,0,1,.65-.51,2.45,2.45,0,0,1,.93-.17Z"/></g><g id="יב_א_מרכז" data-name="יב&quot;א מרכז"><path class="cls-7" d="M206,166.65a9.42,9.42,0,0,1-9.41,9.43H158.51a9.33,9.33,0,0,0-9.33,9.33v1.86a1,1,0,0,1-1,1h0a1,1,0,0,1-1-1V166.65a9.41,9.41,0,0,1,9.41-9.41H196.6a9.42,9.42,0,0,1,9.41,9.41Z"/><path class="cls-8" d="M157.13,166.17l-.55-4.11-.27-.09v-1.29h3.24V162h-1.29l.63,4.16Z"/><path class="cls-8" d="M161.67,166.26a7.11,7.11,0,0,1-.78,0c-.27,0-.55-.08-.84-.14l.26-1.25a6.72,6.72,0,0,0,1.1.14,1.35,1.35,0,0,0,.91-.26,1,1,0,0,0,.26-.76V162h-2.3v-1.33h4v3a3.06,3.06,0,0,1-.33,1.52,1.93,1.93,0,0,1-.91.83A3.52,3.52,0,0,1,161.67,166.26Z"/><path class="cls-8" d="M167.37,166.17v-3.52a.62.62,0,0,0-.17-.48.76.76,0,0,0-.53-.16h-1.56v-1.33h1.7a2.46,2.46,0,0,1,1.68.54,1.91,1.91,0,0,1,.6,1.5v3.45Z"/><path class="cls-8" d="M170.32,166.17l.32-2.89a2.86,2.86,0,0,1,.17-.7,1.57,1.57,0,0,1,.3-.53l0,0,0,0v0a1.73,1.73,0,0,0-.4.09,2.14,2.14,0,0,0-.34.12l-.35-1.23a5.81,5.81,0,0,1,.79-.23,9,9,0,0,1,.93-.16,7.44,7.44,0,0,1,.93-.05,2.76,2.76,0,0,1,2,.66,2.58,2.58,0,0,1,.69,1.95v3h-2.47v-1.32h.75v-1.94a1.38,1.38,0,0,0-.17-.73.52.52,0,0,0-.46-.26.59.59,0,0,0-.54.28,2,2,0,0,0-.22.85l-.29,3.12Z"/><path class="cls-8" d="M182.41,166.17l-3.72-5.49h1.91l3.72,5.49Zm-3.49,0v-1.73a2.56,2.56,0,0,1,.3-1.36,1.75,1.75,0,0,1,1-.72l.59.85a.62.62,0,0,0-.21.46v2.5Zm5.47-5.49-1.77,3.55-1.1-1.37.95-2.18Z"/><path class="cls-8" d="M185.21,160.73a1.83,1.83,0,0,1,.13-.64,2.73,2.73,0,0,1,.32-.61,2.85,2.85,0,0,1,.41-.48l.71.39a6,6,0,0,0-.26.56,2.24,2.24,0,0,0-.12.78v.78h-1.19Zm1.65,0a1.83,1.83,0,0,1,.13-.64,2.73,2.73,0,0,1,.32-.61,2.85,2.85,0,0,1,.41-.48l.71.39a4.24,4.24,0,0,0-.25.56,2,2,0,0,0-.13.78v.78h-1.19Z"/><path class="cls-8" d="M189,166.17v-1.33h2.49l1.71-.05.63.11v1.27Zm2.49-.4v-3.19a.54.54,0,0,0-.17-.42.66.66,0,0,0-.47-.15H189.3v-1.33H191a2.39,2.39,0,0,1,1.63.53,1.84,1.84,0,0,1,.59,1.46v3.1Z"/><path class="cls-8" d="M194.94,163.85V162h-.79v-1.33h2.5v3.17Z"/><path class="cls-8" d="M187.67,171.2l.22-2.14h2.2v.33H188.2l-.16,1.49a1.27,1.27,0,0,1,.33-.16,1.53,1.53,0,0,1,1.19.09,1.19,1.19,0,0,1,.45.49,1.6,1.6,0,0,1,.17.75,2,2,0,0,1-.14.76,1.22,1.22,0,0,1-.43.52,1.44,1.44,0,0,1-.75.19,1.53,1.53,0,0,1-.49-.08,1.06,1.06,0,0,1-.42-.22,1.1,1.1,0,0,1-.29-.38,1.26,1.26,0,0,1-.14-.54h.34a1.08,1.08,0,0,0,.31.68,1,1,0,0,0,.69.23.93.93,0,0,0,.52-.13.81.81,0,0,0,.32-.4,1.64,1.64,0,0,0,.11-.62,1.28,1.28,0,0,0-.12-.56.91.91,0,0,0-.34-.39.94.94,0,0,0-.55-.14,1.11,1.11,0,0,0-.49.08,1.18,1.18,0,0,0-.35.23Z"/><path class="cls-8" d="M193.51,171.62a3,3,0,0,1-.16,1.07,1.15,1.15,0,0,1-.46.62,1.36,1.36,0,0,1-1.45,0,1.27,1.27,0,0,1-.47-.62,3,3,0,0,1-.16-1.07v-.74a3,3,0,0,1,.16-1.07,1.35,1.35,0,0,1,.46-.62,1.43,1.43,0,0,1,1.46,0,1.35,1.35,0,0,1,.46.62,3,3,0,0,1,.16,1.07Zm-.36-.79A2.59,2.59,0,0,0,193,170a1,1,0,0,0-.33-.52,1,1,0,0,0-1.1,0,1,1,0,0,0-.33.52,2.9,2.9,0,0,0-.11.84v.83a2.9,2.9,0,0,0,.11.84,1.13,1.13,0,0,0,.34.53.82.82,0,0,0,.54.18.86.86,0,0,0,.56-.18,1.11,1.11,0,0,0,.32-.53,2.59,2.59,0,0,0,.11-.84Z"/><path class="cls-8" d="M195.1,171.13h.41a2,2,0,0,1,.65.09,1,1,0,0,1,.44.24.93.93,0,0,1,.26.36,1.27,1.27,0,0,1,.08.44,1.21,1.21,0,0,1-.18.68,1.06,1.06,0,0,1-.48.43,1.52,1.52,0,0,1-.69.15,1.82,1.82,0,0,1-.52-.08,1.37,1.37,0,0,1-.45-.23,1.13,1.13,0,0,1-.32-.4,1.2,1.2,0,0,1-.12-.55h.36a1,1,0,0,0,.13.49.93.93,0,0,0,.37.34,1.2,1.2,0,0,0,.55.12,1.05,1.05,0,0,0,.73-.24.93.93,0,0,0,.26-.7.88.88,0,0,0-.14-.51.74.74,0,0,0-.39-.3,1.72,1.72,0,0,0-.58-.09h-.37Zm.37-.07a1.2,1.2,0,0,0,.57-.12.82.82,0,0,0,.46-.74,1,1,0,0,0-.1-.47.84.84,0,0,0-.3-.32,1.19,1.19,0,0,0-.53-.11,1.1,1.1,0,0,0-.49.11.84.84,0,0,0-.47.8h-.36a1.1,1.1,0,0,1,.17-.63,1.09,1.09,0,0,1,.47-.43,1.51,1.51,0,0,1,.68-.16,1.45,1.45,0,0,1,.68.15,1,1,0,0,1,.45.41,1.24,1.24,0,0,1,.16.66.86.86,0,0,1-.09.39.94.94,0,0,1-.25.35,1.49,1.49,0,0,1-.42.26,1.78,1.78,0,0,1-.59.09h-.41v-.24Z"/></g><g id="יב_א_דרומית" data-name="יב&quot;א דרומית"><path class="cls-7" d="M15.93,368.93a9.42,9.42,0,0,0,9.41,9.43H70.18a9.32,9.32,0,0,1,9.33,9.33v1.86a1,1,0,0,0,1,1h0a1,1,0,0,0,1-1V368.93A9.41,9.41,0,0,0,72,359.52H25.34a9.42,9.42,0,0,0-9.41,9.41Z"/><path class="cls-8" d="M28.32,362.92a2.28,2.28,0,0,1,1.63.53,2,2,0,0,1,.57,1.54v3.42H28.81l0-3.57a.72.72,0,0,0-.12-.44.42.42,0,0,0-.34-.15h-.68a4.38,4.38,0,0,0,0,.51c0,.17,0,.32,0,.45v1.44a1.81,1.81,0,0,1-.49,1.36,1.73,1.73,0,0,1-1.31.5l-.4,0-.38-.05v-1.31h.29a.64.64,0,0,0,.45-.15.61.61,0,0,0,.16-.47v-1.14a3,3,0,0,1,.06-.53,1.8,1.8,0,0,1,.21-.59h-.78v-1.33Z"/><path class="cls-8" d="M32.09,366.09v-1.84H31.3v-1.33h2.5v3.17Z"/><path class="cls-8" d="M35.13,368.41l.32-2.89a2.86,2.86,0,0,1,.17-.7,2,2,0,0,1,.3-.53l0,0,0,0v0a1.77,1.77,0,0,0-.39.09,2,2,0,0,0-.35.12l-.35-1.23a6.27,6.27,0,0,1,.79-.23,9,9,0,0,1,.93-.16,7.44,7.44,0,0,1,.93-.05,2.76,2.76,0,0,1,2,.66,2.58,2.58,0,0,1,.69,1.95v3H37.75v-1.32h.75v-1.94a1.38,1.38,0,0,0-.17-.73.52.52,0,0,0-.46-.26.57.57,0,0,0-.53.28,1.88,1.88,0,0,0-.23.85l-.29,3.12Z"/><path class="cls-8" d="M41.48,368.41v-4.16h-.41v-1.33H43.2v5.49Z"/><path class="cls-8" d="M46.27,368.41v-3.52a.59.59,0,0,0-.18-.48.76.76,0,0,0-.53-.16H44v-1.33h1.7a2.42,2.42,0,0,1,1.68.54A1.93,1.93,0,0,1,48,365v3.44Z"/><path class="cls-8" d="M48.81,362.92H53.7v1.33h-1v4.16H51v-4.16H48.81Z"/><path class="cls-8" d="M60.46,368.41l-3.73-5.49h1.92l3.72,5.49Zm-3.49,0v-1.73a2.67,2.67,0,0,1,.29-1.36,1.81,1.81,0,0,1,1-.72l.59.85a.63.63,0,0,0-.22.46v2.5Zm5.47-5.49-1.77,3.55-1.11-1.37,1-2.18Z"/><path class="cls-8" d="M63.26,363a1.8,1.8,0,0,1,.12-.63,2.76,2.76,0,0,1,.33-.61,2.46,2.46,0,0,1,.41-.48l.71.39a4.21,4.21,0,0,0-.26.56,2.24,2.24,0,0,0-.12.78v.77H63.26Zm1.65,0a1.8,1.8,0,0,1,.12-.63,2.76,2.76,0,0,1,.33-.61,2.85,2.85,0,0,1,.41-.48l.71.39a4.21,4.21,0,0,0-.26.56,2.24,2.24,0,0,0-.12.78v.77H64.91Z"/><path class="cls-8" d="M67.05,368.41v-1.33h2.48l1.72-.05.63.11v1.27Zm2.48-.4v-3.19a.54.54,0,0,0-.16-.42.68.68,0,0,0-.47-.15H67.35v-1.33H69a2.39,2.39,0,0,1,1.63.53,1.88,1.88,0,0,1,.59,1.46V368Z"/><path class="cls-8" d="M73,366.09v-1.84h-.79v-1.33H74.7v3.17Z"/><path class="cls-8" d="M65.62,373.44l.21-2.15H68v.34H66.15L66,373.12a1.13,1.13,0,0,1,.33-.16,1.31,1.31,0,0,1,.5-.08,1.25,1.25,0,0,1,.68.17,1.15,1.15,0,0,1,.46.49,1.6,1.6,0,0,1,.16.75,1.84,1.84,0,0,1-.14.76,1.09,1.09,0,0,1-.43.52,1.37,1.37,0,0,1-.74.19,1.64,1.64,0,0,1-.5-.08,1.11,1.11,0,0,1-.7-.6,1.54,1.54,0,0,1-.15-.54h.35a1.08,1.08,0,0,0,.31.68,1,1,0,0,0,.69.23.93.93,0,0,0,.52-.13.81.81,0,0,0,.32-.4,1.64,1.64,0,0,0,.11-.62,1.28,1.28,0,0,0-.12-.56,1,1,0,0,0-.34-.39,1,1,0,0,0-.55-.14,1.19,1.19,0,0,0-.5.08,1.27,1.27,0,0,0-.34.23Z"/><path class="cls-8" d="M71.46,373.86a3,3,0,0,1-.16,1.07,1.2,1.2,0,0,1-.46.62,1.36,1.36,0,0,1-1.45,0,1.21,1.21,0,0,1-.47-.62,3,3,0,0,1-.17-1.07v-.74a3,3,0,0,1,.17-1.07,1.29,1.29,0,0,1,.46-.62,1.3,1.3,0,0,1,.73-.2,1.17,1.17,0,0,1,1.19.82,3,3,0,0,1,.16,1.07Zm-.36-.79a2.9,2.9,0,0,0-.11-.84,1.09,1.09,0,0,0-.33-.52,1,1,0,0,0-1.1,0,1,1,0,0,0-.33.52,2.59,2.59,0,0,0-.11.84v.83a2.9,2.9,0,0,0,.11.84,1.12,1.12,0,0,0,.33.53.87.87,0,0,0,.55.18.83.83,0,0,0,.55-.18,1.05,1.05,0,0,0,.33-.53,2.9,2.9,0,0,0,.11-.84Z"/><path class="cls-8" d="M72.82,375.42a2,2,0,0,0,.8-.14,1.32,1.32,0,0,0,.52-.4,1.57,1.57,0,0,0,.28-.58,2.86,2.86,0,0,0,.09-.73V373a2,2,0,0,0-.14-.77,1.05,1.05,0,0,0-.36-.48,1,1,0,0,0-.54-.16.83.83,0,0,0-.52.17,1.17,1.17,0,0,0-.34.45,1.53,1.53,0,0,0-.12.6,1.56,1.56,0,0,0,.11.57,1,1,0,0,0,.32.44.78.78,0,0,0,.52.17,1,1,0,0,0,.47-.1,1,1,0,0,0,.34-.26,1.27,1.27,0,0,0,.23-.34,1,1,0,0,0,.08-.36h.18a1.35,1.35,0,0,1-.1.53,1.57,1.57,0,0,1-.28.44,1.48,1.48,0,0,1-.43.31,1.32,1.32,0,0,1-.53.11,1.12,1.12,0,0,1-.69-.22,1.31,1.31,0,0,1-.43-.55,1.7,1.7,0,0,1-.14-.71,1.92,1.92,0,0,1,.15-.77,1.37,1.37,0,0,1,.46-.57,1.21,1.21,0,0,1,.71-.21,1.46,1.46,0,0,1,.62.13,1.21,1.21,0,0,1,.44.37,1.56,1.56,0,0,1,.26.55,2.65,2.65,0,0,1,.09.71v.35a3.67,3.67,0,0,1-.07.75,2.31,2.31,0,0,1-.2.66,1.71,1.71,0,0,1-.37.52,1.59,1.59,0,0,1-.58.34,2.59,2.59,0,0,1-.83.12h-.08v-.31Z"/></g></g></svg>