<svg id="Layer_1" data-name="Layer 1" xmlns="http://www.w3.org/2000/svg" viewBox="0 0 46.85 71.63"><defs><style>.cls-1{fill:#2e365b;}</style></defs><path class="cls-1" d="M44.52,0H2.33A2.33,2.33,0,0,0,0,2.33v67a2.32,2.32,0,0,0,1.51,2.19,2.37,2.37,0,0,0,.82.15,2.35,2.35,0,0,0,1.76-.81L23.42,48.53,42.76,70.82a2.37,2.37,0,0,0,2.58.66,2.32,2.32,0,0,0,1.51-2.19v-67A2.34,2.34,0,0,0,44.52,0ZM43.35,66.16,25.18,45.22a2.38,2.38,0,0,0-3.52,0L3.5,66.16V3.5H43.35Z"/><path class="cls-1" d="M23.62,11.51l3,9.31a.18.18,0,0,0,.19.14h9.79a.21.21,0,0,1,.13.38l-7.92,5.75a.21.21,0,0,0-.08.24l3,9.31a.21.21,0,0,1-.32.23l-7.93-5.75a.18.18,0,0,0-.24,0l-7.92,5.75a.21.21,0,0,1-.32-.23l3-9.31a.24.24,0,0,0-.08-.24l-7.92-5.75a.21.21,0,0,1,.12-.38H20a.2.2,0,0,0,.2-.14l3-9.31A.21.21,0,0,1,23.62,11.51Z"/></svg>