<svg xmlns="http://www.w3.org/2000/svg" viewBox="0 0 104.57 26.31"><defs><style>.cls-1{fill:#1d1d1b;}.cls-2{fill:none;stroke:#1d1d1b;stroke-miterlimit:10;}</style></defs><g id="מפה"><path class="cls-1" d="M33,6.31h9.7V7.4H40.63V18.9H39.31V7.4H33Z"/><path class="cls-1" d="M46.08,18.9V7.4H44.42V6.31h3V18.9Z"/><path class="cls-1" d="M54.33,19.14a10.29,10.29,0,0,1-2-.21,13.35,13.35,0,0,1-2.23-.64l.37-1a13.52,13.52,0,0,0,2,.62,8.51,8.51,0,0,0,1.73.2,4.31,4.31,0,0,0,3-1,3.82,3.82,0,0,0,1.15-3V6.31h1.31V14A5.44,5.44,0,0,1,59,16.83a4.42,4.42,0,0,1-1.88,1.73A6.36,6.36,0,0,1,54.33,19.14ZM50.85,6.31h1.32l2.13,9.5a10.35,10.35,0,0,0,.41,1.48,5,5,0,0,0,.56,1.1l-1.09,0a7.87,7.87,0,0,1-.69-1.12A6.11,6.11,0,0,1,53,15.81Z"/><path class="cls-1" d="M78.1,18.9,68.77,6.31h1.48L79.57,18.9Zm-8.91,0V14.13a5.24,5.24,0,0,1,.65-2.74,3.6,3.6,0,0,1,1.94-1.55l.6.7a3.1,3.1,0,0,0-1.9,3.24V18.9ZM79.58,6.31l-4.43,7.41-.9-1,3.84-6.43Z"/><path class="cls-1" d="M88.31,18.9v-9a2.45,2.45,0,0,0-.67-1.81,2.39,2.39,0,0,0-1.79-.67H81.38V6.31h4.44a3.86,3.86,0,0,1,2.79,1,3.59,3.59,0,0,1,1,2.72V18.9Z"/><path class="cls-1" d="M97.45,18.9V17.81a4.16,4.16,0,0,0,2.76-1,3.35,3.35,0,0,0,1.05-2.58V7.4h-8V6.31h9.28v7.87a4.75,4.75,0,0,1-.62,2.49,4.13,4.13,0,0,1-1.77,1.61A6.69,6.69,0,0,1,97.45,18.9Zm-3.89,4.49V14a7.6,7.6,0,0,1,.13-1.54A8.89,8.89,0,0,1,94,11.4h1.12a6.42,6.42,0,0,0-.23,1.11q-.06.6-.06,1.5v9.38Z"/><polyline class="cls-2" points="0.36 6.93 12.37 19.38 25.13 6.93"/></g></svg>