<svg id="Layer_1" data-name="Layer 1" xmlns="http://www.w3.org/2000/svg" viewBox="0 0 80.24 112.78"><defs><style>.cls-1{fill:none;stroke:#2e365b;stroke-linecap:round;stroke-miterlimit:10;stroke-width:5px;}</style></defs><path class="cls-1" d="M72.05,27.23l-6.63,80.94a2.29,2.29,0,0,1-2.29,2.11H17.05a2.3,2.3,0,0,1-2.29-2.11L8.14,27.21a2.3,2.3,0,0,1,2.29-2.49l59.32,0A2.3,2.3,0,0,1,72.05,27.23Z"/><line class="cls-1" x1="2.5" y1="18" x2="77.74" y2="7.27"/><path class="cls-1" d="M33.49,3.21H43.61a4.05,4.05,0,0,1,4.05,4.05v5.55a0,0,0,0,1,0,0H29.43a0,0,0,0,1,0,0V7.26A4.05,4.05,0,0,1,33.49,3.21Z" transform="translate(-0.74 5.52) rotate(-8.12)"/><line class="cls-1" x1="40.54" y1="49.09" x2="40.54" y2="96.56"/><line class="cls-1" x1="22.65" y1="49.14" x2="26.93" y2="96.52"/><line class="cls-1" x1="58.43" y1="49.14" x2="54.15" y2="96.52"/></svg>