<svg id="Layer_1" data-name="Layer 1" xmlns="http://www.w3.org/2000/svg" viewBox="0 0 28.56 28.51"><defs><style>.cls-1{fill:#2E365B;}</style></defs><path class="cls-1" d="M28,25.17l-7.91-7.91-.7.7-1-1a10.06,10.06,0,0,0,1.55-2.55A10.34,10.34,0,0,0,17.67,3,10.38,10.38,0,0,0,14.38.81a10.43,10.43,0,0,0-8.06,0A10.41,10.41,0,0,0,.81,6.32a10.43,10.43,0,0,0,0,8.06A10.5,10.5,0,0,0,3,17.67a10.38,10.38,0,0,0,11.35,2.22A10,10,0,0,0,17,18.3l1,1-.7.71,7.91,7.91A2,2,0,1,0,28,25.17ZM10.35,18.6a8.25,8.25,0,1,1,8.25-8.25A8.26,8.26,0,0,1,10.35,18.6Z"/></svg>