<svg id="Layer_1" data-name="Layer 1" xmlns="http://www.w3.org/2000/svg" viewBox="0 0 34.95 36.06"><defs><style>.cls-1{fill:#616160;}.cls-2{fill:none;stroke:#616160;stroke-linecap:round;stroke-linejoin:bevel;stroke-width:2px;}</style></defs><path class="cls-1" d="M34.37,28.86,26.46,21l-.7.7-1-1a10.06,10.06,0,0,0,1.55-2.55A10.36,10.36,0,0,0,12.71,4.5,10.5,10.5,0,0,0,9.42,6.72,10.36,10.36,0,0,0,23.38,22l1,1-.7.71,7.91,7.91a2,2,0,0,0,2.76-2.77ZM16.74,22.29A8.25,8.25,0,1,1,25,14,8.26,8.26,0,0,1,16.74,22.29Z"/><line class="cls-2" x1="1" y1="1" x2="1" y2="35.06"/></svg>