<svg xmlns="http://www.w3.org/2000/svg" viewBox="0 0 181.97 67.88"><defs><style>.cls-1{fill:#fff;}</style></defs><g id="מפה"><path class="cls-1" d="M66.22,22.48,63,21.9l-28.34-5a5.87,5.87,0,0,1-1.72-.6l-30-16-.05,0A2,2,0,0,0,.56.61,1.94,1.94,0,0,0,.23,2.89l17.67,34a5.67,5.67,0,0,0,3,2.71L67.47,57.33l.45.17.82-2.15-4-1.51-7-2.67-2.53-1L51,48.58l-2.52-1-4.09-1.55-2.52-1L21.75,37.47a3.4,3.4,0,0,1-1.82-1.62L2.75,2.76,31.8,18.28a8,8,0,0,0,2.41.84l7.64,1.36,2.29.41,4.61.81,2.3.41,4.3.77,2.29.41,4.3.76,3.2.57Z"/><polygon class="cls-1" points="55.8 47.95 21.78 34.64 32.99 25.82 16.49 17.74 17.5 15.67 37.28 25.37 26.36 33.96 56.64 45.8 55.8 47.95"/><path class="cls-1" d="M42.29,47.54c-4.08-19.75-.07-28.12.1-28.46l2.06,1A21.06,21.06,0,0,0,43,26.42c-.43,4-.52,10.8,1.52,20.66Z"/><path class="cls-1" d="M48.93,50.23C44.85,30.5,48.84,21.4,49,21l2.09,1-1-.48,1,.47a25.16,25.16,0,0,0-1.44,6.72c-.43,4.16-.52,11.2,1.52,21.08Z"/><path class="cls-1" d="M55.57,51.94c-4.08-19.72-.1-29.45.07-29.86l2.12.9-1.06-.45,1.06.44A27.65,27.65,0,0,0,56.31,30a71.42,71.42,0,0,0,1.51,21.44Z"/><polygon class="cls-1" points="11.65 13.51 15.76 19.9 17.47 17.2 19.18 14.49 11.65 13.51"/><path class="cls-1" d="M91,67.88A31.56,31.56,0,0,1,68.71,14a31.56,31.56,0,0,1,44.63,44.63A31.36,31.36,0,0,1,91,67.88Zm0-60a28.41,28.41,0,1,0,28.42,28.41A28.44,28.44,0,0,0,91,7.92Z"/><polygon class="cls-1" points="91.03 12.65 70.48 47.76 91.03 47.76 111.57 47.76 91.03 12.65"/><polygon class="cls-1" points="91.03 60.1 70.48 24.99 91.03 24.99 111.57 24.99 91.03 60.1"/><path class="cls-1" d="M116.91,24.61l3.2-.57,4.22-.75,2.29-.41,4.31-.77,2.3-.41,4.6-.81,2.29-.41,7.64-1.36a7.85,7.85,0,0,0,2.41-.84L179.22,2.76,162,35.85a3.41,3.41,0,0,1-1.81,1.62l-20.08,7.64-2.52,1-4.09,1.55-2.51,1-4.29,1.63-2.53,1-6.9,2.62-4.08,1.55.82,2.15.57-.22L161,39.62a5.72,5.72,0,0,0,3-2.71l17.67-34a2,2,0,0,0-2.6-2.7l0,0-30,16.05a5.83,5.83,0,0,1-1.73.6l-28.26,5-3.28.59Z"/><polygon class="cls-1" points="126.17 47.95 125.33 45.8 155.62 33.96 144.69 25.37 164.47 15.67 165.49 17.74 148.99 25.82 160.19 34.64 126.17 47.95"/><path class="cls-1" d="M139.68,47.54l-2.25-.46c2-9.86,1.95-16.68,1.52-20.66a21.06,21.06,0,0,0-1.43-6.32l2.06-1C139.76,19.42,143.77,27.79,139.68,47.54Z"/><path class="cls-1" d="M133,50.23l-2.25-.46c2-9.88,2-16.92,1.52-21.08A24.66,24.66,0,0,0,130.87,22L133,21C133.13,21.4,137.12,30.5,133,50.23Z"/><path class="cls-1" d="M126.4,51.94l-2.25-.47c3.93-19,.11-28.4.07-28.49l2.11-.9C126.5,22.49,130.48,32.22,126.4,51.94Z"/><polygon class="cls-1" points="170.33 13.51 166.22 19.9 164.5 17.2 162.79 14.49 170.33 13.51"/></g></svg>